# Blender v2.91.0 OBJ File: 'arm.blend'
# www.blender.org
mtllib arm.mtl
o redead.png.001
v 0.519280 -1.016294 -0.332632
v 0.067073 -0.389953 -0.831069
v 0.250159 -0.731804 0.437681
v -0.480806 0.489336 -0.675057
v 3.434192 -0.541374 0.233487
v 3.829272 -0.086534 -0.015445
v 1.343853 0.187066 0.226031
v 0.795974 -0.427234 0.360248
v 3.796922 -0.742124 -0.267818
v 1.361749 -0.767934 -0.193827
v 0.184083 -0.023434 0.726189
v 3.812752 -0.273514 -0.614258
v 0.758117 0.685506 0.158923
v 1.137365 -0.125534 -0.468569
v 0.403648 0.371186 -0.644083
v 0.105619 0.850697 0.168101
vt 0.304678 0.093747
vt 0.320303 0.171870
vt 0.164058 0.171870
vt 0.140621 0.085935
vt 0.179682 0.007812
vt 0.312491 0.007812
vt 0.078123 0.132809
vt 0.320303 0.257805
vt 0.109372 0.195307
vt 0.132809 0.257805
vt 0.093747 0.039061
vt 0.093747 0.007812
vt 0.078123 0.249992
vt 0.179682 0.335927
vt 0.078123 0.304678
vt 0.093747 0.335927
vt 0.054686 0.203119
vt 0.312491 0.335927
vt 0.031249 0.265617
vt 0.000000 0.000000
vn 0.6825 -0.3276 0.6534
vn 0.7997 0.2975 0.5214
vn 0.7224 0.5324 0.4413
vn 0.1173 -0.2453 0.9623
vn 0.5048 -0.8439 -0.1814
vn -0.4389 -0.8961 0.0663
vn 0.0589 -0.0253 0.9979
vn -0.0444 0.0506 -0.9977
vn 0.5517 0.7897 0.2684
vn 0.5904 0.5843 -0.5568
vn 0.6317 -0.5569 0.5393
vn -0.3342 -0.9334 -0.1309
vn 0.2860 0.6028 -0.7449
vn 0.2386 0.2187 -0.9462
vn 0.0435 0.9756 0.2150
vn 0.2287 0.5438 -0.8074
vn 0.0561 -0.1225 0.9909
vn 0.7600 0.2073 0.6160
vn 0.8819 -0.0486 0.4688
vn 0.8883 0.4108 -0.2053
vn 0.9712 0.1200 0.2059
vn 0.6056 0.4101 -0.6820
vn 0.5199 -0.0455 0.8530
vn -0.7255 -0.6294 0.2784
vn -0.9715 -0.0086 0.2369
vn -0.9274 -0.1133 0.3566
vn -0.7951 0.4028 0.4534
vn -0.9065 -0.2428 0.3453
vn -0.9114 -0.1142 0.3953
vn 0.8620 0.4773 -0.1708
vn 0.8929 0.3867 -0.2307
vn 0.6854 0.3916 -0.6139
vn -0.5383 -0.6123 -0.5791
vn -0.7128 -0.6344 0.2991
vn -0.9714 -0.0702 0.2267
vn -0.9529 -0.0558 -0.2981
vn -0.8500 -0.1699 -0.4986
vn -0.0686 0.6670 -0.7419
vn 0.8914 0.0447 0.4511
vn 0.9793 0.0848 0.1835
usemtl redead.png
s 1
f 5/1/1 6/2/2 7/3/3
f 5/1/1 7/3/3 8/4/4
f 5/1/1 8/4/4 10/5/5
f 5/1/1 10/5/5 9/6/6
f 7/3/3 11/7/7 8/4/4
f 7/3/3 6/2/2 12/8/8
f 7/3/3 13/9/9 11/7/7
f 7/3/3 12/8/8 14/10/10
f 7/3/3 14/10/10 13/9/9
f 10/5/5 8/4/4 3/11/11
f 10/5/5 3/11/11 1/12/12
f 8/4/4 11/7/7 3/11/11
f 14/10/10 15/13/13 13/9/9
f 14/10/10 12/8/8 10/14/5
f 14/10/10 2/15/14 15/13/13
f 14/10/10 10/14/5 1/16/12
f 14/10/10 1/16/12 2/15/14
f 11/7/7 13/9/9 16/17/15
f 13/9/9 15/13/13 16/17/15
f 12/8/8 9/18/6 10/14/5
f 2/15/14 4/19/16 15/13/13
f 15/13/13 4/19/16 16/17/15
f 6/2/17 5/1/18 9/18/19
f 2/15/20 11/7/21 1/12/22
f 3/11/23 1/12/22 11/7/21
f 2/15/24 3/11/25 11/7/26
f 16/17/27 4/19/28 11/7/29
f 16/17/30 2/15/31 4/19/32
f 2/15/24 1/16/33 3/11/25
f 2/15/34 11/7/29 4/20/28
f 5/1/35 12/8/36 9/18/37
f 5/1/35 6/2/38 12/8/36
f 6/2/17 9/18/19 12/8/39
f 2/15/31 16/17/30 11/7/40
