# Blender v2.91.0 OBJ File: 'leg.blend'
# www.blender.org
mtllib leg.mtl
o redead.png.003_redead.png.004
v 0.082340 0.152463 0.584756
v -0.426995 -0.325900 0.471762
v 0.516536 0.283812 0.135074
v -0.569816 -0.409068 -0.645563
v -0.040979 -0.224950 -0.879009
v 0.323815 -3.754161 -0.061663
v -0.359314 -3.618224 -0.310595
v 0.096105 -1.900939 -0.694317
v 0.756865 -1.833830 0.033550
v 0.152889 -4.601906 0.543459
v 0.176406 -3.731218 0.608273
v -0.676501 -1.858494 -0.725290
v -0.453380 -3.782840 0.404080
v 0.298004 -1.984681 0.776904
v -0.593332 -1.840713 0.620318
vt 0.367177 0.773445
vt 0.460924 0.781257
vt 0.414050 0.898441
vt 0.367177 0.890629
vt 0.312491 0.781257
vt 0.312491 0.718759
vt 0.414050 0.992188
vt 0.468736 0.898441
vt 0.234368 0.773445
vt 0.343740 0.992188
vt 0.312491 0.882816
vt 0.546889 0.773445
vt 0.234368 0.890629
vt 0.492203 0.992188
vt 0.281242 0.992188
vt 0.546889 0.890629
vt 0.234368 0.992188
vt 0.546889 0.992188
vt 0.000000 0.000000
vt 0.000000 0.000000
vt 0.000000 0.000000
vn 0.1642 -0.9479 -0.2728
vn -0.3479 -0.1155 -0.9304
vn 0.4245 -0.2148 -0.8796
vn 0.9913 -0.0449 -0.1235
vn 0.7274 -0.2185 0.6505
vn 0.0478 -0.9660 0.2540
vn -0.0750 0.3670 -0.9272
vn -0.2670 -0.2014 -0.9424
vn -0.1472 -0.8256 0.5447
vn 0.9541 0.2786 -0.1098
vn 0.4824 0.0202 0.8757
vn -0.5820 -0.6491 0.4898
vn -0.4854 0.7963 -0.3611
vn 0.5247 0.1133 0.8437
vn -0.7885 0.5668 0.2389
vn -0.8743 -0.1963 -0.4439
vn -0.8760 0.2332 0.4222
vn -0.0800 0.0014 0.9968
vn 0.5772 -0.0290 0.8161
vn 0.8502 -0.1125 0.5142
vn -0.1078 -0.7092 -0.6967
vn -0.5452 0.5432 -0.6385
vn -0.0201 -0.1305 -0.9913
vn -0.6536 0.7455 0.1307
vn -0.9955 -0.0648 -0.0685
vn -0.6075 0.7756 -0.1712
vn -0.9569 0.0061 0.2903
vn 0.7740 0.1650 -0.6113
vn -0.3648 0.9296 0.0523
vn -0.6282 0.3556 -0.6921
usemtl redead.png
s 1
f 6/1/1 7/2/2 8/3/3
f 6/1/1 8/3/3 9/4/4
f 6/1/1 9/4/4 11/5/5
f 6/1/1 11/5/5 10/6/6
f 8/3/3 5/7/7 9/4/4
f 8/3/3 7/2/2 12/8/8
f 8/3/3 12/8/8 5/7/7
f 10/6/6 11/5/5 13/9/9
f 9/4/4 5/7/7 3/10/10
f 9/4/4 14/11/11 11/5/5
f 9/4/4 3/10/10 14/11/11
f 7/2/2 13/12/9 12/8/8
f 13/9/9 11/5/5 15/13/12
f 11/5/5 14/11/11 15/13/12
f 5/7/7 12/8/8 4/14/13
f 3/10/10 1/15/14 14/11/11
f 14/11/11 1/15/14 15/13/12
f 13/12/9 15/16/12 12/8/8
f 12/8/8 15/16/12 4/14/13
f 1/15/14 2/17/15 15/13/12
f 15/16/12 2/18/15 4/14/13
f 6/1/1 13/12/9 7/2/2
f 6/1/1 10/6/6 13/9/16
f 2/17/17 10/19/18 1/15/19
f 10/19/18 3/10/20 1/15/19
f 6/1/21 4/14/22 5/7/23
f 4/14/24 2/18/25 1/15/26
f 4/14/22 13/20/27 2/18/17
f 13/9/27 10/6/18 2/17/17
f 6/1/21 5/7/23 3/10/28
f 4/21/24 1/15/26 3/10/29
f 4/21/24 3/10/29 5/7/30
f 6/1/21 13/12/27 4/14/22
