# Blender v2.91.0 OBJ File: 'arm.blend'
# www.blender.org
mtllib Rarm.mtl
o redead.png.001
v -0.519280 -1.016294 -0.332632
v -0.067073 -0.389953 -0.831069
v -0.250159 -0.731804 0.437681
v 0.480806 0.489336 -0.675057
v -3.434192 -0.541374 0.233487
v -3.829272 -0.086534 -0.015445
v -1.343853 0.187066 0.226031
v -0.795974 -0.427234 0.360248
v -3.796922 -0.742124 -0.267818
v -1.361749 -0.767934 -0.193827
v -0.184083 -0.023434 0.726189
v -3.812752 -0.273514 -0.614258
v -0.758117 0.685506 0.158923
v -1.137365 -0.125534 -0.468569
v -0.403648 0.371186 -0.644083
v -0.105619 0.850697 0.168101
vt 0.304678 0.093747
vt 0.164058 0.171870
vt 0.320303 0.171870
vt 0.140621 0.085935
vt 0.179682 0.007812
vt 0.312491 0.007812
vt 0.078123 0.132809
vt 0.320303 0.257805
vt 0.109372 0.195307
vt 0.132809 0.257805
vt 0.093747 0.039061
vt 0.093747 0.007812
vt 0.078123 0.249992
vt 0.179682 0.335927
vt 0.078123 0.304678
vt 0.093747 0.335927
vt 0.054686 0.203119
vt 0.312491 0.335927
vt 0.031249 0.265617
vt 0.000000 0.000000
vn -0.6836 -0.3107 0.6604
vn -0.7287 0.5757 0.3709
vn -0.8898 0.3262 0.3192
vn -0.2372 -0.5942 0.7685
vn 0.1858 -0.9824 -0.0170
vn -0.0432 -0.3990 -0.9159
vn -0.0418 0.1788 0.9830
vn 0.0203 0.5410 -0.8408
vn -0.4528 0.8250 0.3382
vn -0.7787 0.1279 -0.6142
vn -0.5346 -0.2681 0.8014
vn 0.3879 -0.8023 -0.4537
vn -0.3207 0.5069 -0.8001
vn -0.4878 -0.1509 -0.8598
vn 0.0057 0.9933 0.1157
vn -0.2299 0.6698 -0.7060
vn -0.7461 0.3418 -0.5714
vn -0.9528 0.0114 0.3035
vn -0.7197 -0.6296 0.2927
vn -0.8273 0.5433 -0.1428
vn -0.8100 0.1277 0.5724
vn -0.8956 0.4395 -0.0681
vn -0.7150 -0.6598 0.2312
vn 0.8279 -0.4105 0.3821
vn 0.9803 0.1179 0.1585
vn 0.8604 -0.4622 -0.2145
vn 0.7436 0.3601 0.5633
vn 0.9115 -0.1918 0.3638
vn 0.9046 -0.3206 0.2810
vn -0.8568 0.4820 -0.1831
vn -0.6867 0.4943 -0.5330
vn -0.7973 0.4835 -0.3613
vn 0.4222 -0.8389 0.3436
vn 0.8899 -0.4529 0.0549
vn 0.9685 -0.0139 0.2486
vn 0.8974 -0.2100 -0.3879
vn 0.9349 0.3059 -0.1799
vn 0.6878 0.2400 0.6851
vn -0.8708 -0.3797 0.3125
vn -0.9800 -0.1848 0.0740
usemtl redead.png
s 1
f 5/1/1 7/2/2 6/3/3
f 5/1/1 8/4/4 7/2/2
f 5/1/1 10/5/5 8/4/4
f 5/1/1 9/6/6 10/5/5
f 7/2/2 8/4/4 11/7/7
f 7/2/2 12/8/8 6/3/3
f 7/2/2 11/7/7 13/9/9
f 7/2/2 14/10/10 12/8/8
f 7/2/2 13/9/9 14/10/10
f 10/5/5 3/11/11 8/4/4
f 10/5/5 1/12/12 3/11/11
f 8/4/4 3/11/11 11/7/7
f 14/10/10 13/9/9 15/13/13
f 14/10/10 10/14/5 12/8/8
f 14/10/10 15/13/13 2/15/14
f 14/10/10 1/16/12 10/14/5
f 14/10/10 2/15/14 1/16/12
f 11/7/7 16/17/15 13/9/9
f 13/9/9 16/17/15 15/13/13
f 12/8/8 10/14/5 9/18/6
f 2/15/14 15/13/13 4/19/16
f 15/13/13 16/17/15 4/19/16
f 6/3/17 9/18/18 5/1/19
f 2/15/20 1/12/21 11/7/22
f 3/11/23 11/7/22 1/12/21
f 2/15/24 11/7/25 3/11/26
f 16/17/27 11/7/28 4/19/29
f 16/17/30 4/19/31 2/15/32
f 2/15/24 3/11/26 1/16/33
f 2/15/34 4/20/29 11/7/28
f 5/1/35 9/18/36 12/8/37
f 5/1/35 12/8/37 6/3/38
f 6/3/17 12/8/39 9/18/18
f 2/15/32 11/7/40 16/17/30
