# Blender v2.91.0 OBJ File: 'fingers.blend'
# www.blender.org
mtllib Rfingers.mtl
o redead.png.002
v -0.331821 0.263623 0.673796
v -0.285705 0.172994 -0.553081
v -1.647141 -1.029217 0.765568
v -0.013828 -0.444747 0.773599
v 0.073587 -0.146486 -0.847899
v -1.078617 -1.059616 -0.546199
v 0.387448 -0.261777 0.241321
vt 0.726571 0.109372
vt 0.726571 0.179682
vt 0.820318 0.124996
vt 0.734383 0.070310
vt 0.796881 0.210931
vt 0.710946 0.210931
vt 0.820318 0.304678
vt 0.703134 0.289054
vt 0.742195 0.312491
vn 0.2136 0.8331 0.5103
vn -0.3529 0.7634 -0.5409
vn -0.7363 -0.2227 0.6389
vn 0.5837 -0.2298 0.7788
vn -0.4890 -0.7773 -0.3959
vn 0.4096 -0.2285 -0.8832
vn -0.1087 -0.9932 0.0411
vn 0.1003 0.7533 0.6500
vn 0.2067 0.8748 0.4382
vn 0.7396 0.5887 -0.3263
vn -0.2026 -0.9281 -0.3123
vn -0.2039 -0.6299 -0.7494
vn -0.5635 -0.7337 -0.3796
vn 0.3523 0.9168 -0.1881
vn 0.6600 0.6423 -0.3896
vn -0.9187 -0.1775 -0.3530
vn -0.9283 -0.1236 0.3506
usemtl redead.png
s 1
f 1/1/1 2/2/2 3/3/3
f 1/1/1 3/3/3 4/4/4
f 3/3/3 2/2/2 6/5/5
f 2/2/2 5/6/6 6/5/5
f 6/5/5 5/6/6 3/7/3
f 5/6/6 7/8/7 3/7/3
f 4/9/4 3/7/3 7/8/7
f 1/1/8 4/9/9 7/8/10
f 7/8/11 4/9/12 5/6/13
f 2/2/14 7/8/10 5/6/15
f 2/2/16 5/6/13 4/9/12
f 2/2/14 1/1/8 7/8/10
f 2/2/16 4/9/12 1/1/17
