# Blender v2.91.0 OBJ File: 'forearm.blend'
# www.blender.org
mtllib Rforearm.mtl
o redead.png.002
v 0.308463 -0.139052 0.424949
v -0.792803 0.670837 0.551136
v -0.086616 0.315788 0.176017
v -0.881592 -0.253192 0.909621
v -0.788673 -0.809562 0.081377
v -0.054267 -0.339802 -0.076356
v -0.475500 0.416738 -0.734821
v -3.411749 0.255567 0.949198
v -3.582445 0.276788 0.272952
v -0.070097 0.128808 -0.422796
v -3.796503 -0.248602 0.632584
vt 0.304678 0.093747
vt 0.320303 0.171870
vt 0.374989 0.171870
vt 0.382801 0.085935
vt 0.374989 0.007812
vt 0.312491 0.007812
vt 0.359364 0.257805
vt 0.531264 0.132809
vt 0.531264 0.218743
vt 0.320303 0.257805
vt 0.531264 0.054686
vt 0.374989 0.335927
vt 0.531264 0.289054
vt 0.312491 0.335927
vn 0.9964 -0.0246 0.0806
vn 0.3063 0.9469 0.0984
vn 0.7559 0.5089 0.4118
vn 0.7601 -0.2329 0.6067
vn 0.5999 -0.7963 -0.0778
vn 0.2579 -0.7754 -0.5764
vn 0.1445 0.7386 -0.6584
vn 0.1181 0.8051 0.5813
vn -0.9660 -0.2510 -0.0621
vn 0.2129 -0.0449 -0.9760
vn -0.2401 -0.7336 0.6358
vn 0.9502 -0.0523 0.3073
vn 0.8974 -0.2100 -0.3879
vn 0.9956 0.0921 0.0151
vn 0.8390 0.4595 -0.2916
vn -0.8480 -0.4008 0.3467
vn -0.6919 -0.0395 0.7209
vn -0.9528 0.0114 0.3035
vn -0.7512 0.3218 0.5763
usemtl redead.png
s 1
f 1/1/1 3/2/2 2/3/3
f 1/1/1 2/3/3 4/4/4
f 1/1/1 4/4/4 5/5/5
f 1/1/1 5/5/5 6/6/6
f 2/3/3 3/2/2 7/7/7
f 2/3/3 8/8/8 4/4/4
f 2/3/3 7/7/7 9/9/9
f 2/3/3 9/9/9 8/8/8
f 3/2/2 10/10/10 7/7/7
f 5/5/5 4/4/4 11/11/11
f 4/4/4 8/8/8 11/11/11
f 9/9/9 7/7/7 5/12/5
f 9/9/9 5/12/5 11/13/11
f 7/7/7 6/14/6 5/12/5
f 7/7/7 10/10/10 6/14/6
f 1/1/12 6/14/13 10/10/14
f 1/1/12 10/10/14 3/2/15
f 3/2/16 10/10/17 6/14/18
f 3/2/16 6/14/18 1/1/19
f 8/8/8 9/9/9 11/13/11
