# Blender v2.91.0 OBJ File: 'tendon.blend'
# www.blender.org
mtllib tendon.mtl
o Sphere003_001.001
v -4.184201 11.644163 8.332905
v -0.490318 11.644163 8.328721
v -4.185110 11.449790 7.530447
v -0.489409 11.838535 9.131180
v 3.202656 11.449790 7.522079
v 3.203565 11.644163 8.324537
v 5.346021 10.311171 5.849734
v 6.262677 10.430611 6.674354
v 7.174739 10.549183 3.370655
v 8.262211 3.686749 3.370148
v -8.768880 10.694648 -2.853373
v -8.545513 10.270188 0.542253
v -7.909213 10.590261 -3.174116
v -9.405180 10.374575 0.862997
v -8.807161 10.549449 3.389482
v -9.730632 10.549449 3.390528
v -6.958249 10.866672 5.126209
v -7.880812 11.061045 5.929714
v -4.183280 4.779965 9.146021
v -0.488488 4.974338 9.944294
v 3.204486 4.779965 9.137652
v 6.631955 3.489516 5.849737
v 8.444061 3.831723 3.370654
v -9.013125 3.860680 -3.942712
v -9.649425 3.540607 -0.226342
v -8.807161 3.686749 3.389482
v -6.956420 4.196846 6.741783
v 8.090475 10.668449 3.369610
v -8.878184 3.690523 -3.409291
v -0.487579 5.168710 10.746753
v -4.182371 4.974338 9.948479
v -7.878982 4.391219 7.545288
v -9.730632 3.686749 3.390528
v -10.509091 3.644993 0.094402
v -9.872792 3.965067 -3.621966
v 9.351493 4.003087 3.369608
v 7.540306 3.661054 6.674355
v 3.205395 4.974338 9.940111
vt 0.000000 0.000000
vt 0.000000 0.000000
vt 0.000000 0.000000
vt 0.000000 0.000000
vt 0.000000 0.000000
vt 0.000000 0.000000
vt 0.000000 0.000000
vt 0.000000 0.000000
vt 0.000000 0.000000
vt 0.000000 0.000000
vt 0.000000 0.000000
vt 0.000000 0.000000
vt 0.000000 0.000000
vt 0.000000 0.000000
vt 0.000000 0.000000
vt 0.000000 0.000000
vt 0.000000 0.000000
vt 0.000000 0.000000
vt 0.000000 0.000000
vt 0.000000 0.000000
vt 0.000000 0.000000
vt 0.000000 0.000000
vt 0.000000 0.000000
vt 0.000000 0.000000
vt 0.000000 0.000000
vt 0.000000 0.000000
vt 0.000000 0.000000
vt 0.000000 0.000000
vt 0.000000 0.000000
vt 0.000000 0.000000
vt 0.000000 0.000000
vt 0.000000 0.000000
vt 0.000000 0.000000
vt 0.000000 0.000000
vt 0.000000 0.000000
vt 0.000000 0.000000
vt 0.000000 0.000000
vt 0.000000 0.000000
vn -0.3203 0.8052 0.4990
vn -0.0135 0.5932 -0.8050
vn 0.3018 0.6193 -0.7249
vn -0.0191 0.8155 0.5784
vn -0.2976 0.6186 -0.7272
vn 0.0105 0.5932 -0.8050
vn 0.4943 0.6828 0.5380
vn -0.2376 0.7127 -0.6600
vn -0.0223 0.6639 -0.7475
vn 0.4902 0.7284 0.4787
vn -0.4186 0.5653 -0.7107
vn -0.6114 0.6565 -0.4418
vn -0.5073 0.7495 -0.4252
vn 0.7171 0.6961 -0.0341
vn 0.6187 0.5323 -0.5778
vn -0.7093 0.6919 -0.1348
vn 0.7231 0.6783 -0.1305
vn 0.6550 0.7507 0.0864
vn -0.6430 0.7343 0.2178
vn 0.4211 0.6215 -0.6606
vn 0.5616 0.6721 -0.4826
vn -0.5752 0.7544 0.3164
vn 0.2823 0.6169 -0.7346
vn 0.5187 0.6048 -0.6043
vn -0.3084 0.8065 0.5044
vn 0.0127 0.8155 0.5786
vn -0.0009 0.5932 -0.8051
vn -0.0224 0.8155 0.5784
vn 0.3113 0.8063 0.5030
vn -0.2968 0.6185 -0.7276
vn 0.3956 0.8043 0.4435
vn 0.6766 0.6814 0.2792
vn -0.3888 0.6181 -0.6832
vn 0.4682 0.7255 0.5045
vn 0.6381 0.6446 -0.4211
vn -0.4404 0.5625 -0.6997
vn -0.4938 0.7492 -0.4414
vn -0.6434 0.7277 0.2375
vn 0.7143 0.6982 -0.0481
vn -0.6985 0.6126 -0.3698
vn -0.7247 0.6878 0.0416
vn 0.6421 0.7342 -0.2204
vn -0.6159 0.7588 0.2119
vn -0.5227 0.7666 0.3729
vn 0.4873 0.5985 -0.6359
vn -0.5524 0.7605 0.3414
vn -0.2963 0.8078 0.5096
vn 0.2972 0.6187 -0.7272
vn 0.0279 -0.0304 -0.9991
vn 0.3654 0.6045 -0.7079
vn -0.0171 0.5932 -0.8049
vn 0.4672 -0.0162 -0.8840
vn 0.5592 0.6018 -0.5702
vn 0.2807 0.6167 -0.7354
vn 0.6133 -0.1195 -0.7807
vn 0.6119 0.6273 -0.4817
vn 0.4347 0.5874 -0.6826
vn 0.9955 0.0676 -0.0659
vn 0.5458 0.7863 0.2897
vn 0.6666 0.7382 -0.1033
vn 0.9929 0.0407 -0.1117
vn 0.6333 0.6351 -0.4423
vn 0.7175 0.6958 -0.0319
vn 0.9270 0.3529 -0.1272
vn -0.4721 0.7706 -0.4282
vn 0.6041 0.5361 -0.5896
vn -0.8631 0.3006 -0.4057
vn -0.6249 0.7689 0.1355
vn -0.4904 0.7491 -0.4454
vn -0.8727 0.0430 -0.4864
vn -0.5813 0.8031 -0.1304
vn -0.5566 0.7529 -0.3511
vn -0.8598 -0.0271 0.5100
vn -0.5995 0.6810 0.4206
vn -0.6748 0.6715 0.3061
vn -0.7158 0.0778 0.6939
vn -0.3537 0.8108 0.4663
vn -0.5509 0.7608 0.3430
vn -0.3805 0.0829 0.9210
vn -0.0603 0.8283 0.5571
vn -0.3034 0.8071 0.5066
vn -0.0051 0.0845 0.9964
vn 0.2262 0.8237 0.5200
vn -0.0183 0.8155 0.5784
vn 0.3496 0.0855 0.9330
vn 0.5356 0.7639 0.3598
vn 0.3357 0.8137 0.4746
vn 0.7360 0.0476 0.6753
vn 0.5416 0.7784 -0.3174
vn 0.4285 0.7543 0.4973
vn 0.8713 0.4908 0.0045
vn -0.4270 0.5784 -0.6950
vn 0.6086 0.6620 -0.4375
vn -0.7161 0.1922 -0.6711
vn -0.5748 0.6192 -0.5351
vn -0.4366 0.5359 -0.7227
vn -0.7267 -0.0502 -0.6851
vn -0.0970 0.5590 -0.8234
vn -0.4241 0.6373 -0.6434
vn -0.3923 -0.0463 -0.9187
vn 0.0827 0.5727 -0.8156
vn -0.2998 0.6188 -0.7261
vn 0.0088 -0.0504 -0.9987
vn 0.4543 -0.1133 -0.8836
vn 0.4666 0.5699 -0.6764
vn 0.4449 -0.0618 -0.8934
vn 0.7226 -0.1408 -0.6768
vn 0.6291 0.5920 -0.5037
vn 0.8119 0.0183 -0.5835
vn 0.9444 0.0225 -0.3281
vn 0.6848 0.7198 -0.1134
vn 0.9135 -0.1382 -0.3826
vn 0.9881 -0.0481 0.1460
vn 0.7437 0.5864 0.3209
vn 0.9873 -0.0285 -0.1564
vn 0.9252 0.3706 -0.0812
vn 0.6334 0.6301 -0.4491
vn 0.2725 0.7458 -0.6079
vn -0.5246 0.3300 -0.7848
vn -0.1516 0.7190 -0.6783
vn -0.8688 0.2515 -0.4264
vn -0.9851 0.0536 0.1636
vn -0.6157 0.7825 0.0926
vn -0.9787 -0.1677 -0.1186
vn -0.9382 -0.0110 0.3460
vn -0.7251 0.6831 0.0870
vn -0.9490 0.0499 0.3114
vn -0.7913 0.0805 0.6061
vn -0.6450 0.7420 0.1828
vn -0.7108 0.0656 0.7003
vn -0.3725 0.1100 0.9215
vn -0.4062 0.8055 0.4315
vn -0.3764 0.0781 0.9231
vn 0.0260 0.1171 0.9928
vn -0.1099 0.8312 0.5450
vn 0.0008 0.0760 0.9971
vn 0.3939 0.1146 0.9120
vn 0.1717 0.8297 0.5312
vn 0.4477 0.0087 0.8942
vn 0.7763 0.0566 0.6278
vn 0.4211 0.7618 0.4922
vn 0.7422 0.0318 0.6694
vn 0.8548 0.5167 0.0479
vn 0.5388 0.7820 -0.3133
vn -0.2161 0.6735 0.7069
vn 0.5746 0.5219 0.6305
vn 0.2182 0.6838 0.6962
vn -0.6572 0.1515 -0.7384
vn -0.7459 -0.1139 -0.6562
vn -0.5285 0.6078 -0.5927
vn -0.7892 -0.1003 -0.6058
vn -0.4646 -0.1364 -0.8749
vn -0.2197 0.5534 -0.8034
vn -0.4138 -0.0717 -0.9075
vn 0.0188 -0.1092 -0.9938
vn 0.1819 0.5302 -0.8282
vn -0.5705 0.6376 0.5177
vn -0.0866 0.4950 -0.8646
vn -0.6943 0.7037 0.1507
vn -0.3884 0.6048 -0.6952
vn 0.8928 0.4504 0.0052
vn -0.0278 0.7066 -0.7071
vn 0.1856 -0.9826 0.0000
vn 0.4471 -0.7712 0.4532
vn 0.1683 -0.9535 -0.2502
vn 0.1617 -0.9547 -0.2498
vn 0.1206 -0.9916 0.0473
vn 0.1068 -0.9621 0.2508
vn -0.2436 -0.8782 0.4117
vn -0.1162 -0.9653 0.2339
vn 0.0960 -0.9048 0.4150
vn -0.0821 -0.9539 0.2888
vn -0.0425 -0.9157 0.3995
vn 0.1946 -0.9186 0.3440
vn 0.1182 -0.9930 -0.0090
vn -0.1711 -0.9821 0.0791
vn 0.2260 -0.9529 0.2023
vn -0.0392 -0.9856 0.1644
vn 0.2384 -0.9060 0.3498
vn 0.0003 -0.9719 0.2354
vn 0.1252 -0.9099 0.3956
vn -0.1882 -0.8909 0.4133
vn -0.2294 -0.9691 0.0906
vn 0.1524 -0.9855 0.0750
vn -0.1751 -0.8980 0.4036
vn 0.1280 -0.9104 0.3935
vn 0.1529 -0.9853 0.0755
vn -0.2302 -0.9689 0.0905
vn -0.0884 -0.9149 0.3938
vn -0.2214 -0.9609 0.1662
vn -0.1663 -0.9637 0.2090
vn -0.0474 -0.9909 0.1257
vn -0.3620 -0.9256 0.1111
vn -0.1706 -0.9845 0.0400
vn -0.1609 -0.9806 -0.1120
vn 0.4151 -0.9094 0.0265
vn 0.0053 -0.9824 0.1868
vn -0.0372 -0.9226 0.3839
vn -0.0904 -0.9874 0.1298
vn -0.1705 -0.9715 0.1648
vn -0.1538 -0.9805 0.1226
vn -0.4468 -0.8875 -0.1127
vn -0.4165 -0.8823 0.2194
vn 0.0133 -0.9832 0.1822
vn -0.1012 -0.8953 -0.4339
usemtl lowerhead_wire_006135058
s off
f 1/1/1 2/2/2 3/3/3
f 4/4/4 5/5/5 2/2/6
f 6/6/7 7/7/8 5/5/9
f 8/8/10 9/9/11 7/7/12
f 11/10/13 12/11/14 13/12/15
f 14/13/16 15/14/17 12/11/18
f 16/15/19 17/16/20 15/14/21
f 18/17/22 3/3/23 17/16/24
f 1/1/25 4/4/26 2/2/27
f 4/4/28 6/6/29 5/5/30
f 6/6/31 8/8/32 7/7/33
f 8/8/34 28/18/35 9/9/36
f 11/10/37 14/13/38 12/11/39
f 14/13/40 16/15/41 15/14/42
f 16/15/43 18/17/44 17/16/45
f 18/17/46 1/1/47 3/3/48
f 20/19/49 3/3/50 2/2/51
f 19/20/52 17/16/53 3/3/54
f 27/21/55 15/14/56 17/16/57
f 26/22/58 12/11/59 15/14/60
f 25/23/61 13/12/62 12/11/63
f 24/24/64 11/10/65 13/12/66
f 35/25/67 14/13/68 11/10/69
f 34/26/70 16/15/71 14/13/72
f 33/27/73 18/17/74 16/15/75
f 32/28/76 1/1/77 18/17/78
f 31/29/79 4/4/80 1/1/81
f 30/30/82 6/6/83 4/4/84
f 38/31/85 8/8/86 6/6/87
f 37/32/88 28/18/89 8/8/90
f 36/33/91 9/9/92 28/18/93
f 23/34/94 7/7/95 9/9/96
f 22/35/97 5/5/98 7/7/99
f 21/36/100 2/2/101 5/5/102
f 20/19/103 19/20/104 3/3/105
f 19/20/106 27/21/107 17/16/108
f 27/21/109 26/22/110 15/14/111
f 26/22/112 25/23/113 12/11/114
f 25/23/115 24/24/116 13/12/117
f 29/37/118 35/25/119 11/10/120
f 35/25/121 34/26/122 14/13/123
f 34/26/124 33/27/125 16/15/126
f 33/27/127 32/28/128 18/17/129
f 32/28/130 31/29/131 1/1/132
f 31/29/133 30/30/134 4/4/135
f 30/30/136 38/31/137 6/6/138
f 38/31/139 37/32/140 8/8/141
f 37/32/142 36/33/143 28/18/144
f 10/38/145 23/34/146 9/9/147
f 23/34/148 22/35/149 7/7/150
f 22/35/151 21/36/152 5/5/153
f 21/36/154 20/19/155 2/2/156
f 11/10/157 24/24/158 29/37/159
f 9/9/160 36/33/161 10/38/162
f 23/34/163 36/33/164 37/32/165
f 23/34/163 37/32/166 22/35/167
f 37/32/168 38/31/169 21/36/170
f 37/32/171 21/36/172 22/35/173
f 32/28/174 19/20/175 31/29/176
f 32/28/177 27/21/178 19/20/179
f 20/19/180 38/31/181 30/30/182
f 20/19/180 30/30/183 31/29/184
f 20/19/180 21/36/185 38/31/186
f 20/19/180 31/29/187 19/20/188
f 32/28/189 26/22/190 27/21/191
f 33/27/192 25/23/193 26/22/194
f 35/25/195 24/24/196 25/23/197
f 32/28/198 33/27/199 26/22/200
f 33/27/201 34/26/202 25/23/203
f 35/25/195 25/23/204 34/26/205
