# Blender v2.91.0 OBJ File: 'torso.blend'
# www.blender.org
mtllib torso.mtl
o redead.png
v 0.001280 -5.695505 0.075904
v -1.102853 -4.472646 -0.385251
v -1.222730 -5.304906 -0.371485
v 0.001280 -4.471496 0.056976
v -0.736338 -6.423379 0.024856
v 1.105413 -4.472646 -0.385251
v 0.001280 -6.674603 0.231917
v 1.225290 -5.304906 -0.371485
v 0.738898 -6.423379 0.024856
v -0.921603 -4.289676 -1.446939
v 0.001280 -4.103266 0.504939
v -1.880622 -3.622035 -0.867627
v -1.432659 -3.920865 0.420050
v 0.001280 -7.615842 -0.167292
v -1.569744 -5.655935 -0.350262
v -0.582047 -7.510878 -0.230385
v -1.091382 -7.032515 -0.117391
v 0.924163 -4.289676 -1.446939
v 1.572304 -5.655935 -0.350262
v 0.864511 -5.181585 -1.474471
v -1.137268 -3.124165 -1.668912
v -0.861951 -5.181585 -1.474471
v 0.001280 -4.044755 -1.767568
v 0.001280 -5.358245 -1.755523
v 0.001280 -3.572706 0.981008
v -1.621366 -2.837956 0.791728
v -1.525578 -6.901165 -0.567074
v 0.001280 -7.527511 -1.171623
v -0.439226 -7.594046 -1.347710
v 1.883182 -3.622035 -0.867627
v 1.435219 -3.920865 0.420050
v 1.093942 -7.032515 -0.117391
v 0.584607 -7.510878 -0.230385
v 1.126635 -6.006965 -1.854178
v 0.001280 -2.805265 -1.873678
v -1.448146 -1.855426 -1.521503
v -1.124075 -6.006965 -1.854178
v 0.001280 -1.914496 1.115798
v -2.355542 -2.116395 -0.399589
v -1.376449 -1.541676 0.607037
v -2.131274 -1.831335 0.370724
v 1.623926 -2.837956 0.791728
v 1.140401 -3.124165 -1.668912
v 2.358102 -2.116395 -0.399589
v 1.450706 -1.855426 -1.521503
v 1.528138 -6.901165 -0.567074
v 0.441786 -7.594046 -1.347710
v -0.968063 -7.409927 -1.581156
v 0.001280 -6.287440 -2.052635
v -0.289523 -7.018176 -1.928742
v 0.001280 -1.360424 0.570901
v -0.882600 -1.061015 0.271495
v -1.457323 -0.840764 0.372444
v -1.978130 -1.490055 -0.898026
v 1.981263 -1.490055 -0.898026
v 2.133834 -1.831905 0.370724
v 0.001280 -1.813545 -1.781333
v 0.970623 -7.409927 -1.581156
v 0.292083 -7.018176 -1.928742
v 1.379009 -1.541676 0.607037
v -0.969784 -0.429516 0.361546
v -0.911852 -0.200655 -1.002417
v -1.522137 -0.610765 -0.742014
v 0.914412 -0.200655 -1.002417
v 1.524697 -0.610765 -0.742014
v 0.001280 -0.458195 -1.316163
v 0.885734 -1.061015 0.271495
v 1.459883 -0.840764 0.372444
v -1.412011 -0.241375 -0.171306
v 1.414571 -0.241375 -0.171306
v 0.001280 0.505985 -0.672038
v 0.972344 -0.429516 0.361546
v -0.633668 0.213465 -0.181057
v 0.636228 0.213465 -0.181057
v -2.076211 -1.123535 0.659232
v -2.010824 -0.249405 0.101143
v 2.078771 -1.123535 0.659232
v 2.013384 -0.249405 0.101143
vt 0.570326 0.499985
vt 0.718759 0.578138
vt 0.726571 0.499985
vt 0.570326 0.578138
vt 0.648448 0.429675
vt 0.718759 0.578138
vt 0.570326 0.437487
vt 0.726571 0.499985
vt 0.648448 0.429675
vt 0.875004 0.578138
vt 0.570326 0.632824
vt 0.789069 0.648448
vt 0.695322 0.632824
vt 0.570326 0.367177
vt 0.750008 0.468736
vt 0.609387 0.367177
vt 0.679697 0.374989
vt 0.875004 0.578138
vt 0.750008 0.468736
vt 0.875004 0.499985
vt 0.890629 0.664073
vt 0.875004 0.499985
vt 0.992188 0.578138
vt 0.992188 0.499985
vt 0.570326 0.679697
vt 0.687510 0.750008
vt 0.750008 0.374989
vt 0.570326 0.343740
vt 0.609387 0.343740
vt 0.789069 0.648448
vt 0.695322 0.632824
vt 0.679697 0.374989
vt 0.609387 0.367177
vt 0.882816 0.460924
vt 0.992188 0.664073
vt 0.882816 0.765632
vt 0.882816 0.460924
vt 0.570326 0.828130
vt 0.789069 0.765632
vt 0.718759 0.843755
vt 0.742195 0.804694
vt 0.687510 0.750008
vt 0.890629 0.664073
vt 0.789069 0.765632
vt 0.882816 0.765632
vt 0.750008 0.374989
vt 0.609387 0.343740
vt 0.867192 0.374989
vt 0.992188 0.445299
vt 0.960939 0.406238
vt 0.570326 0.882816
vt 0.656261 0.898441
vt 0.718759 0.921878
vt 0.851567 0.804694
vt 0.851567 0.804694
vt 0.742195 0.804694
vt 0.992188 0.742195
vt 0.867192 0.374989
vt 0.953127 0.374989
vt 0.960939 0.406238
vt 0.992188 0.374989
vt 0.718759 0.843755
vt 0.656261 0.945315
vt 0.929690 0.906253
vt 0.875004 0.882816
vt 0.929690 0.906253
vt 0.875004 0.882816
vt 0.992188 0.875004
vt 0.953127 0.374989
vt 0.656261 0.898441
vt 0.718759 0.921878
vt 0.718759 0.992188
vt 0.867192 0.945315
vt 0.867192 0.945315
vt 0.992188 0.992188
vt 0.656261 0.945315
vt 0.656261 0.992188
vt 0.937502 0.992188
vt 0.937502 0.992188
vt 0.718759 0.992188
vt 0.656261 0.992188
vt 0.078123 0.132809
vt 0.093747 0.039061
vt 0.007812 0.070310
vt 0.007812 0.140621
vt 0.054686 0.203119
vt 0.007812 0.226556
vt 0.031249 0.265617
vt 0.078123 0.132809
vt 0.007812 0.070310
vt 0.093747 0.039061
vt 0.007812 0.140621
vt 0.054686 0.203119
vt 0.007812 0.226556
vt 0.031249 0.265617
vt 0.000000 0.000000
vt 0.000000 0.000000
vt 0.000000 0.000000
vt 0.000000 0.000000
vt 0.000000 0.000000
vt 0.000000 0.000000
vn 0.0000 0.1166 0.9932
vn -0.4019 -0.9026 0.1542
vn -0.1932 0.2471 0.9495
vn 0.3669 -0.3710 0.8531
vn -0.2270 0.0540 0.9724
vn 0.3082 -0.5995 0.7387
vn 0.0000 -0.1146 0.9934
vn 0.3429 0.8797 0.3295
vn 0.3286 -0.0392 0.9437
vn -0.7742 -0.2965 -0.5593
vn -0.0288 -0.7600 0.6493
vn -0.5195 -0.6770 -0.5213
vn -0.5116 -0.6305 0.5837
vn 0.0000 -0.2496 0.9683
vn -0.4708 -0.1645 0.8668
vn -0.7243 -0.6330 0.2732
vn -0.1920 -0.1749 0.9657
vn 0.5670 -0.0034 -0.8237
vn 0.2978 0.8759 0.3797
vn 0.5973 0.0036 -0.8020
vn -0.4044 -0.1234 -0.9062
vn -0.8073 0.3264 -0.4916
vn -0.0000 -0.1111 -0.9938
vn 0.0000 0.2012 -0.9795
vn -0.0000 -0.3860 0.9225
vn -0.6115 -0.1917 0.7677
vn -0.7853 -0.5020 0.3623
vn -0.0000 -0.9404 0.3400
vn -0.2647 -0.7298 -0.6303
vn 0.6048 -0.7902 -0.0990
vn 0.5535 -0.5418 0.6325
vn 0.4924 -0.5011 0.7116
vn 0.4661 -0.2417 0.8511
vn 0.6370 0.2151 -0.7402
vn -0.0000 0.0248 -0.9997
vn -0.4770 0.1422 -0.8673
vn -0.6712 0.1110 -0.7329
vn 0.0000 0.2935 0.9560
vn -0.9426 0.3304 0.0486
vn -0.0602 0.3127 0.9479
vn -0.5936 -0.3478 0.7257
vn 0.5922 -0.2026 0.7799
vn 0.4045 -0.1234 -0.9062
vn 0.9426 0.3302 0.0487
vn 0.4770 0.1421 -0.8673
vn 0.6229 -0.5421 0.5640
vn 0.0410 -0.9727 0.2284
vn -0.7052 -0.6332 -0.3188
vn -0.4226 0.1194 -0.8984
vn -0.1987 -0.6938 -0.6922
vn -0.2608 0.1906 0.9464
vn -0.0301 0.4364 0.8993
vn 0.1508 0.1321 0.9797
vn -0.6712 0.0916 -0.7356
vn 0.6712 0.0914 -0.7356
vn 0.5937 -0.3479 0.7256
vn 0.0000 0.2095 -0.9778
vn 0.6816 -0.0704 -0.7283
vn -0.4004 0.0695 -0.9137
vn 0.0601 0.3127 0.9479
vn 0.1869 0.6465 0.7397
vn -0.5374 0.3537 -0.7656
vn -0.6388 0.6475 -0.4155
vn 0.6474 0.3992 -0.6492
vn 0.4503 0.5463 -0.7062
vn 0.0000 0.4175 -0.9087
vn 0.3251 0.1245 0.9375
vn -0.3894 0.3100 0.8673
vn -0.4918 0.5899 0.6405
vn 0.5429 0.7050 -0.4564
vn 0.0000 0.9859 -0.1674
vn -0.2030 0.6280 0.7513
vn -0.5966 0.6263 -0.5018
vn 0.7214 0.5888 0.3646
vn -0.0520 0.2290 0.9720
vn -0.5519 0.8139 0.1817
vn 0.0519 0.2290 0.9720
vn 0.5519 0.8139 0.1817
vn 0.3758 0.1031 -0.9209
vn 0.4666 -0.4605 -0.7552
vn -0.1710 0.1388 -0.9754
vn -0.0023 0.9682 0.2501
vn 0.1222 0.2719 0.9545
vn -0.4336 0.2172 0.8745
vn -0.4666 -0.4606 -0.7551
vn -0.3758 0.1031 -0.9209
vn 0.4191 0.9056 0.0655
vn 0.1983 0.5783 0.7914
vn 0.9208 0.3457 -0.1805
vn 0.9912 0.1017 0.0851
vn 0.8591 -0.5098 0.0448
vn 0.9543 0.1232 0.2723
vn 0.5045 0.8456 -0.1744
vn -0.4871 0.3968 0.7780
vn -0.9794 -0.1735 0.1032
vn -0.9357 -0.0927 0.3404
vn 0.7457 0.3504 -0.5667
vn -0.9207 0.3459 -0.1806
vn -0.9622 -0.0253 0.2711
vn -0.9912 0.1017 0.0847
vn -0.8967 -0.4073 0.1734
vn -0.7212 -0.6612 0.2067
vn -0.9181 -0.3821 -0.1049
vn 0.9798 0.1317 0.1508
vn 0.4871 0.3969 0.7779
vn 0.9356 -0.0925 0.3406
vn -0.9543 0.1231 0.2725
vn -0.5045 0.8456 -0.1746
vn -0.4898 0.4138 -0.7674
vn 0.0380 -0.9142 0.4035
vn -0.1357 -0.9904 -0.0254
vn -0.4571 -0.8784 -0.1393
vn 0.8965 -0.4073 0.1741
vn 0.9181 -0.3823 -0.1045
vn 0.4235 -0.8224 -0.3798
vn 0.6075 0.7756 -0.1712
vn 0.8758 0.3694 0.3107
vn 0.7435 0.5445 -0.3882
vn -0.6953 -0.6939 -0.1872
vn -0.1212 -0.9893 0.0818
vn -0.6421 -0.7193 0.2650
vn -0.4968 -0.8648 0.0731
vn 0.3648 0.9296 0.0523
vn 0.5795 0.5611 -0.5910
vn -0.0316 -0.0994 0.9945
vn -0.0626 0.9418 0.3304
vn 0.0406 0.9912 0.1262
vn 0.2241 0.9105 0.3474
vn -0.3022 0.6451 -0.7018
usemtl redead.png
s 1
f 1/1/1 2/2/2 3/3/3
f 1/1/1 4/4/4 2/2/2
f 1/1/1 3/3/3 5/5/5
f 1/1/1 6/6/6 4/4/4
f 1/1/1 5/5/5 7/7/7
f 1/1/1 8/8/8 6/6/6
f 1/1/1 7/7/7 9/9/9
f 1/1/1 9/9/9 8/8/8
f 2/2/2 10/10/10 3/3/3
f 2/2/2 4/4/4 11/11/11
f 2/2/2 12/12/12 10/10/10
f 2/2/2 11/11/11 13/13/13
f 2/2/2 13/13/13 12/12/12
f 4/4/4 6/6/6 11/11/11
f 5/5/5 14/14/14 7/7/7
f 5/5/5 3/3/3 15/15/15
f 5/5/5 16/16/16 14/14/14
f 5/5/5 15/15/15 17/17/17
f 5/5/5 17/17/17 16/16/16
f 7/7/7 14/14/14 9/9/9
f 8/8/8 18/18/18 6/6/6
f 8/8/8 9/9/9 19/19/19
f 8/8/8 20/20/20 18/18/18
f 8/8/8 19/19/19 20/20/20
f 10/10/10 12/12/12 21/21/21
f 10/10/10 22/22/22 3/3/3
f 10/10/10 21/21/21 23/23/23
f 10/10/10 24/24/24 22/22/22
f 10/10/10 23/23/23 24/24/24
f 3/3/3 22/22/22 15/15/15
f 13/13/13 11/11/11 25/25/25
f 13/13/13 26/26/26 12/12/12
f 13/13/13 25/25/25 26/26/26
f 17/17/17 15/15/15 27/27/27
f 16/16/16 28/28/28 14/14/14
f 16/16/16 29/29/29 28/28/28
f 6/6/6 18/18/18 30/30/30
f 6/6/6 31/31/31 11/11/11
f 6/6/6 30/30/30 31/31/31
f 11/11/11 31/31/31 25/25/25
f 9/9/9 32/32/32 19/19/19
f 9/9/9 14/14/14 33/33/33
f 9/9/9 33/33/33 32/32/32
f 14/14/14 28/28/28 33/33/33
f 20/20/20 34/34/34 24/24/24
f 20/20/20 24/24/24 18/18/18
f 20/20/20 19/19/19 34/34/34
f 21/21/21 35/35/35 23/23/23
f 21/21/21 12/12/12 36/36/36
f 21/21/21 36/36/36 35/35/35
f 22/22/22 37/37/37 15/15/15
f 22/22/22 24/24/24 37/37/37
f 15/15/15 37/37/37 27/27/27
f 26/26/26 25/25/25 38/38/38
f 26/26/26 39/39/39 12/12/12
f 26/26/26 38/38/38 40/40/40
f 26/26/26 41/41/41 39/39/39
f 26/26/26 40/40/40 41/41/41
f 12/12/12 39/39/39 36/36/36
f 30/30/30 42/42/42 31/31/31
f 30/30/30 18/18/18 43/43/43
f 30/30/30 44/44/44 42/42/42
f 30/30/30 43/43/43 45/45/45
f 30/30/30 45/45/45 44/44/44
f 43/43/43 18/18/18 23/23/23
f 43/43/43 23/23/23 35/35/35
f 43/43/43 35/35/35 45/45/45
f 25/25/25 42/42/42 38/38/38
f 25/25/25 31/31/31 42/42/42
f 23/23/23 18/18/18 24/24/24
f 32/32/32 46/46/46 19/19/19
f 19/19/19 46/46/46 34/34/34
f 28/28/28 47/47/47 33/33/33
f 37/37/37 48/48/48 27/27/27
f 37/37/37 24/24/24 49/49/49
f 37/37/37 50/50/50 48/48/48
f 37/37/37 49/49/49 50/50/50
f 24/24/24 34/34/34 49/49/49
f 40/40/40 38/38/38 51/51/51
f 40/40/40 51/51/51 52/52/52
f 40/40/40 52/52/52 53/53/53
f 39/39/39 54/54/54 36/36/36
f 44/44/44 45/45/45 55/55/55
f 44/44/44 56/56/56 42/42/42
f 35/35/35 36/36/36 57/57/57
f 35/35/35 57/57/57 45/45/45
f 46/46/46 58/58/58 34/34/34
f 48/48/48 50/50/50 29/59/29
f 49/49/49 34/34/34 59/60/59
f 49/49/49 28/61/28 50/50/50
f 49/49/49 59/60/59 28/61/28
f 50/50/50 28/61/28 29/59/29
f 34/34/34 58/58/58 59/60/59
f 38/38/38 60/62/60 51/51/51
f 38/38/38 42/42/42 60/62/60
f 42/42/42 56/56/56 60/62/60
f 52/52/52 61/63/61 53/53/53
f 52/52/52 51/51/51 61/63/61
f 54/54/54 62/64/62 36/36/36
f 54/54/54 63/65/63 62/64/62
f 55/55/55 45/45/45 64/66/64
f 55/55/55 64/66/64 65/67/65
f 57/57/57 36/36/36 66/68/66
f 57/57/57 66/68/66 45/45/45
f 45/45/45 66/68/66 64/66/64
f 36/36/36 62/64/62 66/68/66
f 28/61/28 59/60/59 47/69/47
f 47/69/47 59/60/59 58/58/58
f 60/62/60 67/70/67 51/51/51
f 60/62/60 68/71/68 67/70/67
f 53/53/53 61/63/61 69/72/69
f 63/65/63 69/73/69 62/64/62
f 65/67/65 64/66/64 70/74/70
f 66/68/66 62/64/62 71/75/71
f 66/68/66 71/75/71 64/66/64
f 51/51/51 67/70/67 72/76/72
f 67/70/67 68/71/68 72/76/72
f 69/72/69 61/63/61 73/77/73
f 69/73/69 73/78/73 62/64/62
f 62/64/62 73/78/73 71/75/71
f 70/74/70 64/66/64 74/79/74
f 74/79/74 64/66/64 71/75/71
f 68/71/68 70/80/70 72/76/72
f 70/80/70 74/81/74 72/76/72
f 75/82/75 41/83/41 40/84/40
f 75/82/75 40/84/40 53/85/53
f 75/82/75 53/85/53 76/86/76
f 53/85/53 69/87/69 76/86/76
f 69/87/69 63/88/63 76/86/76
f 77/89/77 60/90/60 56/91/56
f 77/89/77 68/92/68 60/90/60
f 77/89/77 78/93/78 68/92/68
f 68/92/68 78/93/78 70/94/70
f 70/94/70 78/93/78 65/95/65
f 74/81/79 72/76/80 71/75/81
f 74/81/82 73/77/83 61/63/84
f 61/63/85 73/77/86 71/75/81
f 73/78/83 74/79/82 71/75/87
f 61/63/61 51/51/51 72/76/72
f 74/81/82 61/63/84 72/96/88
f 55/55/89 77/89/90 44/44/91
f 56/56/92 44/44/91 77/89/90
f 55/55/89 78/93/93 77/89/90
f 78/93/94 65/95/95 77/89/96
f 78/93/93 55/55/89 65/67/97
f 54/54/98 39/97/99 75/82/100
f 55/55/101 44/44/102 56/56/103
f 63/88/104 76/86/105 75/82/106
f 55/55/101 77/89/96 65/98/95
f 39/39/99 41/41/107 75/82/100
f 54/54/98 75/82/100 76/86/108
f 54/54/98 76/86/108 63/88/109
f 16/16/110 48/48/111 29/59/112
f 54/54/113 41/83/114 39/39/115
f 54/54/113 75/82/106 41/83/114
f 17/17/116 16/16/117 29/29/118
f 16/16/110 27/27/119 48/48/111
f 33/33/33 47/47/47 58/58/58
f 16/16/120 17/17/121 27/27/122
f 27/27/123 29/59/118 48/48/124
f 16/16/125 32/99/126 27/27/127
f 32/32/126 46/46/128 27/100/127
f 33/33/33 58/58/58 46/46/46
f 33/101/33 46/46/46 32/32/32
f 61/63/85 71/75/81 72/76/80
f 55/55/101 56/91/103 77/89/96
f 54/54/113 63/88/104 75/82/106
f 27/27/123 17/17/116 29/59/118
f 48/48/129 27/100/127 46/46/128
