# Blender v2.91.0 OBJ File: 'upperhead.blend'
# www.blender.org
mtllib upperhead.mtl
o Sphere003
v 0.089207 6.950489 0.051504
v 0.089207 5.960324 -4.606853
v -1.805519 5.960324 -4.204117
v -3.372627 5.960324 -3.065546
v -4.341154 5.960324 -1.388006
v -4.543633 5.960324 0.538437
v -3.945049 5.960324 2.380686
v -2.648907 5.960324 3.820196
v -0.879318 5.960324 4.608068
v 1.057735 5.960324 4.608068
v 2.827324 5.960324 3.820196
v 4.123466 5.960324 2.380682
v 4.722050 5.960324 0.538435
v 4.519569 5.960324 -1.388008
v 3.551044 5.960324 -3.065546
v 1.983932 5.960324 -4.204119
v 0.089207 3.161038 -8.459742
v -3.372627 3.161038 -7.723904
v -6.235880 3.161038 -5.643627
v -8.005470 3.161038 -2.578613
v -8.375414 3.161038 0.941176
v -7.281746 3.161038 4.307129
v -4.913576 3.161038 6.937249
v -1.680378 3.161038 8.376760
v 1.858799 3.161038 8.376759
v 5.091995 3.161038 6.937245
v 7.460163 3.161038 4.307127
v 8.553829 3.161038 0.941170
v 8.183884 3.161038 -2.578617
v 6.414295 3.161038 -5.643631
v 3.551041 3.161038 -7.723907
v 0.089207 -0.963347 -10.840954
v -4.341154 -0.963347 -9.899254
v -8.005470 -0.963347 -7.236971
v -10.270136 -0.963347 -3.314447
v -10.743582 -0.963347 1.190079
v -9.343937 -0.963347 5.497736
v -6.313219 -0.963347 8.863690
v -2.175457 -0.963347 10.705938
v 2.353882 -0.963347 10.705938
v 6.491638 -0.963347 8.863688
v 9.522358 -0.963347 5.497732
v 10.922001 -0.963347 1.190075
v 10.448551 -0.963347 -3.314453
v 8.183880 -0.963347 -7.236979
v 4.519566 -0.963347 -9.899254
v 0.089207 -5.699687 -11.338768
v -4.543633 -5.699687 -10.354027
v -8.375414 -5.699687 -7.570070
v -10.743584 -5.699687 -3.468279
v -11.238665 -5.699687 1.242115
v -9.775053 -5.699687 5.746641
v -6.605824 -5.699687 9.266428
v -2.278957 -5.699687 11.192870
v 2.457382 -5.699687 11.192869
v 6.784245 -5.699687 9.266425
v 9.953472 -5.699687 5.746637
v 11.417080 -5.699687 1.242109
v 10.921997 -5.699687 -3.468287
v 8.553825 -5.699687 -7.570078
v 4.722046 -5.699687 -10.354027
v 5.678532 4.251243 3.278502
v -4.707045 4.251243 -4.267059
v 6.507847 4.251243 0.726130
v -2.535870 4.251243 -5.844509
v 0.089207 4.251243 -6.402487
v 2.714283 4.251243 -5.844513
v 6.227318 4.251243 -1.942890
v 3.882771 4.251243 5.272894
v -6.048906 4.251243 -1.942888
v 1.431068 4.251243 6.364463
v -6.329430 4.251243 0.726131
v -1.252651 4.251243 6.364463
v -3.704353 4.251243 5.272896
v -5.500111 4.251243 3.278503
v 0.089207 -5.699687 -10.286362
v -4.115580 -5.699687 -9.392605
v 4.293995 -5.699687 -9.392605
v 7.771736 -5.699687 -6.865877
v 9.921101 -5.699687 -3.143074
v 10.370441 -5.699687 1.132103
v 9.042065 -5.699687 5.220434
v 6.165653 -5.699687 8.415012
v 2.238575 -5.699687 10.163463
v -2.060150 -5.699687 10.163464
v -5.987236 -5.699687 8.415015
v -8.863642 -5.699687 5.220440
v -10.192024 -5.699687 1.132109
v -9.742689 -5.699687 -3.143068
v -10.743584 -7.219287 -3.468279
v -7.593325 -7.219287 -6.865875
v -9.742689 -7.219287 -3.143068
v -7.593325 -5.699687 -6.865875
v 0.089207 -0.332067 -10.286362
v -4.115580 -0.332067 -9.392605
v 4.293995 -0.332067 -9.392605
v 7.771736 -0.332067 -6.865877
v 9.921101 -0.332067 -3.143074
v 10.370441 -0.332067 1.132103
v 9.042065 -0.332067 5.220434
v 6.165653 -0.332067 8.415012
v 2.238575 -0.332067 10.163463
v -2.060150 -0.332067 10.163464
v -5.987236 -0.332067 8.415015
v -8.863642 -0.332067 5.220440
v -10.192024 -0.332067 1.132109
v -9.742689 -0.332067 -3.143068
v -7.593325 -0.332067 -6.865875
v 4.885460 4.251243 -4.267061
v -8.375414 -7.219287 -7.570070
vt 0.666667 0.466667
vt 0.133333 0.466667
vt 0.733333 0.466667
vt 0.066667 0.466667
vt 0.000000 0.466667
vt 0.933333 0.466667
vt 0.800000 0.466667
vt 0.600000 0.466667
vt 0.200000 0.466667
vt 0.533333 0.466667
vt 0.266667 0.466667
vt 0.466667 0.466667
vt 0.400000 0.466667
vt 0.333333 0.466667
vt 0.066667 0.466667
vt 0.000000 0.466667
vt 0.066667 0.466667
vt 0.000000 0.466667
vt 0.933333 0.466667
vt 0.933333 0.466667
vt 0.866667 0.466667
vt 0.866667 0.466667
vt 0.800000 0.466667
vt 0.800000 0.466667
vt 0.733333 0.466667
vt 0.733333 0.466667
vt 0.666667 0.466667
vt 0.666667 0.466667
vt 0.600000 0.466667
vt 0.600000 0.466667
vt 0.533333 0.466667
vt 0.533333 0.466667
vt 0.466667 0.466667
vt 0.466667 0.466667
vt 0.400000 0.466667
vt 0.400000 0.466667
vt 0.333333 0.466667
vt 0.333333 0.466667
vt 0.266667 0.466667
vt 0.266667 0.466667
vt 0.200000 0.466667
vt 0.200000 0.466667
vt 0.133333 0.466667
vt 0.200000 0.466667
vt 0.133333 0.466667
vt 0.133333 0.466667
vt 0.000000 0.466667
vt 0.066667 0.466667
vt 0.933333 0.466667
vt 0.866667 0.466667
vt 0.800000 0.466667
vt 0.733333 0.466667
vt 0.666667 0.466667
vt 0.600000 0.466667
vt 0.533333 0.466667
vt 0.466667 0.466667
vt 0.400000 0.466667
vt 0.333333 0.466667
vt 0.266667 0.466667
vt 0.200000 0.466667
vt 0.133333 0.466667
vt 0.866667 0.466667
vt 0.200000 0.466667
vt 0.133333 0.466667
vt 0.000000 1.000000
vt 0.000000 0.866667
vt 0.066667 0.866667
vt 0.066667 1.000000
vt 0.133333 0.866667
vt 0.133333 1.000000
vt 0.200000 0.866667
vt 0.200000 1.000000
vt 0.266667 0.866667
vt 0.266667 1.000000
vt 0.333333 0.866667
vt 0.333333 1.000000
vt 0.400000 0.866667
vt 0.400000 1.000000
vt 0.466667 0.866667
vt 0.466667 1.000000
vt 0.533333 0.866667
vt 0.533333 1.000000
vt 0.600000 0.866667
vt 0.600000 1.000000
vt 0.666667 0.866667
vt 0.666667 1.000000
vt 0.733333 0.866667
vt 0.733333 1.000000
vt 0.800000 0.866667
vt 0.800000 1.000000
vt 0.866667 0.866667
vt 0.866667 1.000000
vt 0.933333 0.866667
vt 0.933333 1.000000
vt 1.000000 0.866667
vt 0.000000 0.733333
vt 0.066667 0.733333
vt 0.133333 0.733333
vt 0.200000 0.733333
vt 0.266667 0.733333
vt 0.333333 0.733333
vt 0.400000 0.733333
vt 0.466667 0.733333
vt 0.533333 0.733333
vt 0.600000 0.733333
vt 0.666667 0.733333
vt 0.733333 0.733333
vt 0.800000 0.733333
vt 0.866667 0.733333
vt 0.933333 0.733333
vt 1.000000 0.733333
vt 0.000000 0.600000
vt 0.066667 0.600000
vt 0.133333 0.600000
vt 0.200000 0.600000
vt 0.266667 0.600000
vt 0.333333 0.600000
vt 0.400000 0.600000
vt 0.466667 0.600000
vt 0.533333 0.600000
vt 0.600000 0.600000
vt 0.666667 0.600000
vt 0.733333 0.600000
vt 0.800000 0.600000
vt 0.866667 0.600000
vt 0.933333 0.600000
vt 1.000000 0.600000
vt 1.000000 0.466667
vn -0.4022 -0.8856 -0.2322
vn 0.3451 -0.8856 0.3107
vn -0.4618 -0.8856 -0.0485
vn 0.1889 -0.8856 0.4242
vn 0.0000 -0.8856 0.4644
vn -0.1889 -0.8856 0.4242
vn -0.4416 -0.8856 0.1435
vn -0.2730 -0.8856 -0.3757
vn 0.4417 -0.8856 0.1435
vn -0.4021 -0.8856 -0.2322
vn -0.0966 -0.8856 -0.4542
vn 0.4618 -0.8856 -0.0486
vn -0.2729 -0.8856 -0.3757
vn -0.0965 -0.8856 -0.4542
vn 0.0966 -0.8856 -0.4542
vn 0.0965 -0.8856 -0.4542
vn 0.2729 -0.8856 -0.3757
vn 0.4022 -0.8856 -0.2322
vn -0.3180 -0.6238 -0.7140
vn -0.0000 -0.7570 0.6534
vn 0.2658 -0.7570 0.5969
vn -0.0001 -0.6238 -0.7816
vn -0.2658 -0.7570 0.5969
vn 0.3178 -0.6238 -0.7140
vn -0.4856 -0.7570 0.4372
vn -0.2657 -0.7570 0.5969
vn 0.5809 -0.6238 -0.5229
vn -0.6214 -0.7570 0.2019
vn -0.4855 -0.7570 0.4372
vn 0.7433 -0.6238 -0.2416
vn -0.6498 -0.7571 -0.0683
vn 0.7773 -0.6238 0.0816
vn -0.5658 -0.7570 -0.3267
vn 0.6769 -0.6238 0.3907
vn -0.3840 -0.7570 -0.5286
vn 0.4595 -0.6238 0.6323
vn -0.1358 -0.7570 -0.6391
vn -0.3841 -0.7570 -0.5286
vn 0.1626 -0.6238 0.7645
vn 0.1358 -0.7570 -0.6391
vn -0.1359 -0.7570 -0.6391
vn -0.1624 -0.6238 0.7645
vn 0.3840 -0.7570 -0.5286
vn -0.4594 -0.6238 0.6324
vn 0.5658 -0.7570 -0.3267
vn -0.6768 -0.6238 0.3908
vn 0.6498 -0.7571 -0.0683
vn -0.7773 -0.6238 0.0818
vn 0.7174 -0.3364 0.6101
vn -0.7689 -0.5671 0.2952
vn 0.7980 -0.5892 -0.1264
vn 0.2896 -0.5892 0.7543
vn -0.5276 -0.2162 -0.8215
vn 0.2657 -0.7570 0.5969
vn 0.8870 -0.3364 0.3163
vn -0.0000 -0.3304 0.9438
vn 0.3839 -0.3304 0.8622
vn -0.3839 -0.3304 0.8622
vn -0.7014 -0.3304 0.6315
vn -0.8976 -0.3304 0.2917
vn -0.7014 -0.3304 0.6316
vn -0.9387 -0.3304 -0.0987
vn -0.6498 -0.7571 -0.0682
vn -0.8174 -0.3304 -0.4719
vn -0.5659 -0.7570 -0.3267
vn -0.5548 -0.3304 -0.7636
vn -0.1962 -0.3304 -0.9232
vn 0.1963 -0.3304 -0.9232
vn 0.5548 -0.3304 -0.7636
vn 0.1962 -0.3304 -0.9232
vn 0.8174 -0.3304 -0.4719
vn 0.9387 -0.3304 -0.0987
vn 0.6498 -0.7571 -0.0682
vn 0.8976 -0.3304 0.2917
vn 0.7014 -0.3304 0.6316
vn 0.8870 -0.3363 0.3163
vn 0.3839 -0.3304 0.8623
vn 0.7014 -0.3304 0.6315
vn 0.3840 -0.3304 0.8622
vn 0.0001 -0.3304 0.9438
vn -0.3838 -0.3304 0.8623
vn -0.3451 -0.8856 0.3107
vn -0.9387 -0.3304 -0.0986
vn -0.8174 -0.3304 -0.4718
vn -0.5548 -0.3304 -0.7635
vn -0.1963 -0.3304 -0.9232
vn 0.5547 -0.3304 -0.7636
vn 0.4021 -0.8856 -0.2322
vn 0.8173 -0.3304 -0.4720
vn 0.9386 -0.3304 -0.0987
vn 0.4416 -0.8856 0.1435
vn 0.4618 -0.8856 -0.0485
vn 0.8977 -0.3304 0.2916
vn -0.9753 -0.2162 -0.0462
vn -0.1289 -0.5672 -0.8134
vn -0.7689 -0.5671 0.2951
vn -0.5276 -0.2161 -0.8215
vn -0.1288 -0.5671 -0.8135
vn -0.7689 -0.5672 0.2951
vn -0.1888 -0.8856 0.4242
vn -0.4417 -0.8856 0.1435
vn -0.3179 -0.6238 -0.7140
vn 0.0000 -0.6238 -0.7816
vn 0.3179 -0.6238 -0.7140
vn 0.5808 -0.6238 -0.5230
vn 0.5809 -0.6238 -0.5230
vn 0.7433 -0.6238 -0.2415
vn 0.7434 -0.6238 -0.2415
vn 0.7773 -0.6238 0.0817
vn 0.6769 -0.6238 0.3908
vn 0.4594 -0.6238 0.6323
vn 0.1625 -0.6238 0.7645
vn -0.1625 -0.6238 0.7645
vn -0.4594 -0.6238 0.6323
vn -0.6769 -0.6238 0.3908
vn -0.7773 -0.6238 0.0817
vn -0.9753 -0.2162 -0.0463
vn 0.7175 -0.3364 0.6100
vn -0.0001 -0.7570 0.6534
vn -0.4856 -0.7570 0.4371
vn -0.6214 -0.7570 0.2018
vn -0.6497 -0.7571 -0.0683
vn 0.1359 -0.7570 -0.6391
vn 0.3841 -0.7570 -0.5286
vn 0.5659 -0.7570 -0.3266
vn 0.7174 -0.3364 0.6100
vn 0.8976 -0.3304 0.2916
vn -0.9753 -0.2161 -0.0462
vn -0.1289 -0.5671 -0.8135
vn 0.7981 -0.5892 -0.1264
vn -0.0000 1.0000 -0.0000
vn -0.0000 0.9031 -0.4293
vn -0.1746 0.9031 -0.3922
vn -0.3191 0.9031 -0.2873
vn -0.4083 0.9031 -0.1327
vn -0.4270 0.9031 0.0449
vn -0.3718 0.9031 0.2147
vn -0.2524 0.9031 0.3473
vn -0.0893 0.9031 0.4199
vn 0.0893 0.9031 0.4199
vn 0.2524 0.9031 0.3473
vn 0.3718 0.9031 0.2147
vn 0.4270 0.9031 0.0449
vn 0.4083 0.9031 -0.1327
vn 0.3191 0.9031 -0.2873
vn 0.1746 0.9031 -0.3922
vn -0.0000 0.6557 -0.7550
vn -0.3071 0.6557 -0.6897
vn -0.5611 0.6557 -0.5052
vn -0.7181 0.6557 -0.2333
vn -0.7509 0.6557 0.0789
vn -0.6539 0.6557 0.3775
vn -0.4438 0.6557 0.6108
vn -0.1570 0.6557 0.7385
vn 0.1570 0.6557 0.7385
vn 0.4438 0.6557 0.6108
vn 0.6539 0.6557 0.3775
vn 0.7509 0.6557 0.0789
vn 0.7181 0.6557 -0.2333
vn 0.5611 0.6557 -0.5052
vn 0.3071 0.6557 -0.6897
vn 0.0000 0.3012 -0.9536
vn -0.3878 0.3012 -0.8711
vn -0.7086 0.3012 -0.6381
vn -0.9069 0.3012 -0.2947
vn -0.9483 0.3012 0.0997
vn -0.8258 0.3012 0.4768
vn -0.5605 0.3012 0.7714
vn -0.1983 0.3012 0.9327
vn 0.1983 0.3012 0.9327
vn 0.5605 0.3012 0.7714
vn 0.8258 0.3012 0.4768
vn 0.9483 0.3012 0.0997
vn 0.9069 0.3012 -0.2947
vn 0.7086 0.3012 -0.6381
vn 0.3878 0.3012 -0.8711
usemtl wire_006135058
s off
f 62/1/1 63/2/2 64/3/3
f 65/4/4 66/5/5 64/3/3
f 66/5/5 67/6/6 68/7/7
f 69/8/8 70/9/9 62/1/10
f 71/10/11 72/11/12 69/8/13
f 71/10/14 73/12/15 72/11/12
f 73/12/16 74/13/17 75/14/18
f 48/15/19 76/16/20 77/17/21
f 47/18/22 78/19/23 76/16/20
f 61/20/24 79/21/25 78/19/26
f 60/22/27 80/23/28 79/21/29
f 59/24/30 81/25/31 80/23/28
f 58/26/32 82/27/33 81/25/31
f 57/28/34 83/29/35 82/27/33
f 56/30/36 84/31/37 83/29/38
f 55/32/39 85/33/40 84/31/41
f 54/34/42 86/35/43 85/33/40
f 53/36/44 87/37/45 86/35/43
f 52/38/46 88/39/47 87/37/45
f 51/40/48 89/41/49 88/39/47
f 90/42/50 91/43/51 92/44/52
f 49/45/53 77/17/54 93/46/55
f 77/17/21 94/47/56 95/48/57
f 76/16/20 96/49/58 94/47/56
f 78/19/26 97/50/59 96/49/58
f 79/21/29 98/51/60 97/50/61
f 80/23/28 99/52/62 98/51/60
f 81/25/63 100/53/64 99/52/62
f 82/27/65 101/54/66 100/53/64
f 83/29/38 102/55/67 101/54/66
f 84/31/41 103/56/68 102/55/67
f 85/33/40 104/57/69 103/56/70
f 86/35/43 105/58/71 104/57/69
f 87/37/45 106/59/72 105/58/71
f 88/39/73 107/60/74 106/59/72
f 89/41/49 108/61/75 107/60/74
f 93/46/76 95/48/77 108/61/78
f 95/48/79 66/5/5 65/4/4
f 94/47/80 67/6/6 66/5/5
f 96/49/81 109/62/82 67/6/6
f 97/50/61 68/7/7 109/62/82
f 98/51/60 64/3/3 68/7/7
f 99/52/83 62/1/1 64/3/3
f 100/53/84 69/8/8 62/1/10
f 101/54/85 71/10/11 69/8/13
f 102/55/86 73/12/16 71/10/14
f 103/56/70 74/13/17 73/12/15
f 104/57/87 75/14/88 74/13/17
f 105/58/89 72/11/12 75/14/88
f 106/59/90 70/9/91 72/11/92
f 107/60/93 63/2/2 70/9/91
f 108/61/78 65/4/4 63/2/2
f 50/63/94 110/64/95 90/42/96
f 49/45/97 91/43/51 110/64/98
f 93/46/76 92/44/52 91/43/51
f 89/41/49 90/42/99 92/44/52
f 63/2/2 65/4/4 64/3/3
f 66/5/5 68/7/7 64/3/3
f 67/6/100 109/62/82 68/7/101
f 70/9/9 63/2/2 62/1/1
f 72/11/92 70/9/91 69/8/13
f 73/12/15 75/14/18 72/11/92
f 48/15/102 47/18/103 76/16/20
f 47/18/103 61/20/104 78/19/26
f 61/20/104 60/22/105 79/21/29
f 60/22/106 59/24/107 80/23/28
f 59/24/108 58/26/109 81/25/31
f 58/26/109 57/28/110 82/27/33
f 57/28/110 56/30/111 83/29/38
f 56/30/111 55/32/112 84/31/41
f 55/32/112 54/34/113 85/33/40
f 54/34/113 53/36/114 86/35/43
f 53/36/114 52/38/115 87/37/45
f 52/38/115 51/40/116 88/39/47
f 51/40/116 50/63/117 89/41/118
f 90/42/96 110/64/98 91/43/51
f 49/45/53 48/15/102 77/17/21
f 77/17/54 76/16/20 94/47/56
f 76/16/119 78/19/26 96/49/58
f 78/19/23 79/21/29 97/50/59
f 79/21/120 80/23/28 98/51/60
f 80/23/121 81/25/31 99/52/62
f 81/25/122 82/27/65 100/53/64
f 82/27/33 83/29/38 101/54/66
f 83/29/35 84/31/41 102/55/67
f 84/31/37 85/33/40 103/56/70
f 85/33/123 86/35/43 104/57/69
f 86/35/124 87/37/45 105/58/71
f 87/37/125 88/39/47 106/59/72
f 88/39/73 89/41/126 107/60/74
f 89/41/49 93/46/76 108/61/75
f 93/46/76 77/17/21 95/48/57
f 95/48/57 94/47/56 66/5/5
f 94/47/56 96/49/58 67/6/6
f 96/49/58 97/50/61 109/62/82
f 97/50/61 98/51/60 68/7/7
f 98/51/60 99/52/83 64/3/3
f 99/52/83 100/53/64 62/1/10
f 100/53/64 101/54/66 69/8/13
f 101/54/66 102/55/67 71/10/11
f 102/55/86 103/56/70 73/12/16
f 103/56/70 104/57/69 74/13/17
f 104/57/69 105/58/71 75/14/88
f 105/58/71 106/59/72 72/11/92
f 106/59/72 107/60/127 70/9/91
f 107/60/127 108/61/78 63/2/2
f 108/61/78 95/48/57 65/4/4
f 50/63/128 49/45/53 110/64/129
f 49/45/53 93/46/76 91/43/130
f 93/46/76 89/41/49 92/44/52
f 89/41/49 50/63/128 90/42/50
s 1
f 1/65/131 2/66/132 3/67/133
f 1/68/131 3/67/133 4/69/134
f 1/70/131 4/69/134 5/71/135
f 1/72/131 5/71/135 6/73/136
f 1/74/131 6/73/136 7/75/137
f 1/76/131 7/75/137 8/77/138
f 1/78/131 8/77/138 9/79/139
f 1/80/131 9/79/139 10/81/140
f 1/82/131 10/81/140 11/83/141
f 1/84/131 11/83/141 12/85/142
f 1/86/131 12/85/142 13/87/143
f 1/88/131 13/87/143 14/89/144
f 1/90/131 14/89/144 15/91/145
f 1/92/131 15/91/145 16/93/146
f 1/94/131 16/93/146 2/95/132
f 2/66/132 17/96/147 18/97/148
f 3/67/133 18/97/148 19/98/149
f 4/69/134 19/98/149 20/99/150
f 5/71/135 20/99/150 21/100/151
f 6/73/136 21/100/151 22/101/152
f 7/75/137 22/101/152 23/102/153
f 8/77/138 23/102/153 24/103/154
f 9/79/139 24/103/154 25/104/155
f 10/81/140 25/104/155 26/105/156
f 11/83/141 26/105/156 27/106/157
f 12/85/142 27/106/157 28/107/158
f 13/87/143 28/107/158 29/108/159
f 14/89/144 29/108/159 30/109/160
f 15/91/145 30/109/160 31/110/161
f 16/93/146 31/110/161 17/111/147
f 17/96/147 32/112/162 33/113/163
f 18/97/148 33/113/163 34/114/164
f 19/98/149 34/114/164 35/115/165
f 20/99/150 35/115/165 36/116/166
f 21/100/151 36/116/166 37/117/167
f 22/101/152 37/117/167 38/118/168
f 23/102/153 38/118/168 39/119/169
f 24/103/154 39/119/169 40/120/170
f 25/104/155 40/120/170 41/121/171
f 26/105/156 41/121/171 42/122/172
f 27/106/157 42/122/172 43/123/173
f 28/107/158 43/123/173 44/124/174
f 29/108/159 44/124/174 45/125/175
f 30/109/160 45/125/175 46/126/176
f 31/110/161 46/126/176 32/127/162
f 32/112/162 47/18/103 48/15/102
f 33/113/163 48/15/102 49/45/53
f 34/114/164 49/45/53 50/63/94
f 35/115/165 50/63/94 51/40/116
f 36/116/166 51/40/116 52/38/115
f 37/117/167 52/38/115 53/36/114
f 38/118/168 53/36/114 54/34/113
f 39/119/169 54/34/113 55/32/112
f 40/120/170 55/32/112 56/30/111
f 41/121/171 56/30/111 57/28/110
f 42/122/172 57/28/110 58/26/109
f 43/123/173 58/26/109 59/24/30
f 44/124/174 59/24/30 60/22/105
f 45/125/175 60/22/105 61/20/104
f 46/126/176 61/20/104 47/128/103
f 18/97/148 3/67/133 2/66/132
f 19/98/149 4/69/134 3/67/133
f 20/99/150 5/71/135 4/69/134
f 21/100/151 6/73/136 5/71/135
f 22/101/152 7/75/137 6/73/136
f 23/102/153 8/77/138 7/75/137
f 24/103/154 9/79/139 8/77/138
f 25/104/155 10/81/140 9/79/139
f 26/105/156 11/83/141 10/81/140
f 27/106/157 12/85/142 11/83/141
f 28/107/158 13/87/143 12/85/142
f 29/108/159 14/89/144 13/87/143
f 30/109/160 15/91/145 14/89/144
f 31/110/161 16/93/146 15/91/145
f 17/111/147 2/95/132 16/93/146
f 33/113/163 18/97/148 17/96/147
f 34/114/164 19/98/149 18/97/148
f 35/115/165 20/99/150 19/98/149
f 36/116/166 21/100/151 20/99/150
f 37/117/167 22/101/152 21/100/151
f 38/118/168 23/102/153 22/101/152
f 39/119/169 24/103/154 23/102/153
f 40/120/170 25/104/155 24/103/154
f 41/121/171 26/105/156 25/104/155
f 42/122/172 27/106/157 26/105/156
f 43/123/173 28/107/158 27/106/157
f 44/124/174 29/108/159 28/107/158
f 45/125/175 30/109/160 29/108/159
f 46/126/176 31/110/161 30/109/160
f 32/127/162 17/111/147 31/110/161
f 48/15/102 33/113/163 32/112/162
f 49/45/53 34/114/164 33/113/163
f 50/63/94 35/115/165 34/114/164
f 51/40/116 36/116/166 35/115/165
f 52/38/115 37/117/167 36/116/166
f 53/36/114 38/118/168 37/117/167
f 54/34/113 39/119/169 38/118/168
f 55/32/112 40/120/170 39/119/169
f 56/30/111 41/121/171 40/120/170
f 57/28/110 42/122/172 41/121/171
f 58/26/109 43/123/173 42/122/172
f 59/24/30 44/124/174 43/123/173
f 60/22/105 45/125/175 44/124/174
f 61/20/104 46/126/176 45/125/175
f 47/128/103 32/127/162 46/126/176
