ply
format ascii 1.0
comment Created by Open Asset Import Library - http://assimp.sf.net (v5.0.1588609223)
element vertex 102
property float x
property float y
property float z
property float nx
property float ny
property float nz
property float s
property float t
element face 34
property list uchar int vertex_index
end_header
3.4341919 -0.54137403 0.233487 0.6825 -0.3276 0.6534 0.30467799 0.093746997
3.829272 -0.086534001 -0.015445 0.79970002 0.29750001 0.52139997 0.32030299 0.17186999
1.343853 0.187066 0.22603101 0.72240001 0.53240001 0.4413 0.164058 0.17186999
3.4341919 -0.54137403 0.233487 0.6825 -0.3276 0.6534 0.30467799 0.093746997
1.343853 0.187066 0.22603101 0.72240001 0.53240001 0.4413 0.164058 0.17186999
0.79597402 -0.42723399 0.360248 0.1173 -0.24529999 0.9623 0.14062101 0.085934997
3.4341919 -0.54137403 0.233487 0.6825 -0.3276 0.6534 0.30467799 0.093746997
0.79597402 -0.42723399 0.360248 0.1173 -0.24529999 0.9623 0.14062101 0.085934997
1.3617489 -0.76793402 -0.193827 0.50480002 -0.84390002 -0.1814 0.179682 0.0078119999
3.4341919 -0.54137403 0.233487 0.6825 -0.3276 0.6534 0.30467799 0.093746997
1.3617489 -0.76793402 -0.193827 0.50480002 -0.84390002 -0.1814 0.179682 0.0078119999
3.796922 -0.74212402 -0.267818 -0.43889999 -0.89609998 0.066299997 0.312491 0.0078119999
1.343853 0.187066 0.22603101 0.72240001 0.53240001 0.4413 0.164058 0.17186999
0.184083 -0.023434 0.72618902 0.058899999 -0.0253 0.99790001 0.078123003 0.132809
0.79597402 -0.42723399 0.360248 0.1173 -0.24529999 0.9623 0.14062101 0.085934997
1.343853 0.187066 0.22603101 0.72240001 0.53240001 0.4413 0.164058 0.17186999
3.829272 -0.086534001 -0.015445 0.79970002 0.29750001 0.52139997 0.32030299 0.17186999
3.812752 -0.273514 -0.61425799 -0.044399999 0.0506 -0.99769998 0.32030299 0.25780499
1.343853 0.187066 0.22603101 0.72240001 0.53240001 0.4413 0.164058 0.17186999
0.75811702 0.68550599 0.158923 0.5517 0.78969997 0.26840001 0.109372 0.195307
0.184083 -0.023434 0.72618902 0.058899999 -0.0253 0.99790001 0.078123003 0.132809
1.343853 0.187066 0.22603101 0.72240001 0.53240001 0.4413 0.164058 0.17186999
3.812752 -0.273514 -0.61425799 -0.044399999 0.0506 -0.99769998 0.32030299 0.25780499
1.137365 -0.125534 -0.46856901 0.59039998 0.58429998 -0.55680001 0.132809 0.25780499
1.343853 0.187066 0.22603101 0.72240001 0.53240001 0.4413 0.164058 0.17186999
1.137365 -0.125534 -0.46856901 0.59039998 0.58429998 -0.55680001 0.132809 0.25780499
0.75811702 0.68550599 0.158923 0.5517 0.78969997 0.26840001 0.109372 0.195307
1.3617489 -0.76793402 -0.193827 0.50480002 -0.84390002 -0.1814 0.179682 0.0078119999
0.79597402 -0.42723399 0.360248 0.1173 -0.24529999 0.9623 0.14062101 0.085934997
0.250159 -0.73180401 0.43768099 0.63169998 -0.55690002 0.53930002 0.093746997 0.039060999
1.3617489 -0.76793402 -0.193827 0.50480002 -0.84390002 -0.1814 0.179682 0.0078119999
0.250159 -0.73180401 0.43768099 0.63169998 -0.55690002 0.53930002 0.093746997 0.039060999
0.51928002 -1.016294 -0.33263201 -0.33419999 -0.93339998 -0.1309 0.093746997 0.0078119999
0.79597402 -0.42723399 0.360248 0.1173 -0.24529999 0.9623 0.14062101 0.085934997
0.184083 -0.023434 0.72618902 0.058899999 -0.0253 0.99790001 0.078123003 0.132809
0.250159 -0.73180401 0.43768099 0.63169998 -0.55690002 0.53930002 0.093746997 0.039060999
1.137365 -0.125534 -0.46856901 0.59039998 0.58429998 -0.55680001 0.132809 0.25780499
0.40364799 0.37118599 -0.64408302 0.28600001 0.60280001 -0.74489999 0.078123003 0.249992
0.75811702 0.68550599 0.158923 0.5517 0.78969997 0.26840001 0.109372 0.195307
1.137365 -0.125534 -0.46856901 0.59039998 0.58429998 -0.55680001 0.132809 0.25780499
3.812752 -0.273514 -0.61425799 -0.044399999 0.0506 -0.99769998 0.32030299 0.25780499
1.3617489 -0.76793402 -0.193827 0.50480002 -0.84390002 -0.1814 0.179682 0.33592701
1.137365 -0.125534 -0.46856901 0.59039998 0.58429998 -0.55680001 0.132809 0.25780499
0.067073002 -0.38995299 -0.83106899 0.2386 0.21870001 -0.94620001 0.078123003 0.30467799
0.40364799 0.37118599 -0.64408302 0.28600001 0.60280001 -0.74489999 0.078123003 0.249992
1.137365 -0.125534 -0.46856901 0.59039998 0.58429998 -0.55680001 0.132809 0.25780499
1.3617489 -0.76793402 -0.193827 0.50480002 -0.84390002 -0.1814 0.179682 0.33592701
0.51928002 -1.016294 -0.33263201 -0.33419999 -0.93339998 -0.1309 0.093746997 0.33592701
1.137365 -0.125534 -0.46856901 0.59039998 0.58429998 -0.55680001 0.132809 0.25780499
0.51928002 -1.016294 -0.33263201 -0.33419999 -0.93339998 -0.1309 0.093746997 0.33592701
0.067073002 -0.38995299 -0.83106899 0.2386 0.21870001 -0.94620001 0.078123003 0.30467799
0.184083 -0.023434 0.72618902 0.058899999 -0.0253 0.99790001 0.078123003 0.132809
0.75811702 0.68550599 0.158923 0.5517 0.78969997 0.26840001 0.109372 0.195307
0.105619 0.85069698 0.168101 0.043499999 0.9756 0.215 0.054685999 0.20311899
0.75811702 0.68550599 0.158923 0.5517 0.78969997 0.26840001 0.109372 0.195307
0.40364799 0.37118599 -0.64408302 0.28600001 0.60280001 -0.74489999 0.078123003 0.249992
0.105619 0.85069698 0.168101 0.043499999 0.9756 0.215 0.054685999 0.20311899
3.812752 -0.273514 -0.61425799 -0.044399999 0.0506 -0.99769998 0.32030299 0.25780499
3.796922 -0.74212402 -0.267818 -0.43889999 -0.89609998 0.066299997 0.312491 0.33592701
1.3617489 -0.76793402 -0.193827 0.50480002 -0.84390002 -0.1814 0.179682 0.33592701
0.067073002 -0.38995299 -0.83106899 0.2386 0.21870001 -0.94620001 0.078123003 0.30467799
-0.48080599 0.48933601 -0.67505699 0.2287 0.5438 -0.80739999 0.031249 0.26561701
0.40364799 0.37118599 -0.64408302 0.28600001 0.60280001 -0.74489999 0.078123003 0.249992
0.40364799 0.37118599 -0.64408302 0.28600001 0.60280001 -0.74489999 0.078123003 0.249992
-0.48080599 0.48933601 -0.67505699 0.2287 0.5438 -0.80739999 0.031249 0.26561701
0.105619 0.85069698 0.168101 0.043499999 0.9756 0.215 0.054685999 0.20311899
3.829272 -0.086534001 -0.015445 0.0561 -0.1225 0.99089998 0.32030299 0.17186999
3.4341919 -0.54137403 0.233487 0.75999999 0.20730001 0.616 0.30467799 0.093746997
3.796922 -0.74212402 -0.267818 0.88190001 -0.048599999 0.46880001 0.312491 0.33592701
0.067073002 -0.38995299 -0.83106899 0.8883 0.41080001 -0.2053 0.078123003 0.30467799
0.184083 -0.023434 0.72618902 0.97119999 0.12 0.2059 0.078123003 0.132809
0.51928002 -1.016294 -0.33263201 0.6056 0.41010001 -0.68199998 0.093746997 0.0078119999
0.250159 -0.73180401 0.43768099 0.51990002 -0.045499999 0.85299999 0.093746997 0.039060999
0.51928002 -1.016294 -0.33263201 0.6056 0.41010001 -0.68199998 0.093746997 0.0078119999
0.184083 -0.023434 0.72618902 0.97119999 0.12 0.2059 0.078123003 0.132809
0.067073002 -0.38995299 -0.83106899 -0.72549999 -0.62940001 0.2784 0.078123003 0.30467799
0.250159 -0.73180401 0.43768099 -0.97149998 -0.0086000003 0.2369 0.093746997 0.039060999
0.184083 -0.023434 0.72618902 -0.92739999 -0.1133 0.35659999 0.078123003 0.132809
0.105619 0.85069698 0.168101 -0.79509997 0.40279999 0.45339999 0.054685999 0.20311899
-0.48080599 0.48933601 -0.67505699 -0.90649998 -0.2428 0.34529999 0.031249 0.26561701
0.184083 -0.023434 0.72618902 -0.91140002 -0.1142 0.3953 0.078123003 0.132809
0.105619 0.85069698 0.168101 0.86199999 0.47729999 -0.1708 0.054685999 0.20311899
0.067073002 -0.38995299 -0.83106899 0.89289999 0.3867 -0.2307 0.078123003 0.30467799
-0.48080599 0.48933601 -0.67505699 0.68540001 0.39160001 -0.61390001 0.031249 0.26561701
0.067073002 -0.38995299 -0.83106899 -0.72549999 -0.62940001 0.2784 0.078123003 0.30467799
0.51928002 -1.016294 -0.33263201 -0.53829998 -0.61229998 -0.57910001 0.093746997 0.33592701
0.250159 -0.73180401 0.43768099 -0.97149998 -0.0086000003 0.2369 0.093746997 0.039060999
0.067073002 -0.38995299 -0.83106899 -0.71280003 -0.63440001 0.29910001 0.078123003 0.30467799
0.184083 -0.023434 0.72618902 -0.91140002 -0.1142 0.3953 0.078123003 0.132809
-0.48080599 0.48933601 -0.67505699 -0.90649998 -0.2428 0.34529999 0 0
3.4341919 -0.54137403 0.233487 -0.97140002 -0.070200004 0.22669999 0.30467799 0.093746997
3.812752 -0.273514 -0.61425799 -0.95289999 -0.055799998 -0.29809999 0.32030299 0.25780499
3.796922 -0.74212402 -0.267818 -0.85000002 -0.1699 -0.49860001 0.312491 0.33592701
3.4341919 -0.54137403 0.233487 -0.97140002 -0.070200004 0.22669999 0.30467799 0.093746997
3.829272 -0.086534001 -0.015445 -0.068599999 0.667 -0.74190003 0.32030299 0.17186999
3.812752 -0.273514 -0.61425799 -0.95289999 -0.055799998 -0.29809999 0.32030299 0.25780499
3.829272 -0.086534001 -0.015445 0.0561 -0.1225 0.99089998 0.32030299 0.17186999
3.796922 -0.74212402 -0.267818 0.88190001 -0.048599999 0.46880001 0.312491 0.33592701
3.812752 -0.273514 -0.61425799 0.89139998 0.0447 0.45109999 0.32030299 0.25780499
0.067073002 -0.38995299 -0.83106899 0.89289999 0.3867 -0.2307 0.078123003 0.30467799
0.105619 0.85069698 0.168101 0.86199999 0.47729999 -0.1708 0.054685999 0.20311899
0.184083 -0.023434 0.72618902 0.97930002 0.084799998 0.18350001 0.078123003 0.132809
3 0 1 2
3 3 4 5
3 6 7 8
3 9 10 11
3 12 13 14
3 15 16 17
3 18 19 20
3 21 22 23
3 24 25 26
3 27 28 29
3 30 31 32
3 33 34 35
3 36 37 38
3 39 40 41
3 42 43 44
3 45 46 47
3 48 49 50
3 51 52 53
3 54 55 56
3 57 58 59
3 60 61 62
3 63 64 65
3 66 67 68
3 69 70 71
3 72 73 74
3 75 76 77
3 78 79 80
3 81 82 83
3 84 85 86
3 87 88 89
3 90 91 92
3 93 94 95
3 96 97 98
3 99 100 101
