ply
format ascii 1.0
comment Created by Open Asset Import Library - http://assimp.sf.net (v5.0.1588609223)
element vertex 174
property float x
property float y
property float z
property float nx
property float ny
property float nz
property float s
property float t
element face 58
property list uchar int vertex_index
end_header
10.267781 5.7092962 -0.985596 -0.83539999 -0.54269999 0.087700002 0 0
10.729135 7.417737 -0.985596 0.0288 0.99949998 -0.0111 0 0
10.398138 5.7092962 -1.6465521 -0.076300003 0.97680002 -0.20020001 0 0
11.281831 5.7092962 -0.985596 0.30520001 0.95209998 -0.0207 0 0
10.729135 7.417737 -0.985596 0.021299999 0.99970001 -0.0126 0 0
10.592409 5.7092962 -0.26048601 -0.0414 0.97430003 0.2216 0 0
10.592409 5.7092962 -0.26048601 -0.034899998 0.97430003 0.2226 0 0
10.729135 7.417737 -0.985596 0.028200001 0.99949998 -0.0126 0 0
10.267781 5.7092962 -0.985596 -0.83459997 -0.54299998 0.092900001 0 0
10.398138 5.7092962 -1.6465521 -0.081200004 0.97680002 -0.1982 0 0
10.729135 7.417737 -0.985596 0.022299999 0.99970001 -0.0109 0 0
11.281831 5.7092962 -0.985596 0.30509999 0.95200002 -0.0254 0 0
10.7911 5.7092962 1.665333 0.23199999 0.94099998 0.2466 0 0
10.834788 7.417737 0.92853701 0.17479999 0.98460001 0.0074 0 0
10.157868 5.7092962 1.636191 -0.0071 0.97030002 0.2419 0 0
11.004204 5.7092962 0.203418 0.2189 0.95230001 -0.21269999 0 0
10.834788 7.417737 0.92853701 0.0133 0.99989998 0.003 0 0
10.7911 5.7092962 1.665333 0.14839999 0.95169997 0.26879999 0 0
10.329558 5.7092962 0.191901 -0.036899999 0.96799999 -0.2483 0 0
10.834788 7.417737 0.92853701 0.1063 0.99430001 0.00039999999 0 0
11.004204 5.7092962 0.203418 0.1812 0.95599997 -0.2307 0 0
10.157868 5.7092962 1.636191 0.0033 0.97039998 0.24150001 0 0
10.834788 7.417737 0.92853701 0.27849999 0.96039999 0.0060000001 0 0
10.329558 5.7092962 0.191901 0.060699999 0.95910001 -0.27649999 0 0
9.995347 5.7092962 -2.450841 -0.044199999 0.94730002 0.31729999 0 0
9.6643505 7.417737 -3.111798 -0.00050000002 1 -0.0016 0 0
9.2180891 5.7092962 -3.702713 -0.30450001 0.9472 -0.1005 0 0
9.2180891 5.7092962 -3.702713 -0.301 0.9479 -0.1043 0 0
9.6643505 7.417737 -3.111798 0.0038999999 1 -0.00019999999 0 0
9.3320169 5.7092962 -3.7720919 0.049800001 0.9465 -0.3188 0 0
10.112702 5.7092962 -2.5224271 0.3008 0.94809997 0.1035 0 0
9.6643505 7.417737 -3.111798 -0.0060000001 1 -0.0029 0 0
9.995347 5.7092962 -2.450841 -0.050000001 0.94679999 0.31799999 0 0
9.3320169 5.7092962 -3.7720919 0.044 0.94700003 -0.31810001 0 0
9.6643505 7.417737 -3.111798 -0.0018 1 -0.0015 0 0
10.112702 5.7092962 -2.5224271 0.30410001 0.94739997 0.099699996 0 0
8.2396832 5.7092962 -4.9982629 -0.80000001 -0.5165 0.30540001 0 0
8.7148561 7.417737 -4.9982629 -0.0018 1 -0.0082 0 0
8.2969055 5.7092962 -5.6091108 -0.092799999 0.97790003 -0.1875 0 0
9.0471897 5.7092962 -4.3379688 0.072400004 0.9738 0.2154 0 0
8.7148561 7.417737 -4.9982629 -0.0046000001 0.99989998 -0.0099999998 0 0
8.2396832 5.7092962 -4.9982629 -0.79720002 -0.51789999 0.31020001 0 0
9.2537327 5.7092962 -4.9982629 0.36930001 0.92150003 -0.1205 0 0
8.7148561 7.417737 -4.9982629 -0.0111 0.99989998 -0.0093999999 0 0
9.0471897 5.7092962 -4.3379688 0.0669 0.97369999 0.2176 0 0
8.2969055 5.7092962 -5.6091108 -0.096799999 0.97790003 -0.18539999 0 0
8.7148561 7.417737 -4.9982629 -0.0077999998 0.99989998 -0.0077 0 0
9.2537327 5.7092962 -4.9982629 0.3689 0.92110002 -0.1243 0 0
7.8187008 5.7092962 -6.3080378 0.057 0.99330002 0.1001 0 0
7.4007492 7.417737 -7.4329152 0.0261 0.95999998 -0.27869999 0 0
6.853548 5.7092962 -7.4199381 -0.30540001 0.90960002 -0.28169999 0 0
6.853548 5.7092962 -7.4199381 -0.37149999 0.91729999 0.1436 0 0
7.4007492 7.417737 -7.4329152 -0.1173 0.9903 0.074000001 0 0
6.933414 5.7092962 -8.0076694 -0.32100001 0.94480002 -0.065899998 0 0
7.9155521 5.7092962 -6.8993211 0.3908 0.85640001 -0.3373 0 0
7.4007492 7.417737 -7.4329152 0.1402 0.9303 -0.3389 0 0
7.8187008 5.7092962 -6.3080378 0.33790001 0.93559998 -0.1024 0 0
6.933414 5.7092962 -8.0076694 -0.0156 0.94870001 -0.31580001 0 0
7.4007492 7.417737 -7.4329152 0.0057999999 0.99980003 -0.0164 0 0
7.9155521 5.7092962 -6.8993211 0.3089 0.94959998 0.054299999 0 0
6.2115841 5.7092962 -8.0077639 -0.45820001 -0.59329998 0.66189998 0 0
6.2115841 7.417737 -8.3813734 0.0363 0.99849999 0.0403 0 0
5.5575418 5.7092962 -8.7355614 -0.2322 0.97079998 -0.060800001 0 0
6.6789188 5.7092962 -7.8066192 0.1027 0.98869997 0.1093 0 0
6.2115841 7.417737 -8.3813734 0.032099999 0.99879998 0.0374 0 0
6.2115841 5.7092962 -8.0077639 -0.45879999 -0.5934 0.6613 0 0
6.2115841 5.7092962 -9.010931 0.1068 0.94870001 -0.29750001 0 0
6.2115841 7.417737 -8.3813734 0.0308 0.99870002 0.0396 0 0
6.6789188 5.7092962 -7.8066192 0.1018 0.98869997 0.11 0 0
5.5575418 5.7092962 -8.7355614 -0.2305 0.97100002 -0.064099997 0 0
6.2115841 7.417737 -8.3813734 0.036899999 0.99849999 0.041299999 0 0
6.2115841 5.7092962 -9.010931 0.1117 0.94849998 -0.2965 0 0
4.416482 5.640831 -9.262537 0.1146 0.9404 0.3202 0 0
3.9323931 7.3492708 -9.7274857 -0.0136 0.99940002 -0.0305 0 0
3.4007659 5.640831 -9.9437494 -0.37529999 0.92690003 -0.0057000001 0 0
3.4007659 5.640831 -9.9437494 -0.25580001 0.82209998 0.50870001 0 0
3.9323931 7.3492708 -9.7274857 -0.074199997 0.95529997 0.2861 0 0
3.3224981 5.640831 -10.153836 -0.3576 0.9228 0.1435 0 0
4.5887742 5.640831 -9.4781284 0.30430001 0.9515 0.0451 0 0
3.9323931 7.3492708 -9.7274857 0.0020999999 0.99919999 0.040199999 0 0
4.416482 5.640831 -9.262537 0.083499998 0.93540001 0.34349999 0 0
3.3224981 5.640831 -10.153836 -0.1245 0.9508 -0.2836 0 0
3.9323931 7.3492708 -9.7274857 0.0060999999 1 0.0052999998 0 0
4.5887742 5.640831 -9.4781284 0.3193 0.94660002 -0.045600001 0 0
2.155385 5.7092962 -10.014097 -0.147 -0.52890003 0.83590001 0 0
2.155385 7.417737 -10.476938 0.0178 0.99980003 -0.0114 0 0
1.410181 5.7092962 -10.501727 -0.22669999 0.97399998 0.0033 0 0
2.824841 5.7092962 -10.152164 0.1982 0.977 0.078900002 0 0
2.155385 7.417737 -10.476938 0.0102 0.99989998 -0.0124 0 0
2.155385 5.7092962 -10.014097 -0.152 -0.5291 0.8348 0 0
2.155385 5.7092962 -11.017264 0.1167 -0.4655 -0.87730002 0 0
2.155385 7.417737 -10.476938 0.0102 0.99989998 -0.0116 0 0
2.824841 5.7092962 -10.152164 0.19930001 0.97689998 0.076700002 0 0
1.410181 5.7092962 -10.501727 -0.2265 0.97399998 -0.00050000002 0 0
2.155385 7.417737 -10.476938 0.017999999 0.99980003 -0.0108 0 0
2.155385 5.7092962 -11.017264 0.1241 -0.46560001 -0.87620002 0 0
0.80287701 5.7092962 -10.52194 0.2642 0.9472 0.18179999 0 0
0.057682 7.417737 -10.546739 -0.016899999 0.99980003 -0.0138 0 0
-0.66126901 5.7092962 -10.351212 -0.2166 0.94499999 0.24519999 0 0
-0.66126901 5.7092962 -10.351212 -0.2148 0.94499999 0.24680001 0 0
0.057682 7.417737 -10.546739 -0.0102 0.99989998 -0.0132 0 0
-0.68627501 5.7092962 -10.497463 -0.2685 0.94959998 -0.16150001 0 0
0.78484702 5.7092962 -10.709844 0.20909999 0.95130002 -0.2265 0 0
0.057682 7.417737 -10.546739 -0.023399999 0.99959999 -0.0135 0 0
0.80287701 5.7092962 -10.52194 0.2638 0.94739997 0.18099999 0 0
-0.68627501 5.7092962 -10.497463 -0.26890001 0.94929999 -0.163 0 0
0.057682 7.417737 -10.546739 -0.0167 0.99980003 -0.0131 0 0
0.78484702 5.7092962 -10.709844 0.2106 0.95130002 -0.2251 0 0
-1.9008119 5.7092962 -10.014097 0.162 -0.55000001 0.8193 0 0
-1.9008119 7.417737 -10.41704 -0.0081000002 0.99989998 0.0133 0 0
-2.5795059 5.7092962 -10.111606 -0.1876 0.97890002 0.080700003 0 0
-1.156855 5.7092962 -10.466305 0.22669999 0.97390002 0.0086000003 0 0
-1.9008119 7.417737 -10.41704 -0.0154 0.99980003 0.0144 0 0
-1.9008119 5.7092962 -10.014097 0.1575 -0.54979998 0.82029998 0 0
-1.9008119 5.7092962 -11.017264 -0.117 -0.4515 -0.88459998 0 0
-1.9008119 7.417737 -10.41704 -0.015699999 0.99980003 0.015 0 0
-1.156855 5.7092962 -10.466305 0.2265 0.97399998 0.0046999999 0 0
-2.5795059 5.7092962 -10.111606 -0.1884 0.97890002 0.0788 0 0
-1.9008119 7.417737 -10.41704 -0.0078999996 0.99989998 0.0143 0 0
-1.9008119 5.7092962 -11.017264 -0.1096 -0.45140001 -0.88559997 0 0
-3.2782569 5.7092962 -9.797142 0.31369999 0.94800001 0.054099999 0 0
-3.9569499 7.417737 -9.4917183 -0.00060000003 1 -0.00019999999 0 0
-4.5534439 5.7092962 -9.0491409 -0.1063 0.94779998 0.30050001 0 0
-4.5534439 5.7092962 -9.0491409 -0.1013 0.94739997 0.3037 0 0
-3.9569499 7.417737 -9.4917183 0.0066 1 0.00019999999 0 0
-4.635643 5.7092962 -9.1862841 -0.3123 0.94870001 -0.049400002 0 0
-3.360445 5.7092962 -9.9342852 0.1013 0.94739997 -0.3037 0 0
-3.9569499 7.417737 -9.4917183 -0.0066 1 -0.00019999999 0 0
-3.2782569 5.7092962 -9.797142 0.3123 0.94870001 0.049400002 0 0
-4.635643 5.7092962 -9.1862841 -0.31369999 0.94800001 -0.054099999 0 0
-3.9569499 7.417737 -9.4917183 0.00060000003 1 0.00019999999 0 0
-3.360445 5.7092962 -9.9342852 0.1063 0.94779998 -0.30050001 0 0
9.0471897 5.7092962 -4.3379688 0.072899997 0.97310001 0.2186 0 0
9.3320169 5.7092962 -3.7720919 0.043099999 0.94620001 -0.32080001 0 0
10.112702 5.7092962 -2.5224271 0.3064 0.94639999 0.1023 0 0
6.6789188 5.7092962 -7.8066192 0.1212 -0.98809999 0.094700001 0 0
6.933414 5.7092962 -8.0076694 -0.17290001 -0.94779998 0.26809999 0 0
7.9155521 5.7092962 -6.8993211 -0.229 -0.94849998 -0.2186 0 0
-7.651752 5.4565558 -6.9470239 0.20460001 0.8847 0.4188 0 0
-7.651752 7.1649971 -7.5308871 -0.046300001 0.99809998 -0.040199999 0 0
-8.074975 5.4565558 -6.9236002 -0.171 0.97579998 0.1366 0 0
-6.9730577 5.4565558 -7.8363209 0.19230001 0.97829998 -0.077200003 0 0
-7.651752 7.1649971 -7.5308871 -0.0515 0.99800003 -0.037900001 0 0
-7.651752 5.4565558 -6.9470239 0.20110001 0.88499999 0.4199 0 0
-7.651752 5.4565558 -7.950191 -0.38850001 -0.50800002 -0.76880002 0 0
-7.651752 7.1649971 -7.5308871 -0.0515 0.99800003 -0.036600001 0 0
-6.9730577 5.4565558 -7.8363209 0.19140001 0.97829998 -0.079300001 0 0
-8.074975 5.4565558 -6.9236002 -0.1717 0.97570002 0.1363 0 0
-7.651752 7.1649971 -7.5308871 -0.046 0.9982 -0.038600001 0 0
-7.651752 5.4565558 -7.950191 -0.38499999 -0.5079 -0.77060002 0 0
-5.9570112 5.7092962 -8.0077639 0.20460001 0.8847 0.4188 0 0
-5.9570112 7.4177361 -8.5916271 -0.046300001 0.99809998 -0.040199999 0 0
-6.3802338 5.7092962 -7.9843402 -0.171 0.97579998 0.1366 0 0
-5.278317 5.7092962 -8.8970613 0.19230001 0.97829998 -0.077200003 0 0
-5.9570112 7.4177361 -8.5916271 -0.0515 0.99800003 -0.037900001 0 0
-5.9570112 5.7092962 -8.0077639 0.20110001 0.88499999 0.4199 0 0
-5.9570112 5.7092962 -9.010931 -0.38850001 -0.50800002 -0.76880002 0 0
-5.9570112 7.4177361 -8.5916271 -0.0515 0.99800003 -0.036600001 0 0
-5.278317 5.7092962 -8.8970613 0.19140001 0.97829998 -0.079300001 0 0
-6.3802338 5.7092962 -7.9843402 -0.1717 0.97570002 0.1363 0 0
-5.9570112 7.4177361 -8.5916271 -0.046 0.9982 -0.038600001 0 0
-5.9570112 5.7092962 -9.010931 -0.38499999 -0.5079 -0.77060002 0 0
5.1524758 5.701355 -8.8836603 0.1972 0.85250002 0.48410001 0 0
5.1524758 7.4097958 -9.3320646 -0.0469 0.99839997 0.0317 0 0
4.7292528 5.701355 -8.8656712 -0.17129999 0.9637 0.20469999 0 0
5.8311701 5.701355 -9.566637 0.2177 0.9752 -0.038800001 0 0
5.1524758 7.4097958 -9.3320646 -0.056600001 0.99839997 -0.0031000001 0 0
5.1524758 5.701355 -8.8836603 0.1219 0.85930002 0.49669999 0 0
5.1524758 5.701355 -9.654089 -0.4161 -0.54750001 -0.72600001 0 0
5.1524758 7.4097958 -9.3320646 -0.061299998 0.99419999 -0.088799998 0 0
5.8311701 5.701355 -9.566637 0.1816 0.97350001 -0.13869999 0 0
4.7292528 5.701355 -8.8656712 -0.21170001 0.96450001 0.1577 0 0
5.1524758 7.4097958 -9.3320646 -0.045899998 0.99790001 -0.0447 0 0
5.1524758 5.701355 -9.654089 -0.31169999 -0.52609998 -0.79119998 0 0
3 0 1 2
3 3 4 5
3 6 7 8
3 9 10 11
3 12 13 14
3 15 16 17
3 18 19 20
3 21 22 23
3 24 25 26
3 27 28 29
3 30 31 32
3 33 34 35
3 36 37 38
3 39 40 41
3 42 43 44
3 45 46 47
3 48 49 50
3 51 52 53
3 54 55 56
3 57 58 59
3 60 61 62
3 63 64 65
3 66 67 68
3 69 70 71
3 72 73 74
3 75 76 77
3 78 79 80
3 81 82 83
3 84 85 86
3 87 88 89
3 90 91 92
3 93 94 95
3 96 97 98
3 99 100 101
3 102 103 104
3 105 106 107
3 108 109 110
3 111 112 113
3 114 115 116
3 117 118 119
3 120 121 122
3 123 124 125
3 126 127 128
3 129 130 131
3 132 133 134
3 135 136 137
3 138 139 140
3 141 142 143
3 144 145 146
3 147 148 149
3 150 151 152
3 153 154 155
3 156 157 158
3 159 160 161
3 162 163 164
3 165 166 167
3 168 169 170
3 171 172 173
