ply
format ascii 1.0
comment Created by Open Asset Import Library - http://assimp.sf.net (v5.0.1588609223)
element vertex 39
property float x
property float y
property float z
property float nx
property float ny
property float nz
property float s
property float t
element face 13
property list uchar int vertex_index
end_header
0.33182099 0.263623 0.673796 -0.2062 0.85420001 0.47729999 0.72657102 0.109372
1.647141 -1.029217 0.76556802 0.9307 -0.35429999 0.091200002 0.82031798 0.124996
0.285705 0.172994 -0.55308098 0.37040001 0.7798 -0.50470001 0.72657102 0.179682
0.33182099 0.263623 0.673796 -0.2062 0.85420001 0.47729999 0.72657102 0.109372
0.013828 -0.444747 0.77359903 -0.7737 -0.3211 0.54619998 0.73438299 0.070309997
1.647141 -1.029217 0.76556802 0.9307 -0.35429999 0.091200002 0.82031798 0.124996
1.647141 -1.029217 0.76556802 0.9307 -0.35429999 0.091200002 0.82031798 0.124996
1.078617 -1.059616 -0.54619902 0.3114 -0.65450001 -0.68900001 0.79688102 0.210931
0.285705 0.172994 -0.55308098 0.37040001 0.7798 -0.50470001 0.72657102 0.179682
0.285705 0.172994 -0.55308098 0.37040001 0.7798 -0.50470001 0.72657102 0.179682
1.078617 -1.059616 -0.54619902 0.3114 -0.65450001 -0.68900001 0.79688102 0.210931
-0.073587 -0.146486 -0.84789902 -0.3355 -0.1886 -0.92299998 0.71094602 0.210931
1.078617 -1.059616 -0.54619902 0.3114 -0.65450001 -0.68900001 0.79688102 0.210931
1.647141 -1.029217 0.76556802 0.9307 -0.35429999 0.091200002 0.82031798 0.30467799
-0.073587 -0.146486 -0.84789902 -0.3355 -0.1886 -0.92299998 0.71094602 0.210931
-0.073587 -0.146486 -0.84789902 -0.3355 -0.1886 -0.92299998 0.71094602 0.210931
1.647141 -1.029217 0.76556802 0.9307 -0.35429999 0.091200002 0.82031798 0.30467799
-0.38744801 -0.26177701 0.241321 0.0184 -0.87840003 -0.47760001 0.703134 0.28905401
0.013828 -0.444747 0.77359903 -0.7737 -0.3211 0.54619998 0.74219501 0.312491
-0.38744801 -0.26177701 0.241321 0.0184 -0.87840003 -0.47760001 0.703134 0.28905401
1.647141 -1.029217 0.76556802 0.9307 -0.35429999 0.091200002 0.82031798 0.30467799
0.33182099 0.263623 0.673796 -0.040899999 0.87709999 0.4786 0.72657102 0.109372
-0.38744801 -0.26177701 0.241321 -0.60939997 0.43900001 0.6602 0.703134 0.28905401
0.013828 -0.444747 0.77359903 -0.90719998 0.42039999 -0.017999999 0.74219501 0.312491
-0.38744801 -0.26177701 0.241321 0.2288 -0.95959997 -0.164 0.703134 0.28905401
-0.073587 -0.146486 -0.84789902 0.38429999 -0.87580001 -0.29210001 0.71094602 0.210931
0.013828 -0.444747 0.77359903 0.98299998 -0.043499999 -0.17820001 0.74219501 0.312491
0.285705 0.172994 -0.55308098 -0.38170001 0.88849998 -0.25459999 0.72657102 0.179682
-0.073587 -0.146486 -0.84789902 -0.65420002 0.64649999 -0.3924 0.71094602 0.210931
-0.38744801 -0.26177701 0.241321 -0.60939997 0.43900001 0.6602 0.703134 0.28905401
0.285705 0.172994 -0.55308098 0.91210002 -0.183 -0.3669 0.72657102 0.179682
0.013828 -0.444747 0.77359903 0.98299998 -0.043499999 -0.17820001 0.74219501 0.312491
-0.073587 -0.146486 -0.84789902 0.38429999 -0.87580001 -0.29210001 0.71094602 0.210931
0.285705 0.172994 -0.55308098 -0.38170001 0.88849998 -0.25459999 0.72657102 0.179682
-0.38744801 -0.26177701 0.241321 -0.60939997 0.43900001 0.6602 0.703134 0.28905401
0.33182099 0.263623 0.673796 -0.040899999 0.87709999 0.4786 0.72657102 0.109372
0.285705 0.172994 -0.55308098 0.91210002 -0.183 -0.3669 0.72657102 0.179682
0.33182099 0.263623 0.673796 0.98290002 -0.00069999998 0.18440001 0.72657102 0.109372
0.013828 -0.444747 0.77359903 0.98299998 -0.043499999 -0.17820001 0.74219501 0.312491
3 0 1 2
3 3 4 5
3 6 7 8
3 9 10 11
3 12 13 14
3 15 16 17
3 18 19 20
3 21 22 23
3 24 25 26
3 27 28 29
3 30 31 32
3 33 34 35
3 36 37 38
