ply
format ascii 1.0
comment Created by Open Asset Import Library - http://assimp.sf.net (v5.0.1588609223)
element vertex 60
property float x
property float y
property float z
property float nx
property float ny
property float nz
property float s
property float t
element face 20
property list uchar int vertex_index
end_header
-0.30846301 -0.139052 0.42494899 -0.99529999 0.0123 0.096199997 0.30467799 0.093746997
0.79280299 0.67083699 0.55113602 -0.75550002 0.63080001 0.177 0.374989 0.17186999
0.086616002 0.315788 0.176017 -0.4052 0.82560003 0.39269999 0.32030299 0.17186999
-0.30846301 -0.139052 0.42494899 -0.99529999 0.0123 0.096199997 0.30467799 0.093746997
0.88159198 -0.25319201 0.909621 -0.29620001 0.34290001 0.89139998 0.382801 0.085934997
0.79280299 0.67083699 0.55113602 -0.75550002 0.63080001 0.177 0.374989 0.17186999
-0.30846301 -0.139052 0.42494899 -0.99529999 0.0123 0.096199997 0.30467799 0.093746997
0.78867298 -0.80956203 0.081377 -0.0189 -0.93129998 0.36379999 0.374989 0.0078119999
0.88159198 -0.25319201 0.909621 -0.29620001 0.34290001 0.89139998 0.382801 0.085934997
-0.30846301 -0.139052 0.42494899 -0.99529999 0.0123 0.096199997 0.30467799 0.093746997
0.054267 -0.339802 -0.076356001 -0.3748 -0.87470001 -0.3073 0.312491 0.0078119999
0.78867298 -0.80956203 0.081377 -0.0189 -0.93129998 0.36379999 0.374989 0.0078119999
0.79280299 0.67083699 0.55113602 -0.75550002 0.63080001 0.177 0.374989 0.17186999
0.47549999 0.416738 -0.73482102 -0.55489999 0.4921 -0.67079997 0.359364 0.25780499
0.086616002 0.315788 0.176017 -0.4052 0.82560003 0.39269999 0.32030299 0.17186999
0.79280299 0.67083699 0.55113602 -0.75550002 0.63080001 0.177 0.374989 0.17186999
0.88159198 -0.25319201 0.909621 -0.29620001 0.34290001 0.89139998 0.382801 0.085934997
3.4117489 0.25556701 0.94919801 -0.13410001 0.077399999 0.98790002 0.53126401 0.132809
0.79280299 0.67083699 0.55113602 -0.75550002 0.63080001 0.177 0.374989 0.17186999
3.5824451 0.276788 0.27295199 0.97500002 0.087499999 0.2042 0.53126401 0.218743
0.47549999 0.416738 -0.73482102 -0.55489999 0.4921 -0.67079997 0.359364 0.25780499
0.79280299 0.67083699 0.55113602 -0.75550002 0.63080001 0.177 0.374989 0.17186999
3.4117489 0.25556701 0.94919801 -0.13410001 0.077399999 0.98790002 0.53126401 0.132809
3.5824451 0.276788 0.27295199 0.97500002 0.087499999 0.2042 0.53126401 0.218743
0.086616002 0.315788 0.176017 -0.4052 0.82560003 0.39269999 0.32030299 0.17186999
0.47549999 0.416738 -0.73482102 -0.55489999 0.4921 -0.67079997 0.359364 0.25780499
0.070096999 0.12880801 -0.42279601 -0.30039999 0.28729999 -0.9095 0.32030299 0.25780499
0.78867298 -0.80956203 0.081377 -0.0189 -0.93129998 0.36379999 0.374989 0.0078119999
3.7965031 -0.248602 0.63258398 0.2816 -0.85839999 -0.4289 0.53126401 0.054685999
0.88159198 -0.25319201 0.909621 -0.29620001 0.34290001 0.89139998 0.382801 0.085934997
0.88159198 -0.25319201 0.909621 -0.29620001 0.34290001 0.89139998 0.382801 0.085934997
3.7965031 -0.248602 0.63258398 0.2816 -0.85839999 -0.4289 0.53126401 0.054685999
3.4117489 0.25556701 0.94919801 -0.13410001 0.077399999 0.98790002 0.53126401 0.132809
3.5824451 0.276788 0.27295199 0.97500002 0.087499999 0.2042 0.53126401 0.218743
0.78867298 -0.80956203 0.081377 -0.0189 -0.93129998 0.36379999 0.374989 0.33592701
0.47549999 0.416738 -0.73482102 -0.55489999 0.4921 -0.67079997 0.359364 0.25780499
3.5824451 0.276788 0.27295199 0.97500002 0.087499999 0.2042 0.53126401 0.218743
3.7965031 -0.248602 0.63258398 0.2816 -0.85839999 -0.4289 0.53126401 0.28905401
0.78867298 -0.80956203 0.081377 -0.0189 -0.93129998 0.36379999 0.374989 0.33592701
0.47549999 0.416738 -0.73482102 -0.55489999 0.4921 -0.67079997 0.359364 0.25780499
0.78867298 -0.80956203 0.081377 -0.0189 -0.93129998 0.36379999 0.374989 0.33592701
0.054267 -0.339802 -0.076356001 -0.3748 -0.87470001 -0.3073 0.312491 0.33592701
0.47549999 0.416738 -0.73482102 -0.55489999 0.4921 -0.67079997 0.359364 0.25780499
0.054267 -0.339802 -0.076356001 -0.3748 -0.87470001 -0.3073 0.312491 0.33592701
0.070096999 0.12880801 -0.42279601 -0.30039999 0.28729999 -0.9095 0.32030299 0.25780499
-0.30846301 -0.139052 0.42494899 -0.95179999 -0.083300002 0.29519999 0.30467799 0.093746997
0.070096999 0.12880801 -0.42279601 -0.99989998 0.0063999998 -0.0129 0.32030299 0.25780499
0.054267 -0.339802 -0.076356001 -0.85000002 -0.1699 -0.49860001 0.312491 0.33592701
-0.30846301 -0.139052 0.42494899 -0.95179999 -0.083300002 0.29519999 0.30467799 0.093746997
0.086616002 0.315788 0.176017 -0.88309997 0.42899999 -0.18979999 0.32030299 0.17186999
0.070096999 0.12880801 -0.42279601 -0.99989998 0.0063999998 -0.0129 0.32030299 0.25780499
0.086616002 0.315788 0.176017 0.91079998 -0.35859999 0.2045 0.32030299 0.17186999
0.054267 -0.339802 -0.076356001 0.88190001 -0.048599999 0.46880001 0.312491 0.33592701
0.070096999 0.12880801 -0.42279601 0.67180002 -0.45359999 0.58560002 0.32030299 0.25780499
0.086616002 0.315788 0.176017 0.91079998 -0.35859999 0.2045 0.32030299 0.17186999
-0.30846301 -0.139052 0.42494899 0.7026 -0.68660003 0.1868 0.30467799 0.093746997
0.054267 -0.339802 -0.076356001 0.88190001 -0.048599999 0.46880001 0.312491 0.33592701
3.4117489 0.25556701 0.94919801 -0.13410001 0.077399999 0.98790002 0.53126401 0.132809
3.7965031 -0.248602 0.63258398 0.2816 -0.85839999 -0.4289 0.53126401 0.28905401
3.5824451 0.276788 0.27295199 0.97500002 0.087499999 0.2042 0.53126401 0.218743
3 0 1 2
3 3 4 5
3 6 7 8
3 9 10 11
3 12 13 14
3 15 16 17
3 18 19 20
3 21 22 23
3 24 25 26
3 27 28 29
3 30 31 32
3 33 34 35
3 36 37 38
3 39 40 41
3 42 43 44
3 45 46 47
3 48 49 50
3 51 52 53
3 54 55 56
3 57 58 59
