ply
format ascii 1.0
comment Created by Open Asset Import Library - http://assimp.sf.net (v5.0.1588609223)
element vertex 78
property float x
property float y
property float z
property float nx
property float ny
property float nz
property float s
property float t
element face 26
property list uchar int vertex_index
end_header
0.051545002 0.14644299 -0.36993599 -0.63080001 0.2577 -0.73189998 0.53126401 0.218743
-0.119151 0.125223 0.30631101 -0.50880003 0.375 0.77490002 0.53126401 0.132809
0.81210703 0.28295299 0.624071 -0.73030001 0.51800001 0.44530001 0.58595002 0.124996
0.051545002 0.14644299 -0.36993599 -0.63080001 0.2577 -0.73189998 0.53126401 0.218743
0.81210703 0.28295299 0.624071 -0.73030001 0.51800001 0.44530001 0.58595002 0.124996
1.004827 0.425203 -0.39001101 -0.6261 0.41280001 -0.66149998 0.58595002 0.226556
0.051545002 0.14644299 -0.36993599 -0.63080001 0.2577 -0.73189998 0.53126401 0.218743
1.004827 0.425203 -0.39001101 -0.6261 0.41280001 -0.66149998 0.58595002 0.226556
0.26560301 -0.37894601 -0.010304 -0.42039999 -0.8506 -0.3159 0.53126401 0.28905401
0.26560301 -0.37894601 -0.010304 -0.42039999 -0.8506 -0.3159 0.53126401 0.054685999
0.922921 -0.42024601 0.24436399 -0.65420002 -0.75590003 -0.025699999 0.58595002 0.054685999
-0.119151 0.125223 0.30631101 -0.50880003 0.375 0.77490002 0.53126401 0.132809
-0.119151 0.125223 0.30631101 -0.50880003 0.375 0.77490002 0.53126401 0.132809
0.922921 -0.42024601 0.24436399 -0.65420002 -0.75590003 -0.025699999 0.58595002 0.054685999
0.81210703 0.28295299 0.624071 -0.73030001 0.51800001 0.44530001 0.58595002 0.124996
1.004827 0.425203 -0.39001101 -0.6261 0.41280001 -0.66149998 0.58595002 0.226556
0.922921 -0.42024601 0.24436399 -0.65420002 -0.75590003 -0.025699999 0.58595002 0.28905401
0.26560301 -0.37894601 -0.010304 -0.42039999 -0.8506 -0.3159 0.53126401 0.28905401
2.5149431 0.43667299 0.82310098 0.3434 0.92799997 -0.14470001 0.72657102 0.109372
1.004827 0.425203 -0.39001101 -0.6261 0.41280001 -0.66149998 0.60157502 0.179682
0.81210703 0.28295299 0.624071 -0.73030001 0.51800001 0.44530001 0.60157502 0.109372
2.5149431 0.43667299 0.82310098 0.3434 0.92799997 -0.14470001 0.72657102 0.109372
2.468827 0.346044 -0.403777 0.79250002 -0.55580002 -0.25119999 0.72657102 0.179682
1.004827 0.425203 -0.39001101 -0.6261 0.41280001 -0.66149998 0.60157502 0.179682
2.5149431 0.43667299 0.82310098 0.3434 0.92799997 -0.14470001 0.72657102 0.109372
0.81210703 0.28295299 0.624071 -0.73030001 0.51800001 0.44530001 0.60157502 0.109372
1.4529049 -0.223517 0.94699401 -0.0088999998 0.50629997 0.86229998 0.65626103 0.046874002
2.5149431 0.43667299 0.82310098 0.3434 0.92799997 -0.14470001 0.72657102 0.109372
1.4529049 -0.223517 0.94699401 -0.0088999998 0.50629997 0.86229998 0.65626103 0.046874002
2.196949 -0.27169701 0.92290401 0.79699999 -0.40220001 0.45070001 0.73438299 0.070309997
1.004827 0.425203 -0.39001101 -0.6261 0.41280001 -0.66149998 0.60157502 0.179682
2.468827 0.346044 -0.403777 0.79250002 -0.55580002 -0.25119999 0.72657102 0.179682
2.109535 0.026564 -0.69859499 -0.38119999 -0.18179999 -0.90640002 0.71094602 0.210931
1.004827 0.425203 -0.39001101 -0.6261 0.41280001 -0.66149998 0.60157502 0.179682
2.109535 0.026564 -0.69859499 -0.38119999 -0.18179999 -0.90640002 0.71094602 0.210931
0.922921 -0.42024601 0.24436399 -0.65420002 -0.75590003 -0.025699999 0.60157502 0.296866
0.81210703 0.28295299 0.624071 -0.73030001 0.51800001 0.44530001 0.60157502 0.109372
0.922921 -0.42024601 0.24436399 -0.65420002 -0.75590003 -0.025699999 0.60157502 0.0078119999
1.4529049 -0.223517 0.94699401 -0.0088999998 0.50629997 0.86229998 0.65626103 0.046874002
2.196949 -0.27169701 0.92290401 0.79699999 -0.40220001 0.45070001 0.73438299 0.070309997
1.4529049 -0.223517 0.94699401 -0.0088999998 0.50629997 0.86229998 0.65626103 0.046874002
1.948475 -0.56249601 1.353085 0.091300003 0.1706 0.98110002 0.71094602 0.031249
0.922921 -0.42024601 0.24436399 -0.65420002 -0.75590003 -0.025699999 0.60157502 0.296866
2.109535 0.026564 -0.69859499 -0.38119999 -0.18179999 -0.90640002 0.71094602 0.210931
1.7956741 -0.088726997 0.390625 0.1363 -0.8901 -0.43489999 0.703134 0.28905401
0.922921 -0.42024601 0.24436399 -0.65420002 -0.75590003 -0.025699999 0.60157502 0.296866
1.7956741 -0.088726997 0.390625 0.1363 -0.8901 -0.43489999 0.703134 0.28905401
1.909243 -0.67032599 0.79786402 0.54210001 -0.7385 -0.40090001 0.72657102 0.32030299
0.922921 -0.42024601 0.24436399 -0.65420002 -0.75590003 -0.025699999 0.60157502 0.296866
1.909243 -0.67032599 0.79786402 0.54210001 -0.7385 -0.40090001 0.72657102 0.32030299
1.574733 -0.97489703 1.136274 -0.67000002 -0.57959998 0.4639 0.72657102 0.35155201
0.922921 -0.42024601 0.24436399 -0.65420002 -0.75590003 -0.025699999 0.60157502 0.0078119999
1.574733 -0.97489703 1.136274 -0.67000002 -0.57959998 0.4639 0.71094602 0.0078119999
1.4529049 -0.223517 0.94699401 -0.0088999998 0.50629997 0.86229998 0.65626103 0.046874002
1.4529049 -0.223517 0.94699401 -0.0088999998 0.50629997 0.86229998 0.65626103 0.046874002
1.574733 -0.97489703 1.136274 -0.67000002 -0.57959998 0.4639 0.71094602 0.0078119999
1.948475 -0.56249601 1.353085 0.091300003 0.1706 0.98110002 0.71094602 0.031249
1.909243 -0.67032599 0.79786402 0.54210001 -0.7385 -0.40090001 0.72657102 0.32030299
1.7956741 -0.088726997 0.390625 0.1363 -0.8901 -0.43489999 0.703134 0.28905401
2.196949 -0.27169701 0.92290401 0.79699999 -0.40220001 0.45070001 0.74219501 0.312491
1.948475 -0.56249601 1.353085 -0.66949999 0.63590002 0.38389999 0.71094602 0.031249
1.909243 -0.67032599 0.79786402 -0.86680001 0.41139999 -0.2818 0.72657102 0.32030299
1.574733 -0.97489703 1.136274 -0.68129998 0.72259998 -0.1175 0.72657102 0.35155201
2.468827 0.346044 -0.403777 0.79250002 -0.55580002 -0.25119999 0.72657102 0.179682
2.5149431 0.43667299 0.82310098 0.3434 0.92799997 -0.14470001 0 0
1.7956741 -0.088726997 0.390625 0.1363 -0.8901 -0.43489999 0.703134 0.28905401
2.5149431 0.43667299 0.82310098 0.3434 0.92799997 -0.14470001 0.72657102 0.109372
2.196949 -0.27169701 0.92290401 0.79699999 -0.40220001 0.45070001 0.73438299 0.070309997
1.7956741 -0.088726997 0.390625 0.1363 -0.8901 -0.43489999 0.703134 0.28905401
2.468827 0.346044 -0.403777 0.79250002 -0.55580002 -0.25119999 0.72657102 0.179682
1.7956741 -0.088726997 0.390625 0.1363 -0.8901 -0.43489999 0.703134 0.28905401
2.109535 0.026564 -0.69859499 -0.38119999 -0.18179999 -0.90640002 0.71094602 0.210931
-0.119151 0.125223 0.30631101 -0.50880003 0.375 0.77490002 0.53126401 0.132809
0.051545002 0.14644299 -0.36993599 -0.63080001 0.2577 -0.73189998 0.53126401 0.218743
0.26560301 -0.37894601 -0.010304 -0.42039999 -0.8506 -0.3159 0.53126401 0.28905401
1.948475 -0.56249601 1.353085 -0.66949999 0.63590002 0.38389999 0.71094602 0.031249
2.196949 -0.27169701 0.92290401 -0.81029999 0.38240001 0.44400001 0.73438299 0.070309997
1.909243 -0.67032599 0.79786402 -0.86680001 0.41139999 -0.2818 0.72657102 0.32030299
3 0 1 2
3 3 4 5
3 6 7 8
3 9 10 11
3 12 13 14
3 15 16 17
3 18 19 20
3 21 22 23
3 24 25 26
3 27 28 29
3 30 31 32
3 33 34 35
3 36 37 38
3 39 40 41
3 42 43 44
3 45 46 47
3 48 49 50
3 51 52 53
3 54 55 56
3 57 58 59
3 60 61 62
3 63 64 65
3 66 67 68
3 69 70 71
3 72 73 74
3 75 76 77
