ply
format ascii 1.0
comment Created by Open Asset Import Library - http://assimp.sf.net (v5.0.1588609223)
element vertex 99
property float x
property float y
property float z
property float nx
property float ny
property float nz
property float s
property float t
element face 33
property list uchar int vertex_index
end_header
0.32381499 -3.7541609 -0.061663002 0.16419999 -0.9479 -0.2728 0.36717701 0.77344501
-0.35931399 -3.6182241 -0.31059501 -0.3479 -0.1155 -0.93040001 0.460924 0.78125697
0.096105002 -1.900939 -0.69431698 0.42449999 -0.2148 -0.87959999 0.41405001 0.89844102
0.32381499 -3.7541609 -0.061663002 0.16419999 -0.9479 -0.2728 0.36717701 0.77344501
0.096105002 -1.900939 -0.69431698 0.42449999 -0.2148 -0.87959999 0.41405001 0.89844102
0.75686502 -1.83383 0.033550002 0.99129999 -0.0449 -0.1235 0.36717701 0.89062899
0.32381499 -3.7541609 -0.061663002 0.16419999 -0.9479 -0.2728 0.36717701 0.77344501
0.75686502 -1.83383 0.033550002 0.99129999 -0.0449 -0.1235 0.36717701 0.89062899
0.176406 -3.7312179 0.60827303 0.7274 -0.2185 0.6505 0.312491 0.78125697
0.32381499 -3.7541609 -0.061663002 0.16419999 -0.9479 -0.2728 0.36717701 0.77344501
0.176406 -3.7312179 0.60827303 0.7274 -0.2185 0.6505 0.312491 0.78125697
0.152889 -4.6019058 0.543459 0.047800001 -0.96600002 0.25400001 0.312491 0.718759
0.096105002 -1.900939 -0.69431698 0.42449999 -0.2148 -0.87959999 0.41405001 0.89844102
-0.040979002 -0.22495 -0.87900901 -0.075000003 0.36700001 -0.92720002 0.41405001 0.99218798
0.75686502 -1.83383 0.033550002 0.99129999 -0.0449 -0.1235 0.36717701 0.89062899
0.096105002 -1.900939 -0.69431698 0.42449999 -0.2148 -0.87959999 0.41405001 0.89844102
-0.35931399 -3.6182241 -0.31059501 -0.3479 -0.1155 -0.93040001 0.460924 0.78125697
-0.67650098 -1.858494 -0.72529 -0.26699999 -0.2014 -0.94239998 0.46873599 0.89844102
0.096105002 -1.900939 -0.69431698 0.42449999 -0.2148 -0.87959999 0.41405001 0.89844102
-0.67650098 -1.858494 -0.72529 -0.26699999 -0.2014 -0.94239998 0.46873599 0.89844102
-0.040979002 -0.22495 -0.87900901 -0.075000003 0.36700001 -0.92720002 0.41405001 0.99218798
0.152889 -4.6019058 0.543459 0.047800001 -0.96600002 0.25400001 0.312491 0.718759
0.176406 -3.7312179 0.60827303 0.7274 -0.2185 0.6505 0.312491 0.78125697
-0.45337999 -3.78284 0.40408 -0.1472 -0.82560003 0.54470003 0.234368 0.77344501
0.75686502 -1.83383 0.033550002 0.99129999 -0.0449 -0.1235 0.36717701 0.89062899
-0.040979002 -0.22495 -0.87900901 -0.075000003 0.36700001 -0.92720002 0.41405001 0.99218798
0.516536 0.28381199 0.135074 0.95410001 0.27860001 -0.1098 0.34373999 0.99218798
0.75686502 -1.83383 0.033550002 0.99129999 -0.0449 -0.1235 0.36717701 0.89062899
0.298004 -1.984681 0.77690399 0.4824 0.020199999 0.8757 0.312491 0.88281602
0.176406 -3.7312179 0.60827303 0.7274 -0.2185 0.6505 0.312491 0.78125697
0.75686502 -1.83383 0.033550002 0.99129999 -0.0449 -0.1235 0.36717701 0.89062899
0.516536 0.28381199 0.135074 0.95410001 0.27860001 -0.1098 0.34373999 0.99218798
0.298004 -1.984681 0.77690399 0.4824 0.020199999 0.8757 0.312491 0.88281602
-0.35931399 -3.6182241 -0.31059501 -0.3479 -0.1155 -0.93040001 0.460924 0.78125697
-0.45337999 -3.78284 0.40408 -0.1472 -0.82560003 0.54470003 0.54688901 0.77344501
-0.67650098 -1.858494 -0.72529 -0.26699999 -0.2014 -0.94239998 0.46873599 0.89844102
-0.45337999 -3.78284 0.40408 -0.1472 -0.82560003 0.54470003 0.234368 0.77344501
0.176406 -3.7312179 0.60827303 0.7274 -0.2185 0.6505 0.312491 0.78125697
-0.59333199 -1.840713 0.620318 -0.58200002 -0.64910001 0.48980001 0.234368 0.89062899
0.176406 -3.7312179 0.60827303 0.7274 -0.2185 0.6505 0.312491 0.78125697
0.298004 -1.984681 0.77690399 0.4824 0.020199999 0.8757 0.312491 0.88281602
-0.59333199 -1.840713 0.620318 -0.58200002 -0.64910001 0.48980001 0.234368 0.89062899
-0.040979002 -0.22495 -0.87900901 -0.075000003 0.36700001 -0.92720002 0.41405001 0.99218798
-0.67650098 -1.858494 -0.72529 -0.26699999 -0.2014 -0.94239998 0.46873599 0.89844102
-0.56981599 -0.40906799 -0.64556301 -0.48539999 0.79629999 -0.36109999 0.492203 0.99218798
0.516536 0.28381199 0.135074 0.95410001 0.27860001 -0.1098 0.34373999 0.99218798
0.082340002 0.152463 0.58475602 0.52469999 0.1133 0.84369999 0.28124201 0.99218798
0.298004 -1.984681 0.77690399 0.4824 0.020199999 0.8757 0.312491 0.88281602
0.298004 -1.984681 0.77690399 0.4824 0.020199999 0.8757 0.312491 0.88281602
0.082340002 0.152463 0.58475602 0.52469999 0.1133 0.84369999 0.28124201 0.99218798
-0.59333199 -1.840713 0.620318 -0.58200002 -0.64910001 0.48980001 0.234368 0.89062899
-0.45337999 -3.78284 0.40408 -0.1472 -0.82560003 0.54470003 0.54688901 0.77344501
-0.59333199 -1.840713 0.620318 -0.58200002 -0.64910001 0.48980001 0.54688901 0.89062899
-0.67650098 -1.858494 -0.72529 -0.26699999 -0.2014 -0.94239998 0.46873599 0.89844102
-0.67650098 -1.858494 -0.72529 -0.26699999 -0.2014 -0.94239998 0.46873599 0.89844102
-0.59333199 -1.840713 0.620318 -0.58200002 -0.64910001 0.48980001 0.54688901 0.89062899
-0.56981599 -0.40906799 -0.64556301 -0.48539999 0.79629999 -0.36109999 0.492203 0.99218798
0.082340002 0.152463 0.58475602 0.52469999 0.1133 0.84369999 0.28124201 0.99218798
-0.42699501 -0.32589999 0.471762 -0.78850001 0.5668 0.23890001 0.234368 0.99218798
-0.59333199 -1.840713 0.620318 -0.58200002 -0.64910001 0.48980001 0.234368 0.89062899
-0.59333199 -1.840713 0.620318 -0.58200002 -0.64910001 0.48980001 0.54688901 0.89062899
-0.42699501 -0.32589999 0.471762 -0.78850001 0.5668 0.23890001 0.54688901 0.99218798
-0.56981599 -0.40906799 -0.64556301 -0.48539999 0.79629999 -0.36109999 0.492203 0.99218798
0.32381499 -3.7541609 -0.061663002 0.16419999 -0.9479 -0.2728 0.36717701 0.77344501
-0.45337999 -3.78284 0.40408 -0.1472 -0.82560003 0.54470003 0.54688901 0.77344501
-0.35931399 -3.6182241 -0.31059501 -0.3479 -0.1155 -0.93040001 0.460924 0.78125697
0.32381499 -3.7541609 -0.061663002 0.16419999 -0.9479 -0.2728 0.36717701 0.77344501
0.152889 -4.6019058 0.543459 0.047800001 -0.96600002 0.25400001 0.312491 0.718759
-0.45337999 -3.78284 0.40408 -0.8743 -0.1963 -0.44389999 0.234368 0.77344501
-0.42699501 -0.32589999 0.471762 -0.87599999 0.2332 0.42219999 0.234368 0.99218798
0.152889 -4.6019058 0.543459 -0.079999998 0.0014 0.99680001 0 0
0.082340002 0.152463 0.58475602 0.5772 -0.028999999 0.8161 0.28124201 0.99218798
0.152889 -4.6019058 0.543459 -0.079999998 0.0014 0.99680001 0 0
0.516536 0.28381199 0.135074 0.8502 -0.1125 0.51419997 0.34373999 0.99218798
0.082340002 0.152463 0.58475602 0.5772 -0.028999999 0.8161 0.28124201 0.99218798
0.32381499 -3.7541609 -0.061663002 -0.1078 -0.70920002 -0.69669998 0.36717701 0.77344501
-0.56981599 -0.40906799 -0.64556301 -0.54519999 0.54320002 -0.63849998 0.492203 0.99218798
-0.040979002 -0.22495 -0.87900901 -0.020099999 -0.1305 -0.99129999 0.41405001 0.99218798
-0.56981599 -0.40906799 -0.64556301 -0.65359998 0.74550003 0.13070001 0.492203 0.99218798
-0.42699501 -0.32589999 0.471762 -0.99550003 -0.064800002 -0.068499997 0.54688901 0.99218798
0.082340002 0.152463 0.58475602 -0.60750002 0.77560002 -0.17120001 0.28124201 0.99218798
-0.56981599 -0.40906799 -0.64556301 -0.54519999 0.54320002 -0.63849998 0.492203 0.99218798
-0.45337999 -3.78284 0.40408 -0.9569 0.0060999999 0.29030001 0 0
-0.42699501 -0.32589999 0.471762 -0.87599999 0.2332 0.42219999 0.54688901 0.99218798
-0.45337999 -3.78284 0.40408 -0.9569 0.0060999999 0.29030001 0.234368 0.77344501
0.152889 -4.6019058 0.543459 -0.079999998 0.0014 0.99680001 0.312491 0.718759
-0.42699501 -0.32589999 0.471762 -0.87599999 0.2332 0.42219999 0.234368 0.99218798
0.32381499 -3.7541609 -0.061663002 -0.1078 -0.70920002 -0.69669998 0.36717701 0.77344501
-0.040979002 -0.22495 -0.87900901 -0.020099999 -0.1305 -0.99129999 0.41405001 0.99218798
0.516536 0.28381199 0.135074 0.77399999 0.16500001 -0.61129999 0.34373999 0.99218798
-0.56981599 -0.40906799 -0.64556301 -0.65359998 0.74550003 0.13070001 0 0
0.082340002 0.152463 0.58475602 -0.60750002 0.77560002 -0.17120001 0.28124201 0.99218798
0.516536 0.28381199 0.135074 -0.36480001 0.9296 0.052299999 0.34373999 0.99218798
-0.56981599 -0.40906799 -0.64556301 -0.65359998 0.74550003 0.13070001 0 0
0.516536 0.28381199 0.135074 -0.36480001 0.9296 0.052299999 0.34373999 0.99218798
-0.040979002 -0.22495 -0.87900901 -0.62819999 0.3556 -0.69209999 0.41405001 0.99218798
0.32381499 -3.7541609 -0.061663002 -0.1078 -0.70920002 -0.69669998 0.36717701 0.77344501
-0.45337999 -3.78284 0.40408 -0.9569 0.0060999999 0.29030001 0.54688901 0.77344501
-0.56981599 -0.40906799 -0.64556301 -0.54519999 0.54320002 -0.63849998 0.492203 0.99218798
3 0 1 2
3 3 4 5
3 6 7 8
3 9 10 11
3 12 13 14
3 15 16 17
3 18 19 20
3 21 22 23
3 24 25 26
3 27 28 29
3 30 31 32
3 33 34 35
3 36 37 38
3 39 40 41
3 42 43 44
3 45 46 47
3 48 49 50
3 51 52 53
3 54 55 56
3 57 58 59
3 60 61 62
3 63 64 65
3 66 67 68
3 69 70 71
3 72 73 74
3 75 76 77
3 78 79 80
3 81 82 83
3 84 85 86
3 87 88 89
3 90 91 92
3 93 94 95
3 96 97 98
