ply
format ascii 1.0
comment Created by Open Asset Import Library - http://assimp.sf.net (v5.0.1588609223)
element vertex 102
property float x
property float y
property float z
property float nx
property float ny
property float nz
property float s
property float t
element face 34
property list uchar int vertex_index
end_header
-3.4341919 -0.54137403 0.233487 -0.68360001 -0.3107 0.66039997 0.30467799 0.093746997
-1.343853 0.187066 0.22603101 -0.72869998 0.57569999 0.37090001 0.164058 0.17186999
-3.829272 -0.086534001 -0.015445 -0.88980001 0.32620001 0.31920001 0.32030299 0.17186999
-3.4341919 -0.54137403 0.233487 -0.68360001 -0.3107 0.66039997 0.30467799 0.093746997
-0.79597402 -0.42723399 0.360248 -0.23720001 -0.59420002 0.76849997 0.14062101 0.085934997
-1.343853 0.187066 0.22603101 -0.72869998 0.57569999 0.37090001 0.164058 0.17186999
-3.4341919 -0.54137403 0.233487 -0.68360001 -0.3107 0.66039997 0.30467799 0.093746997
-1.3617489 -0.76793402 -0.193827 0.1858 -0.9824 -0.017000001 0.179682 0.0078119999
-0.79597402 -0.42723399 0.360248 -0.23720001 -0.59420002 0.76849997 0.14062101 0.085934997
-3.4341919 -0.54137403 0.233487 -0.68360001 -0.3107 0.66039997 0.30467799 0.093746997
-3.796922 -0.74212402 -0.267818 -0.043200001 -0.39899999 -0.91589999 0.312491 0.0078119999
-1.3617489 -0.76793402 -0.193827 0.1858 -0.9824 -0.017000001 0.179682 0.0078119999
-1.343853 0.187066 0.22603101 -0.72869998 0.57569999 0.37090001 0.164058 0.17186999
-0.79597402 -0.42723399 0.360248 -0.23720001 -0.59420002 0.76849997 0.14062101 0.085934997
-0.184083 -0.023434 0.72618902 -0.0418 0.1788 0.98299998 0.078123003 0.132809
-1.343853 0.187066 0.22603101 -0.72869998 0.57569999 0.37090001 0.164058 0.17186999
-3.812752 -0.273514 -0.61425799 0.020300001 0.54100001 -0.84079999 0.32030299 0.25780499
-3.829272 -0.086534001 -0.015445 -0.88980001 0.32620001 0.31920001 0.32030299 0.17186999
-1.343853 0.187066 0.22603101 -0.72869998 0.57569999 0.37090001 0.164058 0.17186999
-0.184083 -0.023434 0.72618902 -0.0418 0.1788 0.98299998 0.078123003 0.132809
-0.75811702 0.68550599 0.158923 -0.45280001 0.82499999 0.3382 0.109372 0.195307
-1.343853 0.187066 0.22603101 -0.72869998 0.57569999 0.37090001 0.164058 0.17186999
-1.137365 -0.125534 -0.46856901 -0.77869999 0.1279 -0.6142 0.132809 0.25780499
-3.812752 -0.273514 -0.61425799 0.020300001 0.54100001 -0.84079999 0.32030299 0.25780499
-1.343853 0.187066 0.22603101 -0.72869998 0.57569999 0.37090001 0.164058 0.17186999
-0.75811702 0.68550599 0.158923 -0.45280001 0.82499999 0.3382 0.109372 0.195307
-1.137365 -0.125534 -0.46856901 -0.77869999 0.1279 -0.6142 0.132809 0.25780499
-1.3617489 -0.76793402 -0.193827 0.1858 -0.9824 -0.017000001 0.179682 0.0078119999
-0.250159 -0.73180401 0.43768099 -0.53460002 -0.26809999 0.80140001 0.093746997 0.039060999
-0.79597402 -0.42723399 0.360248 -0.23720001 -0.59420002 0.76849997 0.14062101 0.085934997
-1.3617489 -0.76793402 -0.193827 0.1858 -0.9824 -0.017000001 0.179682 0.0078119999
-0.51928002 -1.016294 -0.33263201 0.38789999 -0.80229998 -0.45370001 0.093746997 0.0078119999
-0.250159 -0.73180401 0.43768099 -0.53460002 -0.26809999 0.80140001 0.093746997 0.039060999
-0.79597402 -0.42723399 0.360248 -0.23720001 -0.59420002 0.76849997 0.14062101 0.085934997
-0.250159 -0.73180401 0.43768099 -0.53460002 -0.26809999 0.80140001 0.093746997 0.039060999
-0.184083 -0.023434 0.72618902 -0.0418 0.1788 0.98299998 0.078123003 0.132809
-1.137365 -0.125534 -0.46856901 -0.77869999 0.1279 -0.6142 0.132809 0.25780499
-0.75811702 0.68550599 0.158923 -0.45280001 0.82499999 0.3382 0.109372 0.195307
-0.40364799 0.37118599 -0.64408302 -0.32069999 0.50690001 -0.80010003 0.078123003 0.249992
-1.137365 -0.125534 -0.46856901 -0.77869999 0.1279 -0.6142 0.132809 0.25780499
-1.3617489 -0.76793402 -0.193827 0.1858 -0.9824 -0.017000001 0.179682 0.33592701
-3.812752 -0.273514 -0.61425799 0.020300001 0.54100001 -0.84079999 0.32030299 0.25780499
-1.137365 -0.125534 -0.46856901 -0.77869999 0.1279 -0.6142 0.132809 0.25780499
-0.40364799 0.37118599 -0.64408302 -0.32069999 0.50690001 -0.80010003 0.078123003 0.249992
-0.067073002 -0.38995299 -0.83106899 -0.4878 -0.15090001 -0.85979998 0.078123003 0.30467799
-1.137365 -0.125534 -0.46856901 -0.77869999 0.1279 -0.6142 0.132809 0.25780499
-0.51928002 -1.016294 -0.33263201 0.38789999 -0.80229998 -0.45370001 0.093746997 0.33592701
-1.3617489 -0.76793402 -0.193827 0.1858 -0.9824 -0.017000001 0.179682 0.33592701
-1.137365 -0.125534 -0.46856901 -0.77869999 0.1279 -0.6142 0.132809 0.25780499
-0.067073002 -0.38995299 -0.83106899 -0.4878 -0.15090001 -0.85979998 0.078123003 0.30467799
-0.51928002 -1.016294 -0.33263201 0.38789999 -0.80229998 -0.45370001 0.093746997 0.33592701
-0.184083 -0.023434 0.72618902 -0.0418 0.1788 0.98299998 0.078123003 0.132809
-0.105619 0.85069698 0.168101 0.0057000001 0.99330002 0.1157 0.054685999 0.20311899
-0.75811702 0.68550599 0.158923 -0.45280001 0.82499999 0.3382 0.109372 0.195307
-0.75811702 0.68550599 0.158923 -0.45280001 0.82499999 0.3382 0.109372 0.195307
-0.105619 0.85069698 0.168101 0.0057000001 0.99330002 0.1157 0.054685999 0.20311899
-0.40364799 0.37118599 -0.64408302 -0.32069999 0.50690001 -0.80010003 0.078123003 0.249992
-3.812752 -0.273514 -0.61425799 0.020300001 0.54100001 -0.84079999 0.32030299 0.25780499
-1.3617489 -0.76793402 -0.193827 0.1858 -0.9824 -0.017000001 0.179682 0.33592701
-3.796922 -0.74212402 -0.267818 -0.043200001 -0.39899999 -0.91589999 0.312491 0.33592701
-0.067073002 -0.38995299 -0.83106899 -0.4878 -0.15090001 -0.85979998 0.078123003 0.30467799
-0.40364799 0.37118599 -0.64408302 -0.32069999 0.50690001 -0.80010003 0.078123003 0.249992
0.48080599 0.48933601 -0.67505699 -0.2299 0.66979998 -0.70599997 0.031249 0.26561701
-0.40364799 0.37118599 -0.64408302 -0.32069999 0.50690001 -0.80010003 0.078123003 0.249992
-0.105619 0.85069698 0.168101 0.0057000001 0.99330002 0.1157 0.054685999 0.20311899
0.48080599 0.48933601 -0.67505699 -0.2299 0.66979998 -0.70599997 0.031249 0.26561701
-3.829272 -0.086534001 -0.015445 -0.74610001 0.3418 -0.57139999 0.32030299 0.17186999
-3.796922 -0.74212402 -0.267818 -0.95279998 0.0114 0.3035 0.312491 0.33592701
-3.4341919 -0.54137403 0.233487 -0.71969998 -0.62959999 0.29269999 0.30467799 0.093746997
-0.067073002 -0.38995299 -0.83106899 -0.82730001 0.54329997 -0.1428 0.078123003 0.30467799
-0.51928002 -1.016294 -0.33263201 -0.81 0.1277 0.57239997 0.093746997 0.0078119999
-0.184083 -0.023434 0.72618902 -0.89560002 0.4395 -0.068099998 0.078123003 0.132809
-0.250159 -0.73180401 0.43768099 -0.71499997 -0.65979999 0.23119999 0.093746997 0.039060999
-0.184083 -0.023434 0.72618902 -0.89560002 0.4395 -0.068099998 0.078123003 0.132809
-0.51928002 -1.016294 -0.33263201 -0.81 0.1277 0.57239997 0.093746997 0.0078119999
-0.067073002 -0.38995299 -0.83106899 0.82789999 -0.41049999 0.38209999 0.078123003 0.30467799
-0.184083 -0.023434 0.72618902 0.98030001 0.1179 0.1585 0.078123003 0.132809
-0.250159 -0.73180401 0.43768099 0.86040002 -0.46219999 -0.2145 0.093746997 0.039060999
-0.105619 0.85069698 0.168101 0.74360001 0.3601 0.56330001 0.054685999 0.20311899
-0.184083 -0.023434 0.72618902 0.91149998 -0.1918 0.36379999 0.078123003 0.132809
0.48080599 0.48933601 -0.67505699 0.90460002 -0.3206 0.28099999 0.031249 0.26561701
-0.105619 0.85069698 0.168101 -0.85680002 0.48199999 -0.1831 0.054685999 0.20311899
0.48080599 0.48933601 -0.67505699 -0.68669999 0.49430001 -0.53299999 0.031249 0.26561701
-0.067073002 -0.38995299 -0.83106899 -0.79729998 0.4835 -0.36129999 0.078123003 0.30467799
-0.067073002 -0.38995299 -0.83106899 0.82789999 -0.41049999 0.38209999 0.078123003 0.30467799
-0.250159 -0.73180401 0.43768099 0.86040002 -0.46219999 -0.2145 0.093746997 0.039060999
-0.51928002 -1.016294 -0.33263201 0.42219999 -0.83890003 0.3436 0.093746997 0.33592701
-0.067073002 -0.38995299 -0.83106899 0.88990003 -0.45289999 0.054900002 0.078123003 0.30467799
0.48080599 0.48933601 -0.67505699 0.90460002 -0.3206 0.28099999 0 0
-0.184083 -0.023434 0.72618902 0.91149998 -0.1918 0.36379999 0.078123003 0.132809
-3.4341919 -0.54137403 0.233487 0.96850002 -0.0139 0.24860001 0.30467799 0.093746997
-3.796922 -0.74212402 -0.267818 0.89740002 -0.20999999 -0.38789999 0.312491 0.33592701
-3.812752 -0.273514 -0.61425799 0.93489999 0.30590001 -0.17990001 0.32030299 0.25780499
-3.4341919 -0.54137403 0.233487 0.96850002 -0.0139 0.24860001 0.30467799 0.093746997
-3.812752 -0.273514 -0.61425799 0.93489999 0.30590001 -0.17990001 0.32030299 0.25780499
-3.829272 -0.086534001 -0.015445 0.68779999 0.23999999 0.68510002 0.32030299 0.17186999
-3.829272 -0.086534001 -0.015445 -0.74610001 0.3418 -0.57139999 0.32030299 0.17186999
-3.812752 -0.273514 -0.61425799 -0.87080002 -0.37970001 0.3125 0.32030299 0.25780499
-3.796922 -0.74212402 -0.267818 -0.95279998 0.0114 0.3035 0.312491 0.33592701
-0.067073002 -0.38995299 -0.83106899 -0.79729998 0.4835 -0.36129999 0.078123003 0.30467799
-0.184083 -0.023434 0.72618902 -0.98000002 -0.1848 0.074000001 0.078123003 0.132809
-0.105619 0.85069698 0.168101 -0.85680002 0.48199999 -0.1831 0.054685999 0.20311899
3 0 1 2
3 3 4 5
3 6 7 8
3 9 10 11
3 12 13 14
3 15 16 17
3 18 19 20
3 21 22 23
3 24 25 26
3 27 28 29
3 30 31 32
3 33 34 35
3 36 37 38
3 39 40 41
3 42 43 44
3 45 46 47
3 48 49 50
3 51 52 53
3 54 55 56
3 57 58 59
3 60 61 62
3 63 64 65
3 66 67 68
3 69 70 71
3 72 73 74
3 75 76 77
3 78 79 80
3 81 82 83
3 84 85 86
3 87 88 89
3 90 91 92
3 93 94 95
3 96 97 98
3 99 100 101
