ply
format ascii 1.0
comment Created by Open Asset Import Library - http://assimp.sf.net (v5.0.1588609223)
element vertex 39
property float x
property float y
property float z
property float nx
property float ny
property float nz
property float s
property float t
element face 13
property list uchar int vertex_index
end_header
-0.33182099 0.263623 0.673796 0.21359999 0.83310002 0.51029998 0.72657102 0.109372
-0.285705 0.172994 -0.55308098 -0.3529 0.76340002 -0.54089999 0.72657102 0.179682
-1.647141 -1.029217 0.76556802 -0.73629999 -0.2227 0.63889998 0.82031798 0.124996
-0.33182099 0.263623 0.673796 0.21359999 0.83310002 0.51029998 0.72657102 0.109372
-1.647141 -1.029217 0.76556802 -0.73629999 -0.2227 0.63889998 0.82031798 0.124996
-0.013828 -0.444747 0.77359903 0.5837 -0.2298 0.77880001 0.73438299 0.070309997
-1.647141 -1.029217 0.76556802 -0.73629999 -0.2227 0.63889998 0.82031798 0.124996
-0.285705 0.172994 -0.55308098 -0.3529 0.76340002 -0.54089999 0.72657102 0.179682
-1.078617 -1.059616 -0.54619902 -0.48899999 -0.7773 -0.39590001 0.79688102 0.210931
-0.285705 0.172994 -0.55308098 -0.3529 0.76340002 -0.54089999 0.72657102 0.179682
0.073587 -0.146486 -0.84789902 0.40959999 -0.22849999 -0.88319999 0.71094602 0.210931
-1.078617 -1.059616 -0.54619902 -0.48899999 -0.7773 -0.39590001 0.79688102 0.210931
-1.078617 -1.059616 -0.54619902 -0.48899999 -0.7773 -0.39590001 0.79688102 0.210931
0.073587 -0.146486 -0.84789902 0.40959999 -0.22849999 -0.88319999 0.71094602 0.210931
-1.647141 -1.029217 0.76556802 -0.73629999 -0.2227 0.63889998 0.82031798 0.30467799
0.073587 -0.146486 -0.84789902 0.40959999 -0.22849999 -0.88319999 0.71094602 0.210931
0.38744801 -0.26177701 0.241321 -0.1087 -0.9932 0.041099999 0.703134 0.28905401
-1.647141 -1.029217 0.76556802 -0.73629999 -0.2227 0.63889998 0.82031798 0.30467799
-0.013828 -0.444747 0.77359903 0.5837 -0.2298 0.77880001 0.74219501 0.312491
-1.647141 -1.029217 0.76556802 -0.73629999 -0.2227 0.63889998 0.82031798 0.30467799
0.38744801 -0.26177701 0.241321 -0.1087 -0.9932 0.041099999 0.703134 0.28905401
-0.33182099 0.263623 0.673796 0.1003 0.75330001 0.64999998 0.72657102 0.109372
-0.013828 -0.444747 0.77359903 0.2067 0.87480003 0.4382 0.74219501 0.312491
0.38744801 -0.26177701 0.241321 0.7396 0.5887 -0.3263 0.703134 0.28905401
0.38744801 -0.26177701 0.241321 -0.2026 -0.92809999 -0.3123 0.703134 0.28905401
-0.013828 -0.444747 0.77359903 -0.20389999 -0.62989998 -0.74940002 0.74219501 0.312491
0.073587 -0.146486 -0.84789902 -0.56349999 -0.73369998 -0.37959999 0.71094602 0.210931
-0.285705 0.172994 -0.55308098 0.35229999 0.91680002 -0.1881 0.72657102 0.179682
0.38744801 -0.26177701 0.241321 0.7396 0.5887 -0.3263 0.703134 0.28905401
0.073587 -0.146486 -0.84789902 0.66000003 0.64230001 -0.38960001 0.71094602 0.210931
-0.285705 0.172994 -0.55308098 -0.91869998 -0.17749999 -0.35299999 0.72657102 0.179682
0.073587 -0.146486 -0.84789902 -0.56349999 -0.73369998 -0.37959999 0.71094602 0.210931
-0.013828 -0.444747 0.77359903 -0.20389999 -0.62989998 -0.74940002 0.74219501 0.312491
-0.285705 0.172994 -0.55308098 0.35229999 0.91680002 -0.1881 0.72657102 0.179682
-0.33182099 0.263623 0.673796 0.1003 0.75330001 0.64999998 0.72657102 0.109372
0.38744801 -0.26177701 0.241321 0.7396 0.5887 -0.3263 0.703134 0.28905401
-0.285705 0.172994 -0.55308098 -0.91869998 -0.17749999 -0.35299999 0.72657102 0.179682
-0.013828 -0.444747 0.77359903 -0.20389999 -0.62989998 -0.74940002 0.74219501 0.312491
-0.33182099 0.263623 0.673796 -0.92830002 -0.1236 0.3506 0.72657102 0.109372
3 0 1 2
3 3 4 5
3 6 7 8
3 9 10 11
3 12 13 14
3 15 16 17
3 18 19 20
3 21 22 23
3 24 25 26
3 27 28 29
3 30 31 32
3 33 34 35
3 36 37 38
