ply
format ascii 1.0
comment Created by Open Asset Import Library - http://assimp.sf.net (v5.0.1588609223)
element vertex 78
property float x
property float y
property float z
property float nx
property float ny
property float nz
property float s
property float t
element face 26
property list uchar int vertex_index
end_header
0.50003499 -0.76940399 -0.55430299 0.59789997 0.35519999 -0.71859998 0.32030299 0.382801
0.283797 -0.122984 -0.355272 0.4445 0.6936 -0.56690001 0.296866 0.445299
0.28150299 -0.001386 0.229202 0.85339999 0.52020001 0.034699999 0.249993 0.445299
0.50003499 -0.76940399 -0.55430299 0.59789997 0.35519999 -0.71859998 0.32030299 0.382801
0.28150299 -0.001386 0.229202 0.85339999 0.52020001 0.034699999 0.249993 0.445299
0.50691801 -1.113549 0.183889 0.76660001 -0.57459998 0.28670001 0.26561701 0.35155201
0.50003499 -0.76940399 -0.55430299 0.59789997 0.35519999 -0.71859998 0.32030299 0.382801
-0.284042 -0.032931998 -0.199259 0.044 0.62910002 -0.77609998 0.249993 0.445299
0.283797 -0.122984 -0.355272 0.4445 0.6936 -0.56690001 0.296866 0.445299
0.50003499 -0.76940399 -0.55430299 0.59789997 0.35519999 -0.71859998 0.32030299 0.382801
0.50691801 -1.113549 0.183889 0.76660001 -0.57459998 0.28670001 0.26561701 0.35155201
0.50462401 -1.113549 -0.54168397 0.64999998 0.101 -0.75319999 0.32030299 0.35155201
0.50003499 -0.76940399 -0.55430299 0.59789997 0.35519999 -0.71859998 0.32030299 0.382801
-0.191697 -1.113549 -0.45679501 -0.60159999 -0.077399999 -0.79500002 0.26561701 0.35155201
-0.284042 -0.032931998 -0.199259 0.044 0.62910002 -0.77609998 0.249993 0.445299
0.50003499 -0.76940399 -0.55430299 0.59789997 0.35519999 -0.71859998 0.32030299 0.382801
0.50462401 -1.113549 -0.54168397 0.64999998 0.101 -0.75319999 0.32030299 0.35155201
-0.191697 -1.113549 -0.45679501 -0.60159999 -0.077399999 -0.79500002 0.26561701 0.35155201
0.28150299 -0.001386 0.229202 0.85339999 0.52020001 0.034699999 0.249993 0.445299
-0.075260997 -0.76309401 0.78958499 0.66939998 0.37110001 0.64359999 0.15624499 0.382801
0.50691801 -1.113549 0.183889 0.76660001 -0.57459998 0.28670001 0.26561701 0.35155201
0.28150299 -0.001386 0.229202 0.85339999 0.52020001 0.034699999 0.249993 0.445299
-0.24561299 0.102432 0.292869 -0.2273 0.56110001 0.79589999 0.218743 0.445299
-0.075260997 -0.76309401 0.78958499 0.66939998 0.37110001 0.64359999 0.15624499 0.382801
-0.284042 -0.032931998 -0.199259 0.044 0.62910002 -0.77609998 0.249993 0.445299
-0.191697 -1.113549 -0.45679501 -0.60159999 -0.077399999 -0.79500002 0.26561701 0.35155201
-0.721681 -0.76309401 0.319253 -0.5851 0.51120001 -0.62949997 0.15624499 0.382801
-0.284042 -0.032931998 -0.199259 0.044 0.62910002 -0.77609998 0.249993 0.445299
-0.721681 -0.76309401 0.319253 -0.5851 0.51120001 -0.62949997 0.15624499 0.382801
-0.24561299 0.102432 0.292869 -0.2273 0.56110001 0.79589999 0.218743 0.445299
0.50691801 -1.113549 0.183889 0.76660001 -0.57459998 0.28670001 0.26561701 0.35155201
-0.075260997 -0.76309401 0.78958499 0.66939998 0.37110001 0.64359999 0.15624499 0.382801
-0.77330202 -1.113549 2.2332749 0.6807 -0.33050001 0.65369999 0.054685999 0.35155201
-0.191697 -1.113549 -0.45679501 -0.60159999 -0.077399999 -0.79500002 0.26561701 0.35155201
-1.9932981 -1.113549 1.257623 -0.87589997 -0.2016 -0.43830001 0.054685999 0.35155201
-0.721681 -0.76309401 0.319253 -0.5851 0.51120001 -0.62949997 0.15624499 0.382801
-0.24561299 0.102432 0.292869 -0.2273 0.56110001 0.79589999 0.218743 0.445299
-0.58803803 -0.35929701 0.87103301 0.3682 0.89099997 0.26570001 0.15624499 0.445299
-0.075260997 -0.76309401 0.78958499 0.66939998 0.37110001 0.64359999 0.15624499 0.382801
-0.24561299 0.102432 0.292869 -0.2273 0.56110001 0.79589999 0.218743 0.445299
-0.721681 -0.76309401 0.319253 -0.5851 0.51120001 -0.62949997 0.15624499 0.382801
-0.58803803 -0.35929701 0.87103301 0.3682 0.89099997 0.26570001 0.15624499 0.445299
-0.721681 -0.76309401 0.319253 -0.5851 0.51120001 -0.62949997 0.15624499 0.382801
-1.9932981 -1.113549 1.257623 -0.87589997 -0.2016 -0.43830001 0.054685999 0.35155201
-0.58803803 -0.35929701 0.87103301 0.3682 0.89099997 0.26570001 0.15624499 0.445299
-0.58803803 -0.35929701 0.87103301 0.3682 0.89099997 0.26570001 0.15624499 0.445299
-1.9932981 -1.113549 1.257623 -0.87589997 -0.2016 -0.43830001 0.054685999 0.35155201
-1.396206 -0.77112401 2.1374879 -0.23360001 0.82270002 0.51819998 0.046874002 0.445299
-0.58803803 -0.35929701 0.87103301 0.3682 0.89099997 0.26570001 0.15624499 0.445299
-1.396206 -0.77112401 2.1374879 -0.23360001 0.82270002 0.51819998 0.046874002 0.445299
-0.77330202 -1.113549 2.2332749 0.6807 -0.33050001 0.65369999 0.046874002 0.492203
-0.58803803 -0.35929701 0.87103301 0.3682 0.89099997 0.26570001 0.15624499 0.445299
-0.77330202 -1.113549 2.2332749 0.6807 -0.33050001 0.65369999 0.046874002 0.492203
-0.075260997 -0.76309401 0.78958499 0.66939998 0.37110001 0.64359999 0.15624499 0.507828
-1.9932981 -1.113549 1.257623 -0.87589997 -0.2016 -0.43830001 0.054685999 0.35155201
-1.5585279 -1.113549 2.333077 -0.4975 -0.32080001 0.80599999 0.0078119999 0.445299
-1.396206 -0.77112401 2.1374879 -0.23360001 0.82270002 0.51819998 0.046874002 0.445299
-1.5585279 -1.113549 2.333077 -0.4975 -0.32080001 0.80599999 0.0078119999 0.445299
-0.77330202 -1.113549 2.2332749 0.6807 -0.33050001 0.65369999 0.046874002 0.492203
-1.396206 -0.77112401 2.1374879 -0.23360001 0.82270002 0.51819998 0.046874002 0.445299
0.50691801 -1.113549 0.183889 0.76660001 -0.57459998 0.28670001 0.76563197 0.82031798
-0.191697 -1.113549 -0.45679501 -0.60159999 -0.077399999 -0.79500002 0.82813001 0.82031798
0.50462401 -1.113549 -0.54168397 0.64999998 0.101 -0.75319999 0.79688102 0.789069
0.50691801 -1.113549 0.183889 0.76660001 -0.57459998 0.28670001 0.76563197 0.82031798
-1.9932981 -1.113549 1.257623 -0.87589997 -0.2016 -0.43830001 0.85156697 0.95312703
-0.191697 -1.113549 -0.45679501 -0.60159999 -0.077399999 -0.79500002 0.82813001 0.82031798
0.50691801 -1.113549 0.183889 0.76660001 -0.57459998 0.28670001 0.76563197 0.82031798
-0.77330202 -1.113549 2.2332749 0.6807 -0.33050001 0.65369999 0.74219501 0.96093899
-1.9932981 -1.113549 1.257623 -0.87589997 -0.2016 -0.43830001 0.85156697 0.95312703
-1.9932981 -1.113549 1.257623 -0.87589997 -0.2016 -0.43830001 0.85156697 0.95312703
-0.77330202 -1.113549 2.2332749 0.6807 -0.33050001 0.65369999 0.74219501 0.96093899
-1.5585279 -1.113549 2.333077 -0.4975 -0.32080001 0.80599999 0.78125697 0.99218798
0.28150299 -0.001386 0.229202 0.85339999 0.52020001 0.034699999 0.249993 0.445299
-0.284042 -0.032931998 -0.199259 0.044 0.62910002 -0.77609998 0.249993 0.445299
-0.24561299 0.102432 0.292869 -0.2273 0.56110001 0.79589999 0.218743 0.445299
0.28150299 -0.001386 0.229202 0.85339999 0.52020001 0.034699999 0.249993 0.445299
0.283797 -0.122984 -0.355272 0.4445 0.6936 -0.56690001 0.296866 0.445299
-0.284042 -0.032931998 -0.199259 0.044 0.62910002 -0.77609998 0.249993 0.445299
3 0 1 2
3 3 4 5
3 6 7 8
3 9 10 11
3 12 13 14
3 15 16 17
3 18 19 20
3 21 22 23
3 24 25 26
3 27 28 29
3 30 31 32
3 33 34 35
3 36 37 38
3 39 40 41
3 42 43 44
3 45 46 47
3 48 49 50
3 51 52 53
3 54 55 56
3 57 58 59
3 60 61 62
3 63 64 65
3 66 67 68
3 69 70 71
3 72 73 74
3 75 76 77
