ply
format ascii 1.0
comment Created by Open Asset Import Library - http://assimp.sf.net (v5.0.1588609223)
element vertex 60
property float x
property float y
property float z
property float nx
property float ny
property float nz
property float s
property float t
element face 20
property list uchar int vertex_index
end_header
0.30846301 -0.139052 0.42494899 0.9964 -0.024599999 0.080600001 0.30467799 0.093746997
-0.086616002 0.315788 0.176017 0.30630001 0.94690001 0.098399997 0.32030299 0.17186999
-0.79280299 0.67083699 0.55113602 0.75590003 0.50889999 0.4118 0.374989 0.17186999
0.30846301 -0.139052 0.42494899 0.9964 -0.024599999 0.080600001 0.30467799 0.093746997
-0.79280299 0.67083699 0.55113602 0.75590003 0.50889999 0.4118 0.374989 0.17186999
-0.88159198 -0.25319201 0.909621 0.76010001 -0.23289999 0.6067 0.382801 0.085934997
0.30846301 -0.139052 0.42494899 0.9964 -0.024599999 0.080600001 0.30467799 0.093746997
-0.88159198 -0.25319201 0.909621 0.76010001 -0.23289999 0.6067 0.382801 0.085934997
-0.78867298 -0.80956203 0.081377 0.59990001 -0.79629999 -0.077799998 0.374989 0.0078119999
0.30846301 -0.139052 0.42494899 0.9964 -0.024599999 0.080600001 0.30467799 0.093746997
-0.78867298 -0.80956203 0.081377 0.59990001 -0.79629999 -0.077799998 0.374989 0.0078119999
-0.054267 -0.339802 -0.076356001 0.2579 -0.77539998 -0.57639998 0.312491 0.0078119999
-0.79280299 0.67083699 0.55113602 0.75590003 0.50889999 0.4118 0.374989 0.17186999
-0.086616002 0.315788 0.176017 0.30630001 0.94690001 0.098399997 0.32030299 0.17186999
-0.47549999 0.416738 -0.73482102 0.1445 0.73860002 -0.6584 0.359364 0.25780499
-0.79280299 0.67083699 0.55113602 0.75590003 0.50889999 0.4118 0.374989 0.17186999
-3.4117489 0.25556701 0.94919801 0.1181 0.80510002 0.58130002 0.53126401 0.132809
-0.88159198 -0.25319201 0.909621 0.76010001 -0.23289999 0.6067 0.382801 0.085934997
-0.79280299 0.67083699 0.55113602 0.75590003 0.50889999 0.4118 0.374989 0.17186999
-0.47549999 0.416738 -0.73482102 0.1445 0.73860002 -0.6584 0.359364 0.25780499
-3.5824451 0.276788 0.27295199 -0.96600002 -0.25099999 -0.062100001 0.53126401 0.218743
-0.79280299 0.67083699 0.55113602 0.75590003 0.50889999 0.4118 0.374989 0.17186999
-3.5824451 0.276788 0.27295199 -0.96600002 -0.25099999 -0.062100001 0.53126401 0.218743
-3.4117489 0.25556701 0.94919801 0.1181 0.80510002 0.58130002 0.53126401 0.132809
-0.086616002 0.315788 0.176017 0.30630001 0.94690001 0.098399997 0.32030299 0.17186999
-0.070096999 0.12880801 -0.42279601 0.2129 -0.0449 -0.97600001 0.32030299 0.25780499
-0.47549999 0.416738 -0.73482102 0.1445 0.73860002 -0.6584 0.359364 0.25780499
-0.78867298 -0.80956203 0.081377 0.59990001 -0.79629999 -0.077799998 0.374989 0.0078119999
-0.88159198 -0.25319201 0.909621 0.76010001 -0.23289999 0.6067 0.382801 0.085934997
-3.7965031 -0.248602 0.63258398 -0.2401 -0.73360002 0.6358 0.53126401 0.054685999
-0.88159198 -0.25319201 0.909621 0.76010001 -0.23289999 0.6067 0.382801 0.085934997
-3.4117489 0.25556701 0.94919801 0.1181 0.80510002 0.58130002 0.53126401 0.132809
-3.7965031 -0.248602 0.63258398 -0.2401 -0.73360002 0.6358 0.53126401 0.054685999
-3.5824451 0.276788 0.27295199 -0.96600002 -0.25099999 -0.062100001 0.53126401 0.218743
-0.47549999 0.416738 -0.73482102 0.1445 0.73860002 -0.6584 0.359364 0.25780499
-0.78867298 -0.80956203 0.081377 0.59990001 -0.79629999 -0.077799998 0.374989 0.33592701
-3.5824451 0.276788 0.27295199 -0.96600002 -0.25099999 -0.062100001 0.53126401 0.218743
-0.78867298 -0.80956203 0.081377 0.59990001 -0.79629999 -0.077799998 0.374989 0.33592701
-3.7965031 -0.248602 0.63258398 -0.2401 -0.73360002 0.6358 0.53126401 0.28905401
-0.47549999 0.416738 -0.73482102 0.1445 0.73860002 -0.6584 0.359364 0.25780499
-0.054267 -0.339802 -0.076356001 0.2579 -0.77539998 -0.57639998 0.312491 0.33592701
-0.78867298 -0.80956203 0.081377 0.59990001 -0.79629999 -0.077799998 0.374989 0.33592701
-0.47549999 0.416738 -0.73482102 0.1445 0.73860002 -0.6584 0.359364 0.25780499
-0.070096999 0.12880801 -0.42279601 0.2129 -0.0449 -0.97600001 0.32030299 0.25780499
-0.054267 -0.339802 -0.076356001 0.2579 -0.77539998 -0.57639998 0.312491 0.33592701
0.30846301 -0.139052 0.42494899 0.95020002 -0.052299999 0.3073 0.30467799 0.093746997
-0.054267 -0.339802 -0.076356001 0.89740002 -0.20999999 -0.38789999 0.312491 0.33592701
-0.070096999 0.12880801 -0.42279601 0.99559999 0.092100002 0.0151 0.32030299 0.25780499
0.30846301 -0.139052 0.42494899 0.95020002 -0.052299999 0.3073 0.30467799 0.093746997
-0.070096999 0.12880801 -0.42279601 0.99559999 0.092100002 0.0151 0.32030299 0.25780499
-0.086616002 0.315788 0.176017 0.83899999 0.45950001 -0.29159999 0.32030299 0.17186999
-0.086616002 0.315788 0.176017 -0.84799999 -0.40079999 0.34670001 0.32030299 0.17186999
-0.070096999 0.12880801 -0.42279601 -0.69190001 -0.039500002 0.7209 0.32030299 0.25780499
-0.054267 -0.339802 -0.076356001 -0.95279998 0.0114 0.3035 0.312491 0.33592701
-0.086616002 0.315788 0.176017 -0.84799999 -0.40079999 0.34670001 0.32030299 0.17186999
-0.054267 -0.339802 -0.076356001 -0.95279998 0.0114 0.3035 0.312491 0.33592701
0.30846301 -0.139052 0.42494899 -0.75120002 0.32179999 0.57630002 0.30467799 0.093746997
-3.4117489 0.25556701 0.94919801 0.1181 0.80510002 0.58130002 0.53126401 0.132809
-3.5824451 0.276788 0.27295199 -0.96600002 -0.25099999 -0.062100001 0.53126401 0.218743
-3.7965031 -0.248602 0.63258398 -0.2401 -0.73360002 0.6358 0.53126401 0.28905401
3 0 1 2
3 3 4 5
3 6 7 8
3 9 10 11
3 12 13 14
3 15 16 17
3 18 19 20
3 21 22 23
3 24 25 26
3 27 28 29
3 30 31 32
3 33 34 35
3 36 37 38
3 39 40 41
3 42 43 44
3 45 46 47
3 48 49 50
3 51 52 53
3 54 55 56
3 57 58 59
