ply
format ascii 1.0
comment Created by Open Asset Import Library - http://assimp.sf.net (v5.0.1588609223)
element vertex 78
property float x
property float y
property float z
property float nx
property float ny
property float nz
property float s
property float t
element face 26
property list uchar int vertex_index
end_header
-0.051545002 0.14644299 -0.36993599 0.5862 0.29840001 -0.75319999 0.53126401 0.218743
-0.81210703 0.28295299 0.624071 0.7608 0.39390001 0.5158 0.58595002 0.124996
0.119151 0.125223 0.30631101 0.95099998 0.30919999 -0.00079999998 0.53126401 0.132809
-0.051545002 0.14644299 -0.36993599 0.5862 0.29840001 -0.75319999 0.53126401 0.218743
-1.004827 0.425203 -0.39001101 0.49200001 0.7482 -0.44510001 0.58595002 0.226556
-0.81210703 0.28295299 0.624071 0.7608 0.39390001 0.5158 0.58595002 0.124996
-0.051545002 0.14644299 -0.36993599 0.5862 0.29840001 -0.75319999 0.53126401 0.218743
-0.26560301 -0.37894601 -0.010304 0.2094 -0.92320001 -0.32229999 0.53126401 0.28905401
-1.004827 0.425203 -0.39001101 0.49200001 0.7482 -0.44510001 0.58595002 0.226556
-0.26560301 -0.37894601 -0.010304 0.2094 -0.92320001 -0.32229999 0.53126401 0.054685999
0.119151 0.125223 0.30631101 0.95099998 0.30919999 -0.00079999998 0.53126401 0.132809
-0.922921 -0.42024601 0.24436399 0.62410003 -0.75480002 -0.20190001 0.58595002 0.054685999
0.119151 0.125223 0.30631101 0.95099998 0.30919999 -0.00079999998 0.53126401 0.132809
-0.81210703 0.28295299 0.624071 0.7608 0.39390001 0.5158 0.58595002 0.124996
-0.922921 -0.42024601 0.24436399 0.62410003 -0.75480002 -0.20190001 0.58595002 0.054685999
-1.004827 0.425203 -0.39001101 0.49200001 0.7482 -0.44510001 0.58595002 0.226556
-0.26560301 -0.37894601 -0.010304 0.2094 -0.92320001 -0.32229999 0.53126401 0.28905401
-0.922921 -0.42024601 0.24436399 0.62410003 -0.75480002 -0.20190001 0.58595002 0.28905401
-2.5149431 0.43667299 0.82310098 0.034400001 0.67570001 0.73640001 0.72657102 0.109372
-0.81210703 0.28295299 0.624071 0.7608 0.39390001 0.5158 0.60157502 0.109372
-1.004827 0.425203 -0.39001101 0.49200001 0.7482 -0.44510001 0.60157502 0.179682
-2.5149431 0.43667299 0.82310098 0.034400001 0.67570001 0.73640001 0.72657102 0.109372
-1.004827 0.425203 -0.39001101 0.49200001 0.7482 -0.44510001 0.60157502 0.179682
-2.468827 0.346044 -0.403777 -0.54449999 -0.44029999 -0.71390003 0.72657102 0.179682
-2.5149431 0.43667299 0.82310098 0.034400001 0.67570001 0.73640001 0.72657102 0.109372
-1.4529049 -0.223517 0.94699401 0.73580003 0.46160001 0.4955 0.65626103 0.046874002
-0.81210703 0.28295299 0.624071 0.7608 0.39390001 0.5158 0.60157502 0.109372
-2.5149431 0.43667299 0.82310098 0.034400001 0.67570001 0.73640001 0.72657102 0.109372
-2.196949 -0.27169701 0.92290401 -0.68970001 -0.26100001 0.67549998 0.73438299 0.070309997
-1.4529049 -0.223517 0.94699401 0.73580003 0.46160001 0.4955 0.65626103 0.046874002
-1.004827 0.425203 -0.39001101 0.49200001 0.7482 -0.44510001 0.60157502 0.179682
-2.109535 0.026564 -0.69859499 -0.88389999 0.066699997 -0.46290001 0.71094602 0.210931
-2.468827 0.346044 -0.403777 -0.54449999 -0.44029999 -0.71390003 0.72657102 0.179682
-1.004827 0.425203 -0.39001101 0.49200001 0.7482 -0.44510001 0.60157502 0.179682
-0.922921 -0.42024601 0.24436399 0.62410003 -0.75480002 -0.20190001 0.60157502 0.296866
-2.109535 0.026564 -0.69859499 -0.88389999 0.066699997 -0.46290001 0.71094602 0.210931
-0.81210703 0.28295299 0.624071 0.7608 0.39390001 0.5158 0.60157502 0.109372
-1.4529049 -0.223517 0.94699401 0.73580003 0.46160001 0.4955 0.65626103 0.046874002
-0.922921 -0.42024601 0.24436399 0.62410003 -0.75480002 -0.20190001 0.60157502 0.0078119999
-2.196949 -0.27169701 0.92290401 -0.68970001 -0.26100001 0.67549998 0.73438299 0.070309997
-1.948475 -0.56249601 1.353085 -0.1443 0.23119999 0.96210003 0.71094602 0.031249
-1.4529049 -0.223517 0.94699401 0.73580003 0.46160001 0.4955 0.65626103 0.046874002
-0.922921 -0.42024601 0.24436399 0.62410003 -0.75480002 -0.20190001 0.60157502 0.296866
-1.7956741 -0.088726997 0.390625 -0.51670003 -0.46439999 -0.71929997 0.703134 0.28905401
-2.109535 0.026564 -0.69859499 -0.88389999 0.066699997 -0.46290001 0.71094602 0.210931
-0.922921 -0.42024601 0.24436399 0.62410003 -0.75480002 -0.20190001 0.60157502 0.296866
-1.909243 -0.67032599 0.79786402 -0.63370001 -0.64160001 -0.43220001 0.72657102 0.32030299
-1.7956741 -0.088726997 0.390625 -0.51670003 -0.46439999 -0.71929997 0.703134 0.28905401
-0.922921 -0.42024601 0.24436399 0.62410003 -0.75480002 -0.20190001 0.60157502 0.296866
-1.574733 -0.97489703 1.136274 0.71219999 -0.60170001 0.36149999 0.72657102 0.35155201
-1.909243 -0.67032599 0.79786402 -0.63370001 -0.64160001 -0.43220001 0.72657102 0.32030299
-0.922921 -0.42024601 0.24436399 0.62410003 -0.75480002 -0.20190001 0.60157502 0.0078119999
-1.4529049 -0.223517 0.94699401 0.73580003 0.46160001 0.4955 0.65626103 0.046874002
-1.574733 -0.97489703 1.136274 0.71219999 -0.60170001 0.36149999 0.71094602 0.0078119999
-1.4529049 -0.223517 0.94699401 0.73580003 0.46160001 0.4955 0.65626103 0.046874002
-1.948475 -0.56249601 1.353085 -0.1443 0.23119999 0.96210003 0.71094602 0.031249
-1.574733 -0.97489703 1.136274 0.71219999 -0.60170001 0.36149999 0.71094602 0.0078119999
-1.909243 -0.67032599 0.79786402 -0.63370001 -0.64160001 -0.43220001 0.72657102 0.32030299
-2.196949 -0.27169701 0.92290401 -0.68970001 -0.26100001 0.67549998 0.74219501 0.312491
-1.7956741 -0.088726997 0.390625 -0.51670003 -0.46439999 -0.71929997 0.703134 0.28905401
-1.948475 -0.56249601 1.353085 0.59359998 0.7216 0.3563 0.71094602 0.031249
-1.574733 -0.97489703 1.136274 0.67940003 0.73100001 -0.063600004 0.72657102 0.35155201
-1.909243 -0.67032599 0.79786402 0.60790002 0.70749998 -0.36050001 0.72657102 0.32030299
-2.468827 0.346044 -0.403777 -0.54449999 -0.44029999 -0.71390003 0.72657102 0.179682
-1.7956741 -0.088726997 0.390625 -0.51670003 -0.46439999 -0.71929997 0.703134 0.28905401
-2.5149431 0.43667299 0.82310098 0.034400001 0.67570001 0.73640001 0 0
-2.5149431 0.43667299 0.82310098 0.034400001 0.67570001 0.73640001 0.72657102 0.109372
-1.7956741 -0.088726997 0.390625 -0.51670003 -0.46439999 -0.71929997 0.703134 0.28905401
-2.196949 -0.27169701 0.92290401 -0.68970001 -0.26100001 0.67549998 0.73438299 0.070309997
-2.468827 0.346044 -0.403777 -0.54449999 -0.44029999 -0.71390003 0.72657102 0.179682
-2.109535 0.026564 -0.69859499 -0.88389999 0.066699997 -0.46290001 0.71094602 0.210931
-1.7956741 -0.088726997 0.390625 -0.51670003 -0.46439999 -0.71929997 0.703134 0.28905401
0.119151 0.125223 0.30631101 0.95099998 0.30919999 -0.00079999998 0.53126401 0.132809
-0.26560301 -0.37894601 -0.010304 0.2094 -0.92320001 -0.32229999 0.53126401 0.28905401
-0.051545002 0.14644299 -0.36993599 0.5862 0.29840001 -0.75319999 0.53126401 0.218743
-1.948475 -0.56249601 1.353085 0.59359998 0.7216 0.3563 0.71094602 0.031249
-1.909243 -0.67032599 0.79786402 0.60790002 0.70749998 -0.36050001 0.72657102 0.32030299
-2.196949 -0.27169701 0.92290401 0.92000002 0.15530001 -0.3599 0.73438299 0.070309997
3 0 1 2
3 3 4 5
3 6 7 8
3 9 10 11
3 12 13 14
3 15 16 17
3 18 19 20
3 21 22 23
3 24 25 26
3 27 28 29
3 30 31 32
3 33 34 35
3 36 37 38
3 39 40 41
3 42 43 44
3 45 46 47
3 48 49 50
3 51 52 53
3 54 55 56
3 57 58 59
3 60 61 62
3 63 64 65
3 66 67 68
3 69 70 71
3 72 73 74
3 75 76 77
