ply
format ascii 1.0
comment Created by Open Asset Import Library - http://assimp.sf.net (v5.0.1588609223)
element vertex 99
property float x
property float y
property float z
property float nx
property float ny
property float nz
property float s
property float t
element face 33
property list uchar int vertex_index
end_header
-0.32381499 -3.7541609 -0.061663002 -0.16419999 -0.9479 -0.2728 0.36717701 0.77344501
-0.096105002 -1.900939 -0.69431698 -0.41119999 -0.2156 -0.88569999 0.41405001 0.89844102
0.35931399 -3.6182241 -0.31059501 -0.071900003 -0.81080002 -0.5808 0.460924 0.78125697
-0.32381499 -3.7541609 -0.061663002 -0.16419999 -0.9479 -0.2728 0.36717701 0.77344501
-0.75686502 -1.83383 0.033550002 -0.99299997 -0.079499997 -0.087099999 0.36717701 0.89062899
-0.096105002 -1.900939 -0.69431698 -0.41119999 -0.2156 -0.88569999 0.41405001 0.89844102
-0.32381499 -3.7541609 -0.061663002 -0.16419999 -0.9479 -0.2728 0.36717701 0.77344501
-0.176406 -3.7312179 0.60827303 -0.58450001 0.15899999 0.79570001 0.312491 0.78125697
-0.75686502 -1.83383 0.033550002 -0.99299997 -0.079499997 -0.087099999 0.36717701 0.89062899
-0.32381499 -3.7541609 -0.061663002 -0.16419999 -0.9479 -0.2728 0.36717701 0.77344501
-0.152889 -4.6019058 0.543459 -0.047800001 -0.96600002 0.25400001 0.312491 0.718759
-0.176406 -3.7312179 0.60827303 -0.58450001 0.15899999 0.79570001 0.312491 0.78125697
-0.096105002 -1.900939 -0.69431698 -0.41119999 -0.2156 -0.88569999 0.41405001 0.89844102
-0.75686502 -1.83383 0.033550002 -0.99299997 -0.079499997 -0.087099999 0.36717701 0.89062899
0.040979002 -0.22495 -0.87900901 -0.3897 0.62809998 -0.6735 0.41405001 0.99218798
-0.096105002 -1.900939 -0.69431698 -0.41119999 -0.2156 -0.88569999 0.41405001 0.89844102
0.67650098 -1.858494 -0.72529 0.59399998 -0.60339999 -0.53200001 0.46873599 0.89844102
0.35931399 -3.6182241 -0.31059501 -0.071900003 -0.81080002 -0.5808 0.460924 0.78125697
-0.096105002 -1.900939 -0.69431698 -0.41119999 -0.2156 -0.88569999 0.41405001 0.89844102
0.040979002 -0.22495 -0.87900901 -0.3897 0.62809998 -0.6735 0.41405001 0.99218798
0.67650098 -1.858494 -0.72529 0.59399998 -0.60339999 -0.53200001 0.46873599 0.89844102
-0.152889 -4.6019058 0.543459 -0.047800001 -0.96600002 0.25400001 0.312491 0.718759
0.45337999 -3.78284 0.40408 0.145 -0.82349998 0.5485 0.234368 0.77344501
-0.176406 -3.7312179 0.60827303 -0.58450001 0.15899999 0.79570001 0.312491 0.78125697
-0.75686502 -1.83383 0.033550002 -0.99299997 -0.079499997 -0.087099999 0.36717701 0.89062899
-0.516536 0.28381199 0.135074 -0.85509998 0.3452 0.38690001 0.34373999 0.99218798
0.040979002 -0.22495 -0.87900901 -0.3897 0.62809998 -0.6735 0.41405001 0.99218798
-0.75686502 -1.83383 0.033550002 -0.99299997 -0.079499997 -0.087099999 0.36717701 0.89062899
-0.176406 -3.7312179 0.60827303 -0.58450001 0.15899999 0.79570001 0.312491 0.78125697
-0.298004 -1.984681 0.77690399 -0.38550001 -0.1042 0.91680002 0.312491 0.88281602
-0.75686502 -1.83383 0.033550002 -0.99299997 -0.079499997 -0.087099999 0.36717701 0.89062899
-0.298004 -1.984681 0.77690399 -0.38550001 -0.1042 0.91680002 0.312491 0.88281602
-0.516536 0.28381199 0.135074 -0.85509998 0.3452 0.38690001 0.34373999 0.99218798
0.35931399 -3.6182241 -0.31059501 -0.071900003 -0.81080002 -0.5808 0.460924 0.78125697
0.67650098 -1.858494 -0.72529 0.59399998 -0.60339999 -0.53200001 0.46873599 0.89844102
0.45337999 -3.78284 0.40408 0.145 -0.82349998 0.5485 0.54688901 0.77344501
0.45337999 -3.78284 0.40408 0.145 -0.82349998 0.5485 0.234368 0.77344501
0.59333199 -1.840713 0.620318 0.4542 -0.62739998 0.63249999 0.234368 0.89062899
-0.176406 -3.7312179 0.60827303 -0.58450001 0.15899999 0.79570001 0.312491 0.78125697
-0.176406 -3.7312179 0.60827303 -0.58450001 0.15899999 0.79570001 0.312491 0.78125697
0.59333199 -1.840713 0.620318 0.4542 -0.62739998 0.63249999 0.234368 0.89062899
-0.298004 -1.984681 0.77690399 -0.38550001 -0.1042 0.91680002 0.312491 0.88281602
0.040979002 -0.22495 -0.87900901 -0.3897 0.62809998 -0.6735 0.41405001 0.99218798
0.56981599 -0.40906799 -0.64556301 0.63239998 0.76300001 -0.1336 0.492203 0.99218798
0.67650098 -1.858494 -0.72529 0.59399998 -0.60339999 -0.53200001 0.46873599 0.89844102
-0.516536 0.28381199 0.135074 -0.85509998 0.3452 0.38690001 0.34373999 0.99218798
-0.298004 -1.984681 0.77690399 -0.38550001 -0.1042 0.91680002 0.312491 0.88281602
-0.082340002 0.152463 0.58475602 -0.3788 0.0152 0.9253 0.28124201 0.99218798
-0.298004 -1.984681 0.77690399 -0.38550001 -0.1042 0.91680002 0.312491 0.88281602
0.59333199 -1.840713 0.620318 0.4542 -0.62739998 0.63249999 0.234368 0.89062899
-0.082340002 0.152463 0.58475602 -0.3788 0.0152 0.9253 0.28124201 0.99218798
0.45337999 -3.78284 0.40408 0.145 -0.82349998 0.5485 0.54688901 0.77344501
0.67650098 -1.858494 -0.72529 0.59399998 -0.60339999 -0.53200001 0.46873599 0.89844102
0.59333199 -1.840713 0.620318 0.4542 -0.62739998 0.63249999 0.54688901 0.89062899
0.67650098 -1.858494 -0.72529 0.59399998 -0.60339999 -0.53200001 0.46873599 0.89844102
0.56981599 -0.40906799 -0.64556301 0.63239998 0.76300001 -0.1336 0.492203 0.99218798
0.59333199 -1.840713 0.620318 0.4542 -0.62739998 0.63249999 0.54688901 0.89062899
-0.082340002 0.152463 0.58475602 -0.3788 0.0152 0.9253 0.28124201 0.99218798
0.59333199 -1.840713 0.620318 0.4542 -0.62739998 0.63249999 0.234368 0.89062899
0.42699501 -0.32589999 0.471762 0.53420001 0.71259999 0.45480001 0.234368 0.99218798
0.59333199 -1.840713 0.620318 0.4542 -0.62739998 0.63249999 0.54688901 0.89062899
0.56981599 -0.40906799 -0.64556301 0.63239998 0.76300001 -0.1336 0.492203 0.99218798
0.42699501 -0.32589999 0.471762 0.53420001 0.71259999 0.45480001 0.54688901 0.99218798
-0.32381499 -3.7541609 -0.061663002 -0.16419999 -0.9479 -0.2728 0.36717701 0.77344501
0.35931399 -3.6182241 -0.31059501 -0.071900003 -0.81080002 -0.5808 0.460924 0.78125697
0.45337999 -3.78284 0.40408 0.145 -0.82349998 0.5485 0.54688901 0.77344501
-0.32381499 -3.7541609 -0.061663002 -0.16419999 -0.9479 -0.2728 0.36717701 0.77344501
0.45337999 -3.78284 0.40408 0.82499999 -0.043900002 -0.56339997 0.234368 0.77344501
-0.152889 -4.6019058 0.543459 -0.047800001 -0.96600002 0.25400001 0.312491 0.718759
0.42699501 -0.32589999 0.471762 0.48539999 0.4752 0.73379999 0.234368 0.99218798
-0.082340002 0.152463 0.58475602 -0.4386 -0.1249 0.88999999 0.28124201 0.99218798
-0.152889 -4.6019058 0.543459 0.096100003 -0.0035000001 0.99540001 0 0
-0.152889 -4.6019058 0.543459 0.096100003 -0.0035000001 0.99540001 0 0
-0.082340002 0.152463 0.58475602 -0.4386 -0.1249 0.88999999 0.28124201 0.99218798
-0.516536 0.28381199 0.135074 -0.59939998 0.2139 0.77139997 0.34373999 0.99218798
-0.32381499 -3.7541609 -0.061663002 -0.2262 -0.31279999 -0.92250001 0.36717701 0.77344501
0.040979002 -0.22495 -0.87900901 -0.68059999 0.2969 -0.66979998 0.41405001 0.99218798
0.56981599 -0.40906799 -0.64556301 0.8653 0.45390001 -0.21250001 0.492203 0.99218798
0.56981599 -0.40906799 -0.64556301 0.33340001 0.8301 -0.447 0.492203 0.99218798
-0.082340002 0.152463 0.58475602 0.509 0.8351 -0.2087 0.28124201 0.99218798
0.42699501 -0.32589999 0.471762 0.36390001 0.49470001 0.78920001 0.54688901 0.99218798
0.56981599 -0.40906799 -0.64556301 0.8653 0.45390001 -0.21250001 0.492203 0.99218798
0.42699501 -0.32589999 0.471762 0.48539999 0.4752 0.73379999 0.54688901 0.99218798
0.45337999 -3.78284 0.40408 0.78250003 0.2164 0.58389997 0 0
0.45337999 -3.78284 0.40408 0.78250003 0.2164 0.58389997 0.234368 0.77344501
0.42699501 -0.32589999 0.471762 0.48539999 0.4752 0.73379999 0.234368 0.99218798
-0.152889 -4.6019058 0.543459 0.096100003 -0.0035000001 0.99540001 0.312491 0.718759
-0.32381499 -3.7541609 -0.061663002 -0.2262 -0.31279999 -0.92250001 0.36717701 0.77344501
-0.516536 0.28381199 0.135074 -0.9598 -0.1162 -0.25529999 0.34373999 0.99218798
0.040979002 -0.22495 -0.87900901 -0.68059999 0.2969 -0.66979998 0.41405001 0.99218798
0.56981599 -0.40906799 -0.64556301 0.33340001 0.8301 -0.447 0 0
-0.516536 0.28381199 0.135074 0.296 0.87360001 -0.3863 0.34373999 0.99218798
-0.082340002 0.152463 0.58475602 0.509 0.8351 -0.2087 0.28124201 0.99218798
0.56981599 -0.40906799 -0.64556301 0.33340001 0.8301 -0.447 0 0
0.040979002 -0.22495 -0.87900901 -0.31690001 0.86390001 -0.3915 0.41405001 0.99218798
-0.516536 0.28381199 0.135074 0.296 0.87360001 -0.3863 0.34373999 0.99218798
-0.32381499 -3.7541609 -0.061663002 -0.2262 -0.31279999 -0.92250001 0.36717701 0.77344501
0.56981599 -0.40906799 -0.64556301 0.8653 0.45390001 -0.21250001 0.492203 0.99218798
0.45337999 -3.78284 0.40408 0.78250003 0.2164 0.58389997 0.54688901 0.77344501
3 0 1 2
3 3 4 5
3 6 7 8
3 9 10 11
3 12 13 14
3 15 16 17
3 18 19 20
3 21 22 23
3 24 25 26
3 27 28 29
3 30 31 32
3 33 34 35
3 36 37 38
3 39 40 41
3 42 43 44
3 45 46 47
3 48 49 50
3 51 52 53
3 54 55 56
3 57 58 59
3 60 61 62
3 63 64 65
3 66 67 68
3 69 70 71
3 72 73 74
3 75 76 77
3 78 79 80
3 81 82 83
3 84 85 86
3 87 88 89
3 90 91 92
3 93 94 95
3 96 97 98
