ply
format ascii 1.0
comment Created by Open Asset Import Library - http://assimp.sf.net (v5.0.1588609223)
element vertex 84
property float x
property float y
property float z
property float nx
property float ny
property float nz
property float s
property float t
element face 28
property list uchar int vertex_index
end_header
-0.419458 -0.0047889999 -0.169084 -0.85869998 0.027899999 0.51169997 0.36717701 0.77344501
0.26367101 0.131147 -0.41801599 0.43079999 0.36570001 -0.82499999 0.460924 0.78125697
0.39043099 -1.916517 -1.117205 0.090599999 0.41370001 -0.9059 0.45311099 0.632824
-0.419458 -0.0047889999 -0.169084 -0.85869998 0.027899999 0.51169997 0.36717701 0.77344501
0.39043099 -1.916517 -1.117205 0.090599999 0.41370001 -0.9059 0.45311099 0.632824
-0.63397503 -2.221087 -0.47479999 -0.77130002 0.61330003 -0.1701 0.359364 0.617199
-0.419458 -0.0047889999 -0.169084 -0.85869998 0.027899999 0.51169997 0.36717701 0.77344501
-0.63397503 -2.221087 -0.47479999 -0.77130002 0.61330003 -0.1701 0.359364 0.617199
-0.27204901 -1.753049 0.45037699 -0.50279999 0.574 0.64630002 0.28905401 0.632824
-0.419458 -0.0047889999 -0.169084 -0.85869998 0.027899999 0.51169997 0.36717701 0.77344501
-0.27204901 -1.753049 0.45037699 -0.50279999 0.574 0.64630002 0.28905401 0.632824
-0.248532 -0.852534 0.43603799 -0.59429997 0.50169998 0.6286 0.312491 0.718759
0.39043099 -1.916517 -1.117205 0.090599999 0.41370001 -0.9059 0.45311099 0.632824
0.26367101 0.131147 -0.41801599 0.43079999 0.36570001 -0.82499999 0.460924 0.78125697
0.758093 -1.689955 -0.441533 0.85259998 -0.097999997 -0.51319999 0.49998501 0.64063603
0.39043099 -1.916517 -1.117205 0.090599999 0.41370001 -0.9059 0.45311099 0.632824
0.39960799 -2.647826 -0.789693 0.2357 -0.031300001 -0.97130001 0.445299 0.57813799
-0.63397503 -2.221087 -0.47479999 -0.77130002 0.61330003 -0.1701 0.359364 0.617199
0.39043099 -1.916517 -1.117205 0.090599999 0.41370001 -0.9059 0.45311099 0.632824
0.758093 -1.689955 -0.441533 0.85259998 -0.097999997 -0.51319999 0.49998501 0.64063603
0.39960799 -2.647826 -0.789693 0.2357 -0.031300001 -0.97130001 0.445299 0.57813799
-0.27204901 -1.753049 0.45037699 -0.50279999 0.574 0.64630002 0.28905401 0.632824
0.357737 -0.033468001 0.29665899 0.2527 0.37740001 0.89090002 0.234368 0.77344501
-0.248532 -0.852534 0.43603799 -0.59429997 0.50169998 0.6286 0.312491 0.718759
-0.27204901 -1.753049 0.45037699 -0.50279999 0.574 0.64630002 0.28905401 0.632824
-0.63397503 -2.221087 -0.47479999 -0.77130002 0.61330003 -0.1701 0.359364 0.617199
0.073817 -4.1924648 -0.34173 -0.55769998 -0.8028 0.211 0.33592701 0.460924
-0.27204901 -1.753049 0.45037699 -0.50279999 0.574 0.64630002 0.28905401 0.632824
0.62961203 -1.562621 0.23299199 0.75760001 -0.0284 0.65210003 0.234368 0.64844799
0.357737 -0.033468001 0.29665899 0.2527 0.37740001 0.89090002 0.234368 0.77344501
-0.27204901 -1.753049 0.45037699 -0.50279999 0.574 0.64630002 0.28905401 0.632824
0.073817 -4.1924648 -0.34173 -0.55769998 -0.8028 0.211 0.33592701 0.460924
0.45008299 -2.9070821 -0.10427 0.49810001 0.2737 0.82279998 0.234368 0.56251299
-0.27204901 -1.753049 0.45037699 -0.50279999 0.574 0.64630002 0.28905401 0.632824
0.45008299 -2.9070821 -0.10427 0.49810001 0.2737 0.82279998 0.234368 0.56251299
0.62961203 -1.562621 0.23299199 0.75760001 -0.0284 0.65210003 0.234368 0.64844799
0.39960799 -2.647826 -0.789693 0.2357 -0.031300001 -0.97130001 0.445299 0.57813799
0.758093 -1.689955 -0.441533 0.85259998 -0.097999997 -0.51319999 0.49998501 0.64063603
0.45008299 -2.9070821 -0.10427 0.49810001 0.2737 0.82279998 0.54688901 0.56251299
0.39960799 -2.647826 -0.789693 0.2357 -0.031300001 -0.97130001 0.445299 0.57813799
0.035388 -4.3278289 -0.83385801 -0.68339998 -0.50779998 0.52460003 0.382801 0.460924
-0.63397503 -2.221087 -0.47479999 -0.77130002 0.61330003 -0.1701 0.359364 0.617199
0.39960799 -2.647826 -0.789693 0.2357 -0.031300001 -0.97130001 0.445299 0.57813799
0.45008299 -2.9070821 -0.10427 0.49810001 0.2737 0.82279998 0.54688901 0.56251299
0.60093302 -4.2962828 -0.405397 0.77389997 0.38569999 0.50239998 0.52345198 0.460924
0.39960799 -2.647826 -0.789693 0.2357 -0.031300001 -0.97130001 0.445299 0.57813799
0.60322702 -4.417881 -0.98987103 0.35519999 -0.67040002 -0.65149999 0.445299 0.460924
0.035388 -4.3278289 -0.83385801 -0.68339998 -0.50779998 0.52460003 0.382801 0.460924
0.39960799 -2.647826 -0.789693 0.2357 -0.031300001 -0.97130001 0.445299 0.57813799
0.60093302 -4.2962828 -0.405397 0.77389997 0.38569999 0.50239998 0.52345198 0.460924
0.60322702 -4.417881 -0.98987103 0.35519999 -0.67040002 -0.65149999 0.445299 0.460924
0.035388 -4.3278289 -0.83385801 -0.68339998 -0.50779998 0.52460003 0.382801 0.460924
0.073817 -4.1924648 -0.34173 -0.55769998 -0.8028 0.211 0.33592701 0.460924
-0.63397503 -2.221087 -0.47479999 -0.77130002 0.61330003 -0.1701 0.359364 0.617199
0.26367101 0.131147 -0.41801599 0.43079999 0.36570001 -0.82499999 0.460924 0.78125697
0.357737 -0.033468001 0.29665899 0.2527 0.37740001 0.89090002 0.54688901 0.77344501
0.758093 -1.689955 -0.441533 0.85259998 -0.097999997 -0.51319999 0.49998501 0.64063603
0.45008299 -2.9070821 -0.10427 0.49810001 0.2737 0.82279998 0.234368 0.56251299
0.073817 -4.1924648 -0.34173 -0.55769998 -0.8028 0.211 0.33592701 0.460924
0.60093302 -4.2962828 -0.405397 0.77389997 0.38569999 0.50239998 0.25780499 0.460924
0.45008299 -2.9070821 -0.10427 0.49810001 0.2737 0.82279998 0.54688901 0.56251299
0.758093 -1.689955 -0.441533 0.85259998 -0.097999997 -0.51319999 0.49998501 0.64063603
0.62961203 -1.562621 0.23299199 0.75760001 -0.0284 0.65210003 0.54688901 0.64844799
0.758093 -1.689955 -0.441533 0.85259998 -0.097999997 -0.51319999 0.49998501 0.64063603
0.357737 -0.033468001 0.29665899 0.2527 0.37740001 0.89090002 0.54688901 0.77344501
0.62961203 -1.562621 0.23299199 0.75760001 -0.0284 0.65210003 0.54688901 0.64844799
-0.419458 -0.0047889999 -0.169084 -0.85869998 0.027899999 0.51169997 0.36717701 0.77344501
-0.248532 -0.852534 0.43603799 -0.59429997 0.50169998 0.6286 0.312491 0.718759
0.357737 -0.033468001 0.29665899 0.2527 0.37740001 0.89090002 0.234368 0.77344501
0.073817 -4.1924648 -0.34173 -0.87819999 -0.458 -0.13789999 0.33592701 0.460924
-0.248532 -0.852534 0.43603799 -0.86309999 -0.11 0.49290001 0.312491 0.718759
0.035388 -4.3278289 -0.83385801 -0.47729999 -0.7403 0.4734 0.382801 0.460924
0.035388 -4.3278289 -0.83385801 -0.47729999 -0.7403 0.4734 0.382801 0.460924
-0.248532 -0.852534 0.43603799 -0.86309999 -0.11 0.49290001 0.312491 0.718759
-0.419458 -0.0047889999 -0.169084 -0.8427 0.53839999 0.0016 0.36717701 0.77344501
0.26367101 0.131147 -0.41801599 0.43079999 0.36570001 -0.82499999 0.460924 0.78125697
-0.419458 -0.0047889999 -0.169084 -0.85869998 0.027899999 0.51169997 0.36717701 0.77344501
0.357737 -0.033468001 0.29665899 0.2527 0.37740001 0.89090002 0.54688901 0.77344501
0.073817 -4.1924648 -0.34173 -0.55769998 -0.8028 0.211 0.33592701 0.460924
0.035388 -4.3278289 -0.83385801 -0.68339998 -0.50779998 0.52460003 0.382801 0.460924
0.60093302 -4.2962828 -0.405397 0.77389997 0.38569999 0.50239998 0.25780499 0.460924
0.60322702 -4.417881 -0.98987103 0.35519999 -0.67040002 -0.65149999 0.445299 0.460924
0.60093302 -4.2962828 -0.405397 0.77389997 0.38569999 0.50239998 0.52345198 0.460924
0.035388 -4.3278289 -0.83385801 -0.68339998 -0.50779998 0.52460003 0.382801 0.460924
3 0 1 2
3 3 4 5
3 6 7 8
3 9 10 11
3 12 13 14
3 15 16 17
3 18 19 20
3 21 22 23
3 24 25 26
3 27 28 29
3 30 31 32
3 33 34 35
3 36 37 38
3 39 40 41
3 42 43 44
3 45 46 47
3 48 49 50
3 51 52 53
3 54 55 56
3 57 58 59
3 60 61 62
3 63 64 65
3 66 67 68
3 69 70 71
3 72 73 74
3 75 76 77
3 78 79 80
3 81 82 83
