ply
format ascii 1.0
comment Created by Open Asset Import Library - http://assimp.sf.net (v5.0.1588609223)
element vertex 84
property float x
property float y
property float z
property float nx
property float ny
property float nz
property float s
property float t
element face 28
property list uchar int vertex_index
end_header
0.419458 -0.0047889999 -0.169084 0.85869998 0.027899999 0.51169997 0.36717701 0.77344501
-0.39043099 -1.916517 -1.117205 -0.23190001 0.433 -0.87099999 0.45311099 0.632824
-0.26367101 0.131147 -0.41801599 0.2149 0.8865 -0.40979999 0.460924 0.78125697
0.419458 -0.0047889999 -0.169084 0.85869998 0.027899999 0.51169997 0.36717701 0.77344501
0.63397503 -2.221087 -0.47479999 0.4772 0.071099997 -0.87589997 0.359364 0.617199
-0.39043099 -1.916517 -1.117205 -0.23190001 0.433 -0.87099999 0.45311099 0.632824
0.419458 -0.0047889999 -0.169084 0.85869998 0.027899999 0.51169997 0.36717701 0.77344501
0.27204901 -1.753049 0.45037699 0.78890002 -0.5097 0.3432 0.28905401 0.632824
0.63397503 -2.221087 -0.47479999 0.4772 0.071099997 -0.87589997 0.359364 0.617199
0.419458 -0.0047889999 -0.169084 0.85869998 0.027899999 0.51169997 0.36717701 0.77344501
0.248532 -0.852534 0.43603799 0.59429997 0.50169998 0.6286 0.312491 0.718759
0.27204901 -1.753049 0.45037699 0.78890002 -0.5097 0.3432 0.28905401 0.632824
-0.39043099 -1.916517 -1.117205 -0.23190001 0.433 -0.87099999 0.45311099 0.632824
-0.758093 -1.689955 -0.441533 -0.90530002 0.3899 -0.1688 0.49998501 0.64063603
-0.26367101 0.131147 -0.41801599 0.2149 0.8865 -0.40979999 0.460924 0.78125697
-0.39043099 -1.916517 -1.117205 -0.23190001 0.433 -0.87099999 0.45311099 0.632824
0.63397503 -2.221087 -0.47479999 0.4772 0.071099997 -0.87589997 0.359364 0.617199
-0.39960799 -2.647826 -0.789693 -0.46059999 0.1768 -0.86979997 0.445299 0.57813799
-0.39043099 -1.916517 -1.117205 -0.23190001 0.433 -0.87099999 0.45311099 0.632824
-0.39960799 -2.647826 -0.789693 -0.46059999 0.1768 -0.86979997 0.445299 0.57813799
-0.758093 -1.689955 -0.441533 -0.90530002 0.3899 -0.1688 0.49998501 0.64063603
0.27204901 -1.753049 0.45037699 0.78890002 -0.5097 0.3432 0.28905401 0.632824
0.248532 -0.852534 0.43603799 0.59429997 0.50169998 0.6286 0.312491 0.718759
-0.357737 -0.033468001 0.29665899 -0.38789999 0.30219999 0.8707 0.234368 0.77344501
0.27204901 -1.753049 0.45037699 0.78890002 -0.5097 0.3432 0.28905401 0.632824
-0.073817 -4.1924648 -0.34173 0.55769998 -0.8028 0.211 0.33592701 0.460924
0.63397503 -2.221087 -0.47479999 0.4772 0.071099997 -0.87589997 0.359364 0.617199
0.27204901 -1.753049 0.45037699 0.78890002 -0.5097 0.3432 0.28905401 0.632824
-0.357737 -0.033468001 0.29665899 -0.38789999 0.30219999 0.8707 0.234368 0.77344501
-0.62961203 -1.562621 0.23299199 -0.73110002 -0.084600002 0.6771 0.234368 0.64844799
0.27204901 -1.753049 0.45037699 0.78890002 -0.5097 0.3432 0.28905401 0.632824
-0.45008299 -2.9070821 -0.10427 -0.5413 -0.72759998 0.4215 0.234368 0.56251299
-0.073817 -4.1924648 -0.34173 0.55769998 -0.8028 0.211 0.33592701 0.460924
0.27204901 -1.753049 0.45037699 0.78890002 -0.5097 0.3432 0.28905401 0.632824
-0.62961203 -1.562621 0.23299199 -0.73110002 -0.084600002 0.6771 0.234368 0.64844799
-0.45008299 -2.9070821 -0.10427 -0.5413 -0.72759998 0.4215 0.234368 0.56251299
-0.39960799 -2.647826 -0.789693 -0.46059999 0.1768 -0.86979997 0.445299 0.57813799
-0.45008299 -2.9070821 -0.10427 -0.5413 -0.72759998 0.4215 0.54688901 0.56251299
-0.758093 -1.689955 -0.441533 -0.90530002 0.3899 -0.1688 0.49998501 0.64063603
-0.39960799 -2.647826 -0.789693 -0.46059999 0.1768 -0.86979997 0.445299 0.57813799
0.63397503 -2.221087 -0.47479999 0.4772 0.071099997 -0.87589997 0.359364 0.617199
-0.035388 -4.3278289 -0.83385801 0.68339998 -0.50779998 0.52460003 0.382801 0.460924
-0.39960799 -2.647826 -0.789693 -0.46059999 0.1768 -0.86979997 0.445299 0.57813799
-0.60093302 -4.2962828 -0.405397 -0.54040003 0.3678 0.7568 0.52345198 0.460924
-0.45008299 -2.9070821 -0.10427 -0.5413 -0.72759998 0.4215 0.54688901 0.56251299
-0.39960799 -2.647826 -0.789693 -0.46059999 0.1768 -0.86979997 0.445299 0.57813799
-0.035388 -4.3278289 -0.83385801 0.68339998 -0.50779998 0.52460003 0.382801 0.460924
-0.60322702 -4.417881 -0.98987103 -0.54030001 -0.48699999 -0.68620002 0.445299 0.460924
-0.39960799 -2.647826 -0.789693 -0.46059999 0.1768 -0.86979997 0.445299 0.57813799
-0.60322702 -4.417881 -0.98987103 -0.54030001 -0.48699999 -0.68620002 0.445299 0.460924
-0.60093302 -4.2962828 -0.405397 -0.54040003 0.3678 0.7568 0.52345198 0.460924
-0.035388 -4.3278289 -0.83385801 0.68339998 -0.50779998 0.52460003 0.382801 0.460924
0.63397503 -2.221087 -0.47479999 0.4772 0.071099997 -0.87589997 0.359364 0.617199
-0.073817 -4.1924648 -0.34173 0.55769998 -0.8028 0.211 0.33592701 0.460924
-0.26367101 0.131147 -0.41801599 0.2149 0.8865 -0.40979999 0.460924 0.78125697
-0.758093 -1.689955 -0.441533 -0.90530002 0.3899 -0.1688 0.49998501 0.64063603
-0.357737 -0.033468001 0.29665899 -0.38789999 0.30219999 0.8707 0.54688901 0.77344501
-0.45008299 -2.9070821 -0.10427 -0.5413 -0.72759998 0.4215 0.234368 0.56251299
-0.60093302 -4.2962828 -0.405397 -0.54040003 0.3678 0.7568 0.25780499 0.460924
-0.073817 -4.1924648 -0.34173 0.55769998 -0.8028 0.211 0.33592701 0.460924
-0.45008299 -2.9070821 -0.10427 -0.5413 -0.72759998 0.4215 0.54688901 0.56251299
-0.62961203 -1.562621 0.23299199 -0.73110002 -0.084600002 0.6771 0.54688901 0.64844799
-0.758093 -1.689955 -0.441533 -0.90530002 0.3899 -0.1688 0.49998501 0.64063603
-0.758093 -1.689955 -0.441533 -0.90530002 0.3899 -0.1688 0.49998501 0.64063603
-0.62961203 -1.562621 0.23299199 -0.73110002 -0.084600002 0.6771 0.54688901 0.64844799
-0.357737 -0.033468001 0.29665899 -0.38789999 0.30219999 0.8707 0.54688901 0.77344501
0.419458 -0.0047889999 -0.169084 0.85869998 0.027899999 0.51169997 0.36717701 0.77344501
-0.357737 -0.033468001 0.29665899 -0.38789999 0.30219999 0.8707 0.234368 0.77344501
0.248532 -0.852534 0.43603799 0.59429997 0.50169998 0.6286 0.312491 0.718759
-0.073817 -4.1924648 -0.34173 0.8872 0.1417 0.4391 0.33592701 0.460924
-0.035388 -4.3278289 -0.83385801 0.7234 0.25029999 -0.64349997 0.382801 0.460924
0.248532 -0.852534 0.43603799 0.88550001 0.045299999 0.46250001 0.312491 0.718759
-0.035388 -4.3278289 -0.83385801 0.7234 0.25029999 -0.64349997 0.382801 0.460924
0.419458 -0.0047889999 -0.169084 0.85280001 0.50709999 -0.1244 0.36717701 0.77344501
0.248532 -0.852534 0.43603799 0.88550001 0.045299999 0.46250001 0.312491 0.718759
-0.26367101 0.131147 -0.41801599 0.2149 0.8865 -0.40979999 0.460924 0.78125697
-0.357737 -0.033468001 0.29665899 -0.38789999 0.30219999 0.8707 0.54688901 0.77344501
0.419458 -0.0047889999 -0.169084 0.85869998 0.027899999 0.51169997 0.36717701 0.77344501
-0.073817 -4.1924648 -0.34173 0.55769998 -0.8028 0.211 0.33592701 0.460924
-0.60093302 -4.2962828 -0.405397 -0.54040003 0.3678 0.7568 0.25780499 0.460924
-0.035388 -4.3278289 -0.83385801 0.68339998 -0.50779998 0.52460003 0.382801 0.460924
-0.60322702 -4.417881 -0.98987103 -0.54030001 -0.48699999 -0.68620002 0.445299 0.460924
-0.035388 -4.3278289 -0.83385801 0.68339998 -0.50779998 0.52460003 0.382801 0.460924
-0.60093302 -4.2962828 -0.405397 -0.54040003 0.3678 0.7568 0.52345198 0.460924
3 0 1 2
3 3 4 5
3 6 7 8
3 9 10 11
3 12 13 14
3 15 16 17
3 18 19 20
3 21 22 23
3 24 25 26
3 27 28 29
3 30 31 32
3 33 34 35
3 36 37 38
3 39 40 41
3 42 43 44
3 45 46 47
3 48 49 50
3 51 52 53
3 54 55 56
3 57 58 59
3 60 61 62
3 63 64 65
3 66 67 68
3 69 70 71
3 72 73 74
3 75 76 77
3 78 79 80
3 81 82 83
