ply
format ascii 1.0
comment Created by Open Asset Import Library - http://assimp.sf.net (v5.0.1588609223)
element vertex 210
property float x
property float y
property float z
property float nx
property float ny
property float nz
property float s
property float t
element face 70
property list uchar int vertex_index
end_header
-4.1842012 11.644163 8.3329048 -0.32030001 0.80519998 0.49900001 0 0
-0.490318 11.644163 8.328721 -0.0135 0.59320003 -0.80500001 0 0
-4.1851101 11.44979 7.530447 0.30180001 0.61930001 -0.72490001 0 0
-0.489409 11.838535 9.1311798 -0.019099999 0.81550002 0.57840002 0 0
3.202656 11.44979 7.522079 -0.2976 0.61860001 -0.72719997 0 0
-0.490318 11.644163 8.328721 0.0105 0.59320003 -0.80500001 0 0
3.2035651 11.644163 8.3245373 0.49430001 0.68279999 0.53799999 0 0
5.3460212 10.311171 5.8497338 -0.2376 0.71270001 -0.66000003 0 0
3.202656 11.44979 7.522079 -0.022299999 0.66390002 -0.7475 0 0
6.2626772 10.430611 6.6743541 0.49020001 0.72839999 0.47870001 0 0
7.1747389 10.549183 3.3706551 -0.41859999 0.56529999 -0.71069998 0 0
5.3460212 10.311171 5.8497338 -0.61140001 0.65649998 -0.4418 0 0
-8.7688799 10.694648 -2.8533731 -0.50730002 0.74949998 -0.42519999 0 0
-8.5455132 10.270188 0.54225302 0.71710002 0.6961 -0.0341 0 0
-7.9092131 10.590261 -3.1741159 0.61870003 0.5323 -0.57779998 0 0
-9.40518 10.374575 0.862997 -0.70929998 0.69190001 -0.1348 0 0
-8.8071613 10.549449 3.389482 0.72310001 0.67830002 -0.1305 0 0
-8.5455132 10.270188 0.54225302 0.65499997 0.7507 0.086400002 0 0
-9.7306318 10.549449 3.390528 -0.64300001 0.73430002 0.21780001 0 0
-6.9582491 10.866672 5.1262088 0.42109999 0.62150002 -0.66060001 0 0
-8.8071613 10.549449 3.389482 0.56160003 0.67210001 -0.4826 0 0
-7.8808122 11.061045 5.9297142 -0.57520002 0.75440001 0.31639999 0 0
-4.1851101 11.44979 7.530447 0.2823 0.61690003 -0.73460001 0 0
-6.9582491 10.866672 5.1262088 0.5187 0.60479999 -0.60430002 0 0
-4.1842012 11.644163 8.3329048 -0.30840001 0.80650002 0.50440001 0 0
-0.489409 11.838535 9.1311798 0.0127 0.81550002 0.57859999 0 0
-0.490318 11.644163 8.328721 -0.00089999998 0.59320003 -0.80510002 0 0
-0.489409 11.838535 9.1311798 -0.022399999 0.81550002 0.57840002 0 0
3.2035651 11.644163 8.3245373 0.31130001 0.80629998 0.50300002 0 0
3.202656 11.44979 7.522079 -0.29679999 0.61849999 -0.72759998 0 0
3.2035651 11.644163 8.3245373 0.39559999 0.80430001 0.44350001 0 0
6.2626772 10.430611 6.6743541 0.67659998 0.6814 0.27919999 0 0
5.3460212 10.311171 5.8497338 -0.3888 0.61809999 -0.6832 0 0
6.2626772 10.430611 6.6743541 0.4682 0.72549999 0.50449997 0 0
8.0904751 10.668449 3.3696101 0.63810003 0.64459997 -0.42109999 0 0
7.1747389 10.549183 3.3706551 -0.4404 0.5625 -0.6997 0 0
-8.7688799 10.694648 -2.8533731 -0.49380001 0.74919999 -0.44139999 0 0
-9.40518 10.374575 0.862997 -0.64340001 0.7277 0.2375 0 0
-8.5455132 10.270188 0.54225302 0.71429998 0.69819999 -0.048099998 0 0
-9.40518 10.374575 0.862997 -0.69849998 0.61260003 -0.3698 0 0
-9.7306318 10.549449 3.390528 -0.72469997 0.68779999 0.0416 0 0
-8.8071613 10.549449 3.389482 0.64209998 0.7342 -0.22040001 0 0
-9.7306318 10.549449 3.390528 -0.61589998 0.75880003 0.2119 0 0
-7.8808122 11.061045 5.9297142 -0.52270001 0.76660001 0.37290001 0 0
-6.9582491 10.866672 5.1262088 0.48730001 0.59850001 -0.63590002 0 0
-7.8808122 11.061045 5.9297142 -0.55239999 0.76050001 0.3414 0 0
-4.1842012 11.644163 8.3329048 -0.29629999 0.80779999 0.50959998 0 0
-4.1851101 11.44979 7.530447 0.29719999 0.61870003 -0.72719997 0 0
-0.48848799 4.9743381 9.944294 0.027899999 -0.030400001 -0.99910003 0 0
-4.1851101 11.44979 7.530447 0.36539999 0.6045 -0.70789999 0 0
-0.490318 11.644163 8.328721 -0.017100001 0.59320003 -0.80489999 0 0
-4.18328 4.7799649 9.1460209 0.46720001 -0.0162 -0.884 0 0
-6.9582491 10.866672 5.1262088 0.55919999 0.60180002 -0.57020003 0 0
-4.1851101 11.44979 7.530447 0.2807 0.61669999 -0.73540002 0 0
-6.9564199 4.196846 6.7417831 0.61330003 -0.1195 -0.78070003 0 0
-8.8071613 10.549449 3.389482 0.61189997 0.62730002 -0.4817 0 0
-6.9582491 10.866672 5.1262088 0.43470001 0.58740002 -0.68260002 0 0
-8.8071613 3.686749 3.389482 0.99550003 0.067599997 -0.065899998 0 0
-8.5455132 10.270188 0.54225302 0.54579997 0.7863 0.2897 0 0
-8.8071613 10.549449 3.389482 0.66659999 0.73820001 -0.1033 0 0
-9.6494255 3.540607 -0.22634199 0.99290001 0.0407 -0.1117 0 0
-7.9092131 10.590261 -3.1741159 0.63330001 0.63510001 -0.44229999 0 0
-8.5455132 10.270188 0.54225302 0.71749997 0.69580001 -0.0319 0 0
-9.0131254 3.8606801 -3.9427121 0.92699999 0.3529 -0.12720001 0 0
-8.7688799 10.694648 -2.8533731 -0.47209999 0.77060002 -0.42820001 0 0
-7.9092131 10.590261 -3.1741159 0.60409999 0.53609997 -0.58960003 0 0
-9.8727922 3.9650669 -3.6219659 -0.86309999 0.30059999 -0.4057 0 0
-9.40518 10.374575 0.862997 -0.62489998 0.76889998 0.1355 0 0
-8.7688799 10.694648 -2.8533731 -0.49039999 0.74910003 -0.4454 0 0
-10.509091 3.6449931 0.094402 -0.87269998 0.043000001 -0.48640001 0 0
-9.7306318 10.549449 3.390528 -0.58130002 0.80309999 -0.1304 0 0
-9.40518 10.374575 0.862997 -0.55659997 0.7529 -0.3511 0 0
-9.7306318 3.686749 3.390528 -0.85979998 -0.027100001 0.50999999 0 0
-7.8808122 11.061045 5.9297142 -0.5995 0.68099999 0.4206 0 0
-9.7306318 10.549449 3.390528 -0.67479998 0.67150003 0.30610001 0 0
-7.8789821 4.3912191 7.5452881 -0.71579999 0.077799998 0.69389999 0 0
-4.1842012 11.644163 8.3329048 -0.35370001 0.81080002 0.46630001 0 0
-7.8808122 11.061045 5.9297142 -0.55089998 0.7608 0.34299999 0 0
-4.1823711 4.9743381 9.9484787 -0.38049999 0.082900003 0.921 0 0
-0.489409 11.838535 9.1311798 -0.0603 0.8283 0.5571 0 0
-4.1842012 11.644163 8.3329048 -0.30340001 0.8071 0.50660002 0 0
-0.48757899 5.1687098 10.746753 -0.0051000002 0.0845 0.9964 0 0
3.2035651 11.644163 8.3245373 0.2262 0.82370001 0.51999998 0 0
-0.489409 11.838535 9.1311798 -0.018300001 0.81550002 0.57840002 0 0
3.205395 4.9743381 9.9401112 0.34959999 0.085500002 0.93300003 0 0
6.2626772 10.430611 6.6743541 0.53560001 0.76389998 0.35980001 0 0
3.2035651 11.644163 8.3245373 0.33570001 0.81370002 0.47459999 0 0
7.5403061 3.6610541 6.674355 0.736 0.047600001 0.6753 0 0
8.0904751 10.668449 3.3696101 0.54159999 0.7784 -0.31740001 0 0
6.2626772 10.430611 6.6743541 0.4285 0.7543 0.4973 0 0
9.3514929 4.003087 3.3696079 0.87129998 0.49079999 0.0044999998 0 0
7.1747389 10.549183 3.3706551 -0.42699999 0.57840002 -0.69499999 0 0
8.0904751 10.668449 3.3696101 0.60860002 0.662 -0.4375 0 0
8.4440613 3.831723 3.3706541 -0.71609998 0.19220001 -0.67110002 0 0
5.3460212 10.311171 5.8497338 -0.57480001 0.61919999 -0.53509998 0 0
7.1747389 10.549183 3.3706551 -0.4366 0.5359 -0.7227 0 0
6.6319551 3.489516 5.8497372 -0.72670001 -0.0502 -0.68510002 0 0
3.202656 11.44979 7.522079 -0.097000003 0.55900002 -0.82340002 0 0
5.3460212 10.311171 5.8497338 -0.42410001 0.63730001 -0.64340001 0 0
3.2044859 4.7799649 9.1376524 -0.39230001 -0.046300001 -0.91869998 0 0
-0.490318 11.644163 8.328721 0.082699999 0.57270002 -0.81559998 0 0
3.202656 11.44979 7.522079 -0.29980001 0.61879998 -0.72610003 0 0
-0.48848799 4.9743381 9.944294 0.0088 -0.0504 -0.99870002 0 0
-4.18328 4.7799649 9.1460209 0.45429999 -0.1133 -0.8836 0 0
-4.1851101 11.44979 7.530447 0.4666 0.56989998 -0.67640001 0 0
-4.18328 4.7799649 9.1460209 0.44490001 -0.061799999 -0.89340001 0 0
-6.9564199 4.196846 6.7417831 0.72259998 -0.1408 -0.67680001 0 0
-6.9582491 10.866672 5.1262088 0.62910002 0.59200001 -0.50370002 0 0
-6.9564199 4.196846 6.7417831 0.81190002 0.018300001 -0.58350003 0 0
-8.8071613 3.686749 3.389482 0.94440001 0.022500001 -0.3281 0 0
-8.8071613 10.549449 3.389482 0.68480003 0.7198 -0.1134 0 0
-8.8071613 3.686749 3.389482 0.91350001 -0.1382 -0.38260001 0 0
-9.6494255 3.540607 -0.22634199 0.98809999 -0.048099998 0.146 0 0
-8.5455132 10.270188 0.54225302 0.74370003 0.58639997 0.32089999 0 0
-9.6494255 3.540607 -0.22634199 0.98729998 -0.0285 -0.1564 0 0
-9.0131254 3.8606801 -3.9427121 0.92519999 0.37059999 -0.081200004 0 0
-7.9092131 10.590261 -3.1741159 0.63340002 0.63010001 -0.44909999 0 0
-8.8781843 3.6905231 -3.409291 0.27250001 0.74580002 -0.60790002 0 0
-9.8727922 3.9650669 -3.6219659 -0.52460003 0.33000001 -0.78479999 0 0
-8.7688799 10.694648 -2.8533731 -0.1516 0.71899998 -0.67830002 0 0
-9.8727922 3.9650669 -3.6219659 -0.86879998 0.25150001 -0.42640001 0 0
-10.509091 3.6449931 0.094402 -0.98509997 0.053599998 0.1636 0 0
-9.40518 10.374575 0.862997 -0.61570001 0.78250003 0.092600003 0 0
-10.509091 3.6449931 0.094402 -0.97869998 -0.16769999 -0.1186 0 0
-9.7306318 3.686749 3.390528 -0.9382 -0.011 0.34599999 0 0
-9.7306318 10.549449 3.390528 -0.72509998 0.68309999 0.086999997 0 0
-9.7306318 3.686749 3.390528 -0.949 0.049899999 0.3114 0 0
-7.8789821 4.3912191 7.5452881 -0.7913 0.080499999 0.60610002 0 0
-7.8808122 11.061045 5.9297142 -0.64499998 0.74199998 0.18279999 0 0
-7.8789821 4.3912191 7.5452881 -0.71079999 0.0656 0.70029998 0 0
-4.1823711 4.9743381 9.9484787 -0.3725 0.11 0.92150003 0 0
-4.1842012 11.644163 8.3329048 -0.40619999 0.80549997 0.43149999 0 0
-4.1823711 4.9743381 9.9484787 -0.37639999 0.078100003 0.92309999 0 0
-0.48757899 5.1687098 10.746753 0.026000001 0.1171 0.9928 0 0
-0.489409 11.838535 9.1311798 -0.1099 0.8312 0.54500002 0 0
-0.48757899 5.1687098 10.746753 0.00079999998 0.075999998 0.9971 0 0
3.205395 4.9743381 9.9401112 0.39390001 0.1146 0.912 0 0
3.2035651 11.644163 8.3245373 0.1717 0.82969999 0.53119999 0 0
3.205395 4.9743381 9.9401112 0.44769999 0.0087000001 0.89420003 0 0
7.5403061 3.6610541 6.674355 0.77630001 0.056600001 0.62779999 0 0
6.2626772 10.430611 6.6743541 0.42109999 0.76179999 0.49219999 0 0
7.5403061 3.6610541 6.674355 0.74220002 0.031800002 0.66939998 0 0
9.3514929 4.003087 3.3696079 0.85479999 0.51670003 0.047899999 0 0
8.0904751 10.668449 3.3696101 0.5388 0.78200001 -0.31330001 0 0
8.2622108 3.686749 3.3701479 -0.21610001 0.6735 0.7069 0 0
8.4440613 3.831723 3.3706541 0.57459998 0.5219 0.63050002 0 0
7.1747389 10.549183 3.3706551 0.2182 0.68379998 0.69620001 0 0
8.4440613 3.831723 3.3706541 -0.65719998 0.1515 -0.73839998 0 0
6.6319551 3.489516 5.8497372 -0.74589998 -0.1139 -0.65619999 0 0
5.3460212 10.311171 5.8497338 -0.52850002 0.60780001 -0.5927 0 0
6.6319551 3.489516 5.8497372 -0.78920001 -0.1003 -0.60579997 0 0
3.2044859 4.7799649 9.1376524 -0.4646 -0.1364 -0.87489998 0 0
3.202656 11.44979 7.522079 -0.21969999 0.55339998 -0.80339998 0 0
3.2044859 4.7799649 9.1376524 -0.4138 -0.071699999 -0.90750003 0 0
-0.48848799 4.9743381 9.944294 0.0188 -0.1092 -0.99379998 0 0
-0.490318 11.644163 8.328721 0.18189999 0.5302 -0.82819998 0 0
-8.7688799 10.694648 -2.8533731 -0.57050002 0.6376 0.51770002 0 0
-9.0131254 3.8606801 -3.9427121 -0.086599998 0.495 -0.8646 0 0
-8.8781843 3.6905231 -3.409291 -0.6943 0.70370001 0.1507 0 0
7.1747389 10.549183 3.3706551 -0.38839999 0.60479999 -0.69520003 0 0
9.3514929 4.003087 3.3696079 0.89279997 0.45039999 0.0052 0 0
8.2622108 3.686749 3.3701479 -0.027799999 0.70660001 -0.70709997 0 0
8.4440613 3.831723 3.3706541 0.1856 -0.98259997 0 0 0
9.3514929 4.003087 3.3696079 0.44710001 -0.7712 0.45320001 0 0
7.5403061 3.6610541 6.674355 0.1683 -0.95349997 -0.2502 0 0
8.4440613 3.831723 3.3706541 0.1856 -0.98259997 0 0 0
7.5403061 3.6610541 6.674355 0.1617 -0.95469999 -0.2498 0 0
6.6319551 3.489516 5.8497372 0.1206 -0.99159998 0.0473 0 0
7.5403061 3.6610541 6.674355 0.1068 -0.96210003 0.25080001 0 0
3.205395 4.9743381 9.9401112 -0.2436 -0.87819999 0.41170001 0 0
3.2044859 4.7799649 9.1376524 -0.1162 -0.96530002 0.2339 0 0
7.5403061 3.6610541 6.674355 0.096000001 -0.9048 0.41499999 0 0
3.2044859 4.7799649 9.1376524 -0.082099997 -0.95389998 0.2888 0 0
6.6319551 3.489516 5.8497372 -0.0425 -0.91570002 0.39950001 0 0
-7.8789821 4.3912191 7.5452881 0.1946 -0.91860002 0.34400001 0 0
-4.18328 4.7799649 9.1460209 0.1182 -0.99299997 -0.0089999996 0 0
-4.1823711 4.9743381 9.9484787 -0.17110001 -0.98210001 0.079099998 0 0
-7.8789821 4.3912191 7.5452881 0.226 -0.95289999 0.2023 0 0
-6.9564199 4.196846 6.7417831 -0.0392 -0.98559999 0.1644 0 0
-4.18328 4.7799649 9.1460209 0.2384 -0.90600002 0.34979999 0 0
-0.48848799 4.9743381 9.944294 0.00030000001 -0.97189999 0.23540001 0 0
3.205395 4.9743381 9.9401112 0.1252 -0.90990001 0.39559999 0 0
-0.48757899 5.1687098 10.746753 -0.1882 -0.89090002 0.41330001 0 0
-0.48848799 4.9743381 9.944294 0.00030000001 -0.97189999 0.23540001 0 0
-0.48757899 5.1687098 10.746753 -0.22939999 -0.9691 0.090599999 0 0
-4.1823711 4.9743381 9.9484787 0.1524 -0.98549998 0.075000003 0 0
-0.48848799 4.9743381 9.944294 0.00030000001 -0.97189999 0.23540001 0 0
3.2044859 4.7799649 9.1376524 -0.1751 -0.898 0.40360001 0 0
3.205395 4.9743381 9.9401112 0.12800001 -0.91039997 0.3935 0 0
-0.48848799 4.9743381 9.944294 0.00030000001 -0.97189999 0.23540001 0 0
-4.1823711 4.9743381 9.9484787 0.1529 -0.9853 0.075499997 0 0
-4.18328 4.7799649 9.1460209 -0.23019999 -0.96890002 0.090499997 0 0
-7.8789821 4.3912191 7.5452881 -0.088399999 -0.9149 0.39379999 0 0
-8.8071613 3.686749 3.389482 -0.22139999 -0.96090001 0.1662 0 0
-6.9564199 4.196846 6.7417831 -0.1663 -0.9637 0.20900001 0 0
-9.7306318 3.686749 3.390528 -0.047400001 -0.99089998 0.1257 0 0
-9.6494255 3.540607 -0.22634199 -0.36199999 -0.92559999 0.1111 0 0
-8.8071613 3.686749 3.389482 -0.1706 -0.98449999 0.039999999 0 0
-9.8727922 3.9650669 -3.6219659 -0.1609 -0.9806 -0.112 0 0
-9.0131254 3.8606801 -3.9427121 0.41510001 -0.90939999 0.0265 0 0
-9.6494255 3.540607 -0.22634199 0.0052999998 -0.9824 0.1868 0 0
-7.8789821 4.3912191 7.5452881 -0.0372 -0.92259997 0.38389999 0 0
-9.7306318 3.686749 3.390528 -0.090400003 -0.9874 0.12980001 0 0
-8.8071613 3.686749 3.389482 -0.1705 -0.97149998 0.1648 0 0
-9.7306318 3.686749 3.390528 -0.1538 -0.98049998 0.1226 0 0
-10.509091 3.6449931 0.094402 -0.44679999 -0.88749999 -0.1127 0 0
-9.6494255 3.540607 -0.22634199 -0.4165 -0.88230002 0.2194 0 0
-9.8727922 3.9650669 -3.6219659 -0.1609 -0.9806 -0.112 0 0
-9.6494255 3.540607 -0.22634199 0.0133 -0.98320001 0.1822 0 0
-10.509091 3.6449931 0.094402 -0.1012 -0.89529997 -0.4339 0 0
3 0 1 2
3 3 4 5
3 6 7 8
3 9 10 11
3 12 13 14
3 15 16 17
3 18 19 20
3 21 22 23
3 24 25 26
3 27 28 29
3 30 31 32
3 33 34 35
3 36 37 38
3 39 40 41
3 42 43 44
3 45 46 47
3 48 49 50
3 51 52 53
3 54 55 56
3 57 58 59
3 60 61 62
3 63 64 65
3 66 67 68
3 69 70 71
3 72 73 74
3 75 76 77
3 78 79 80
3 81 82 83
3 84 85 86
3 87 88 89
3 90 91 92
3 93 94 95
3 96 97 98
3 99 100 101
3 102 103 104
3 105 106 107
3 108 109 110
3 111 112 113
3 114 115 116
3 117 118 119
3 120 121 122
3 123 124 125
3 126 127 128
3 129 130 131
3 132 133 134
3 135 136 137
3 138 139 140
3 141 142 143
3 144 145 146
3 147 148 149
3 150 151 152
3 153 154 155
3 156 157 158
3 159 160 161
3 162 163 164
3 165 166 167
3 168 169 170
3 171 172 173
3 174 175 176
3 177 178 179
3 180 181 182
3 183 184 185
3 186 187 188
3 189 190 191
3 192 193 194
3 195 196 197
3 198 199 200
3 201 202 203
3 204 205 206
3 207 208 209
