ply
format ascii 1.0
comment Created by Open Asset Import Library - http://assimp.sf.net (v5.0.1588609223)
element vertex 18
property float x
property float y
property float z
property float nx
property float ny
property float nz
property float s
property float t
element face 6
property list uchar int vertex_index
end_header
0.057038002 0.073875003 -0.275754 0.3712 0.0049999999 -0.9285 0.72657102 0.32030299
0.66617 -0.77960497 0.237022 -0.1089 -0.94989997 0.2929 0.78125697 0.35155201
-0.27747199 -0.23069499 0.062655002 -0.92119998 -0.3874 0.037700001 0.72657102 0.35155201
0.057038002 0.073875003 -0.275754 0.3712 0.0049999999 -0.9285 0.72657102 0.32030299
0.82655001 -0.57885498 0.14410301 0.7001 -0.69859999 0.1477 0.78125697 0.32030299
0.66617 -0.77960497 0.237022 -0.1089 -0.94989997 0.2929 0.78125697 0.35155201
-0.27747199 -0.23069499 0.062655002 -0.92119998 -0.3874 0.037700001 0.71094602 0.0078119999
0.66617 -0.77960497 0.237022 -0.1089 -0.94989997 0.2929 0.79688102 0.0078119999
0.096271001 0.181705 0.279466 -0.37180001 0.69450003 0.61589998 0.71094602 0.031249
0.096271001 0.181705 0.279466 -0.37180001 0.69450003 0.61589998 0.71094602 0.031249
0.66617 -0.77960497 0.237022 -0.1089 -0.94989997 0.2929 0.79688102 0.0078119999
0.82655001 -0.57885498 0.14410301 0.7001 -0.69859999 0.1477 0.79688102 0.046874002
0.096271001 0.181705 0.279466 -0.37180001 0.69450003 0.61589998 0.71094602 0.031249
0.82655001 -0.57885498 0.14410301 0.7001 -0.69859999 0.1477 0.79688102 0.046874002
0.057038002 0.073875003 -0.275754 0.3712 0.0049999999 -0.9285 0.72657102 0.32030299
0.096271001 0.181705 0.279466 -0.37180001 0.69450003 0.61589998 0.71094602 0.031249
0.057038002 0.073875003 -0.275754 0.3712 0.0049999999 -0.9285 0.72657102 0.32030299
-0.27747199 -0.23069499 0.062655002 -0.92119998 -0.3874 0.037700001 0.72657102 0.35155201
3 0 1 2
3 3 4 5
3 6 7 8
3 9 10 11
3 12 13 14
3 15 16 17
