ply
format ascii 1.0
comment Created by Open Asset Import Library - http://assimp.sf.net (v5.0.1588609223)
element vertex 507
property float x
property float y
property float z
property float nx
property float ny
property float nz
property float s
property float t
element face 169
property list uchar int vertex_index
end_header
0.00128 -5.6955051 0.075903997 0 0.1166 0.9932 0.57032597 0.49998501
-1.1028531 -4.4726458 -0.38525099 -0.40189999 -0.90259999 0.1542 0.718759 0.57813799
-1.22273 -5.3049059 -0.37148499 -0.19320001 0.2471 0.94950002 0.72657102 0.49998501
0.00128 -5.6955051 0.075903997 0 0.1166 0.9932 0.57032597 0.49998501
0.00128 -4.4714961 0.056976002 0.3669 -0.37099999 0.8531 0.57032597 0.57813799
-1.1028531 -4.4726458 -0.38525099 -0.40189999 -0.90259999 0.1542 0.718759 0.57813799
0.00128 -5.6955051 0.075903997 0 0.1166 0.9932 0.57032597 0.49998501
-1.22273 -5.3049059 -0.37148499 -0.19320001 0.2471 0.94950002 0.72657102 0.49998501
-0.73633802 -6.4233789 0.024855999 -0.227 0.054000001 0.97240001 0.64844799 0.42967501
0.00128 -5.6955051 0.075903997 0 0.1166 0.9932 0.57032597 0.49998501
1.105413 -4.4726458 -0.38525099 0.3082 -0.5995 0.73869997 0.718759 0.57813799
0.00128 -4.4714961 0.056976002 0.3669 -0.37099999 0.8531 0.57032597 0.57813799
0.00128 -5.6955051 0.075903997 0 0.1166 0.9932 0.57032597 0.49998501
-0.73633802 -6.4233789 0.024855999 -0.227 0.054000001 0.97240001 0.64844799 0.42967501
0.00128 -6.674603 0.23191699 0 -0.1146 0.99339998 0.57032597 0.43748701
0.00128 -5.6955051 0.075903997 0 0.1166 0.9932 0.57032597 0.49998501
1.2252901 -5.3049059 -0.37148499 0.34290001 0.87970001 0.32949999 0.72657102 0.49998501
1.105413 -4.4726458 -0.38525099 0.3082 -0.5995 0.73869997 0.718759 0.57813799
0.00128 -5.6955051 0.075903997 0 0.1166 0.9932 0.57032597 0.49998501
0.00128 -6.674603 0.23191699 0 -0.1146 0.99339998 0.57032597 0.43748701
0.73889798 -6.4233789 0.024855999 0.32859999 -0.0392 0.94370002 0.64844799 0.42967501
0.00128 -5.6955051 0.075903997 0 0.1166 0.9932 0.57032597 0.49998501
0.73889798 -6.4233789 0.024855999 0.32859999 -0.0392 0.94370002 0.64844799 0.42967501
1.2252901 -5.3049059 -0.37148499 0.34290001 0.87970001 0.32949999 0.72657102 0.49998501
-1.1028531 -4.4726458 -0.38525099 -0.40189999 -0.90259999 0.1542 0.718759 0.57813799
-0.92160302 -4.2896762 -1.446939 -0.77420002 -0.2965 -0.55930001 0.87500399 0.57813799
-1.22273 -5.3049059 -0.37148499 -0.19320001 0.2471 0.94950002 0.72657102 0.49998501
-1.1028531 -4.4726458 -0.38525099 -0.40189999 -0.90259999 0.1542 0.718759 0.57813799
0.00128 -4.4714961 0.056976002 0.3669 -0.37099999 0.8531 0.57032597 0.57813799
0.00128 -4.1032658 0.50493902 -0.0288 -0.75999999 0.64929998 0.57032597 0.632824
-1.1028531 -4.4726458 -0.38525099 -0.40189999 -0.90259999 0.1542 0.718759 0.57813799
-1.880622 -3.622035 -0.86762702 -0.51950002 -0.67699999 -0.52130002 0.789069 0.64844799
-0.92160302 -4.2896762 -1.446939 -0.77420002 -0.2965 -0.55930001 0.87500399 0.57813799
-1.1028531 -4.4726458 -0.38525099 -0.40189999 -0.90259999 0.1542 0.718759 0.57813799
0.00128 -4.1032658 0.50493902 -0.0288 -0.75999999 0.64929998 0.57032597 0.632824
-1.432659 -3.9208651 0.42005 -0.51160002 -0.63050002 0.5837 0.69532198 0.632824
-1.1028531 -4.4726458 -0.38525099 -0.40189999 -0.90259999 0.1542 0.718759 0.57813799
-1.432659 -3.9208651 0.42005 -0.51160002 -0.63050002 0.5837 0.69532198 0.632824
-1.880622 -3.622035 -0.86762702 -0.51950002 -0.67699999 -0.52130002 0.789069 0.64844799
0.00128 -4.4714961 0.056976002 0.3669 -0.37099999 0.8531 0.57032597 0.57813799
1.105413 -4.4726458 -0.38525099 0.3082 -0.5995 0.73869997 0.718759 0.57813799
0.00128 -4.1032658 0.50493902 -0.0288 -0.75999999 0.64929998 0.57032597 0.632824
-0.73633802 -6.4233789 0.024855999 -0.227 0.054000001 0.97240001 0.64844799 0.42967501
0.00128 -7.6158419 -0.167292 0 -0.24959999 0.96829998 0.57032597 0.36717701
0.00128 -6.674603 0.23191699 0 -0.1146 0.99339998 0.57032597 0.43748701
-0.73633802 -6.4233789 0.024855999 -0.227 0.054000001 0.97240001 0.64844799 0.42967501
-1.22273 -5.3049059 -0.37148499 -0.19320001 0.2471 0.94950002 0.72657102 0.49998501
-1.569744 -5.6559348 -0.35026199 -0.47080001 -0.1645 0.86680001 0.75000799 0.46873599
-0.73633802 -6.4233789 0.024855999 -0.227 0.054000001 0.97240001 0.64844799 0.42967501
-0.58204699 -7.5108781 -0.23038501 -0.72430003 -0.63300002 0.27320001 0.60938698 0.36717701
0.00128 -7.6158419 -0.167292 0 -0.24959999 0.96829998 0.57032597 0.36717701
-0.73633802 -6.4233789 0.024855999 -0.227 0.054000001 0.97240001 0.64844799 0.42967501
-1.569744 -5.6559348 -0.35026199 -0.47080001 -0.1645 0.86680001 0.75000799 0.46873599
-1.091382 -7.032515 -0.117391 -0.192 -0.1749 0.96569997 0.67969698 0.374989
-0.73633802 -6.4233789 0.024855999 -0.227 0.054000001 0.97240001 0.64844799 0.42967501
-1.091382 -7.032515 -0.117391 -0.192 -0.1749 0.96569997 0.67969698 0.374989
-0.58204699 -7.5108781 -0.23038501 -0.72430003 -0.63300002 0.27320001 0.60938698 0.36717701
0.00128 -6.674603 0.23191699 0 -0.1146 0.99339998 0.57032597 0.43748701
0.00128 -7.6158419 -0.167292 0 -0.24959999 0.96829998 0.57032597 0.36717701
0.73889798 -6.4233789 0.024855999 0.32859999 -0.0392 0.94370002 0.64844799 0.42967501
1.2252901 -5.3049059 -0.37148499 0.34290001 0.87970001 0.32949999 0.72657102 0.49998501
0.92416298 -4.2896762 -1.446939 0.56699997 -0.0034 -0.82370001 0.87500399 0.57813799
1.105413 -4.4726458 -0.38525099 0.3082 -0.5995 0.73869997 0.718759 0.57813799
1.2252901 -5.3049059 -0.37148499 0.34290001 0.87970001 0.32949999 0.72657102 0.49998501
0.73889798 -6.4233789 0.024855999 0.32859999 -0.0392 0.94370002 0.64844799 0.42967501
1.572304 -5.6559348 -0.35026199 0.2978 0.87589997 0.37970001 0.75000799 0.46873599
1.2252901 -5.3049059 -0.37148499 0.34290001 0.87970001 0.32949999 0.72657102 0.49998501
0.86451101 -5.1815848 -1.474471 0.59729999 0.0035999999 -0.80199999 0.87500399 0.49998501
0.92416298 -4.2896762 -1.446939 0.56699997 -0.0034 -0.82370001 0.87500399 0.57813799
1.2252901 -5.3049059 -0.37148499 0.34290001 0.87970001 0.32949999 0.72657102 0.49998501
1.572304 -5.6559348 -0.35026199 0.2978 0.87589997 0.37970001 0.75000799 0.46873599
0.86451101 -5.1815848 -1.474471 0.59729999 0.0035999999 -0.80199999 0.87500399 0.49998501
-0.92160302 -4.2896762 -1.446939 -0.77420002 -0.2965 -0.55930001 0.87500399 0.57813799
-1.880622 -3.622035 -0.86762702 -0.51950002 -0.67699999 -0.52130002 0.789069 0.64844799
-1.1372681 -3.1241651 -1.6689119 -0.40439999 -0.1234 -0.90619999 0.89062899 0.66407299
-0.92160302 -4.2896762 -1.446939 -0.77420002 -0.2965 -0.55930001 0.87500399 0.57813799
-0.86195099 -5.1815848 -1.474471 -0.80729997 0.32640001 -0.49160001 0.87500399 0.49998501
-1.22273 -5.3049059 -0.37148499 -0.19320001 0.2471 0.94950002 0.72657102 0.49998501
-0.92160302 -4.2896762 -1.446939 -0.77420002 -0.2965 -0.55930001 0.87500399 0.57813799
-1.1372681 -3.1241651 -1.6689119 -0.40439999 -0.1234 -0.90619999 0.89062899 0.66407299
0.00128 -4.044755 -1.767568 -0 -0.1111 -0.99379998 0.99218798 0.57813799
-0.92160302 -4.2896762 -1.446939 -0.77420002 -0.2965 -0.55930001 0.87500399 0.57813799
0.00128 -5.3582449 -1.755523 0 0.20119999 -0.9795 0.99218798 0.49998501
-0.86195099 -5.1815848 -1.474471 -0.80729997 0.32640001 -0.49160001 0.87500399 0.49998501
-0.92160302 -4.2896762 -1.446939 -0.77420002 -0.2965 -0.55930001 0.87500399 0.57813799
0.00128 -4.044755 -1.767568 -0 -0.1111 -0.99379998 0.99218798 0.57813799
0.00128 -5.3582449 -1.755523 0 0.20119999 -0.9795 0.99218798 0.49998501
-1.22273 -5.3049059 -0.37148499 -0.19320001 0.2471 0.94950002 0.72657102 0.49998501
-0.86195099 -5.1815848 -1.474471 -0.80729997 0.32640001 -0.49160001 0.87500399 0.49998501
-1.569744 -5.6559348 -0.35026199 -0.47080001 -0.1645 0.86680001 0.75000799 0.46873599
-1.432659 -3.9208651 0.42005 -0.51160002 -0.63050002 0.5837 0.69532198 0.632824
0.00128 -4.1032658 0.50493902 -0.0288 -0.75999999 0.64929998 0.57032597 0.632824
0.00128 -3.572706 0.98100799 -0 -0.38600001 0.92250001 0.57032597 0.67969698
-1.432659 -3.9208651 0.42005 -0.51160002 -0.63050002 0.5837 0.69532198 0.632824
-1.621366 -2.837956 0.79172802 -0.61150002 -0.1917 0.76770002 0.68751001 0.75000799
-1.880622 -3.622035 -0.86762702 -0.51950002 -0.67699999 -0.52130002 0.789069 0.64844799
-1.432659 -3.9208651 0.42005 -0.51160002 -0.63050002 0.5837 0.69532198 0.632824
0.00128 -3.572706 0.98100799 -0 -0.38600001 0.92250001 0.57032597 0.67969698
-1.621366 -2.837956 0.79172802 -0.61150002 -0.1917 0.76770002 0.68751001 0.75000799
-1.091382 -7.032515 -0.117391 -0.192 -0.1749 0.96569997 0.67969698 0.374989
-1.569744 -5.6559348 -0.35026199 -0.47080001 -0.1645 0.86680001 0.75000799 0.46873599
-1.525578 -6.901165 -0.567074 -0.78530002 -0.50199997 0.36230001 0.75000799 0.374989
-0.58204699 -7.5108781 -0.23038501 -0.72430003 -0.63300002 0.27320001 0.60938698 0.36717701
0.00128 -7.5275111 -1.171623 -0 -0.9404 0.34 0.57032597 0.34373999
0.00128 -7.6158419 -0.167292 0 -0.24959999 0.96829998 0.57032597 0.36717701
-0.58204699 -7.5108781 -0.23038501 -0.72430003 -0.63300002 0.27320001 0.60938698 0.36717701
-0.439226 -7.5940461 -1.34771 -0.2647 -0.72979999 -0.63029999 0.60938698 0.34373999
0.00128 -7.5275111 -1.171623 -0 -0.9404 0.34 0.57032597 0.34373999
1.105413 -4.4726458 -0.38525099 0.3082 -0.5995 0.73869997 0.718759 0.57813799
0.92416298 -4.2896762 -1.446939 0.56699997 -0.0034 -0.82370001 0.87500399 0.57813799
1.883182 -3.622035 -0.86762702 0.60479999 -0.7902 -0.098999999 0.789069 0.64844799
1.105413 -4.4726458 -0.38525099 0.3082 -0.5995 0.73869997 0.718759 0.57813799
1.435219 -3.9208651 0.42005 0.5535 -0.54180002 0.63249999 0.69532198 0.632824
0.00128 -4.1032658 0.50493902 -0.0288 -0.75999999 0.64929998 0.57032597 0.632824
1.105413 -4.4726458 -0.38525099 0.3082 -0.5995 0.73869997 0.718759 0.57813799
1.883182 -3.622035 -0.86762702 0.60479999 -0.7902 -0.098999999 0.789069 0.64844799
1.435219 -3.9208651 0.42005 0.5535 -0.54180002 0.63249999 0.69532198 0.632824
0.00128 -4.1032658 0.50493902 -0.0288 -0.75999999 0.64929998 0.57032597 0.632824
1.435219 -3.9208651 0.42005 0.5535 -0.54180002 0.63249999 0.69532198 0.632824
0.00128 -3.572706 0.98100799 -0 -0.38600001 0.92250001 0.57032597 0.67969698
0.73889798 -6.4233789 0.024855999 0.32859999 -0.0392 0.94370002 0.64844799 0.42967501
1.093942 -7.032515 -0.117391 0.49239999 -0.5011 0.71160001 0.67969698 0.374989
1.572304 -5.6559348 -0.35026199 0.2978 0.87589997 0.37970001 0.75000799 0.46873599
0.73889798 -6.4233789 0.024855999 0.32859999 -0.0392 0.94370002 0.64844799 0.42967501
0.00128 -7.6158419 -0.167292 0 -0.24959999 0.96829998 0.57032597 0.36717701
0.58460701 -7.5108781 -0.23038501 0.46610001 -0.24169999 0.85110003 0.60938698 0.36717701
0.73889798 -6.4233789 0.024855999 0.32859999 -0.0392 0.94370002 0.64844799 0.42967501
0.58460701 -7.5108781 -0.23038501 0.46610001 -0.24169999 0.85110003 0.60938698 0.36717701
1.093942 -7.032515 -0.117391 0.49239999 -0.5011 0.71160001 0.67969698 0.374989
0.00128 -7.6158419 -0.167292 0 -0.24959999 0.96829998 0.57032597 0.36717701
0.00128 -7.5275111 -1.171623 -0 -0.9404 0.34 0.57032597 0.34373999
0.58460701 -7.5108781 -0.23038501 0.46610001 -0.24169999 0.85110003 0.60938698 0.36717701
0.86451101 -5.1815848 -1.474471 0.59729999 0.0035999999 -0.80199999 0.87500399 0.49998501
1.126635 -6.0069652 -1.854178 0.63700002 0.21510001 -0.74019998 0.88281602 0.460924
0.00128 -5.3582449 -1.755523 0 0.20119999 -0.9795 0.99218798 0.49998501
0.86451101 -5.1815848 -1.474471 0.59729999 0.0035999999 -0.80199999 0.87500399 0.49998501
0.00128 -5.3582449 -1.755523 0 0.20119999 -0.9795 0.99218798 0.49998501
0.92416298 -4.2896762 -1.446939 0.56699997 -0.0034 -0.82370001 0.87500399 0.57813799
0.86451101 -5.1815848 -1.474471 0.59729999 0.0035999999 -0.80199999 0.87500399 0.49998501
1.572304 -5.6559348 -0.35026199 0.2978 0.87589997 0.37970001 0.75000799 0.46873599
1.126635 -6.0069652 -1.854178 0.63700002 0.21510001 -0.74019998 0.88281602 0.460924
-1.1372681 -3.1241651 -1.6689119 -0.40439999 -0.1234 -0.90619999 0.89062899 0.66407299
0.00128 -2.8052649 -1.873678 -0 0.024800001 -0.99970001 0.99218798 0.66407299
0.00128 -4.044755 -1.767568 -0 -0.1111 -0.99379998 0.99218798 0.57813799
-1.1372681 -3.1241651 -1.6689119 -0.40439999 -0.1234 -0.90619999 0.89062899 0.66407299
-1.880622 -3.622035 -0.86762702 -0.51950002 -0.67699999 -0.52130002 0.789069 0.64844799
-1.448146 -1.8554261 -1.521503 -0.477 0.14219999 -0.86729997 0.88281602 0.76563197
-1.1372681 -3.1241651 -1.6689119 -0.40439999 -0.1234 -0.90619999 0.89062899 0.66407299
-1.448146 -1.8554261 -1.521503 -0.477 0.14219999 -0.86729997 0.88281602 0.76563197
0.00128 -2.8052649 -1.873678 -0 0.024800001 -0.99970001 0.99218798 0.66407299
-0.86195099 -5.1815848 -1.474471 -0.80729997 0.32640001 -0.49160001 0.87500399 0.49998501
-1.1240751 -6.0069652 -1.854178 -0.67119998 0.111 -0.73290002 0.88281602 0.460924
-1.569744 -5.6559348 -0.35026199 -0.47080001 -0.1645 0.86680001 0.75000799 0.46873599
-0.86195099 -5.1815848 -1.474471 -0.80729997 0.32640001 -0.49160001 0.87500399 0.49998501
0.00128 -5.3582449 -1.755523 0 0.20119999 -0.9795 0.99218798 0.49998501
-1.1240751 -6.0069652 -1.854178 -0.67119998 0.111 -0.73290002 0.88281602 0.460924
-1.569744 -5.6559348 -0.35026199 -0.47080001 -0.1645 0.86680001 0.75000799 0.46873599
-1.1240751 -6.0069652 -1.854178 -0.67119998 0.111 -0.73290002 0.88281602 0.460924
-1.525578 -6.901165 -0.567074 -0.78530002 -0.50199997 0.36230001 0.75000799 0.374989
-1.621366 -2.837956 0.79172802 -0.61150002 -0.1917 0.76770002 0.68751001 0.75000799
0.00128 -3.572706 0.98100799 -0 -0.38600001 0.92250001 0.57032597 0.67969698
0.00128 -1.9144959 1.115798 0 0.29350001 0.95599997 0.57032597 0.82813001
-1.621366 -2.837956 0.79172802 -0.61150002 -0.1917 0.76770002 0.68751001 0.75000799
-2.3555419 -2.116395 -0.399589 -0.94260001 0.33039999 0.048599999 0.789069 0.76563197
-1.880622 -3.622035 -0.86762702 -0.51950002 -0.67699999 -0.52130002 0.789069 0.64844799
-1.621366 -2.837956 0.79172802 -0.61150002 -0.1917 0.76770002 0.68751001 0.75000799
0.00128 -1.9144959 1.115798 0 0.29350001 0.95599997 0.57032597 0.82813001
-1.376449 -1.541676 0.60703701 -0.060199998 0.3127 0.9479 0.718759 0.84375501
-1.621366 -2.837956 0.79172802 -0.61150002 -0.1917 0.76770002 0.68751001 0.75000799
-2.131274 -1.8313351 0.37072399 -0.59359998 -0.34779999 0.72570002 0.74219501 0.804694
-2.3555419 -2.116395 -0.399589 -0.94260001 0.33039999 0.048599999 0.789069 0.76563197
-1.621366 -2.837956 0.79172802 -0.61150002 -0.1917 0.76770002 0.68751001 0.75000799
-1.376449 -1.541676 0.60703701 -0.060199998 0.3127 0.9479 0.718759 0.84375501
-2.131274 -1.8313351 0.37072399 -0.59359998 -0.34779999 0.72570002 0.74219501 0.804694
-1.880622 -3.622035 -0.86762702 -0.51950002 -0.67699999 -0.52130002 0.789069 0.64844799
-2.3555419 -2.116395 -0.399589 -0.94260001 0.33039999 0.048599999 0.789069 0.76563197
-1.448146 -1.8554261 -1.521503 -0.477 0.14219999 -0.86729997 0.88281602 0.76563197
1.883182 -3.622035 -0.86762702 0.60479999 -0.7902 -0.098999999 0.789069 0.64844799
1.6239259 -2.837956 0.79172802 0.59219998 -0.2026 0.77990001 0.68751001 0.75000799
1.435219 -3.9208651 0.42005 0.5535 -0.54180002 0.63249999 0.69532198 0.632824
1.883182 -3.622035 -0.86762702 0.60479999 -0.7902 -0.098999999 0.789069 0.64844799
0.92416298 -4.2896762 -1.446939 0.56699997 -0.0034 -0.82370001 0.87500399 0.57813799
1.140401 -3.1241651 -1.6689119 0.40450001 -0.1234 -0.90619999 0.89062899 0.66407299
1.883182 -3.622035 -0.86762702 0.60479999 -0.7902 -0.098999999 0.789069 0.64844799
2.3581021 -2.116395 -0.399589 0.94260001 0.33019999 0.048700001 0.789069 0.76563197
1.6239259 -2.837956 0.79172802 0.59219998 -0.2026 0.77990001 0.68751001 0.75000799
1.883182 -3.622035 -0.86762702 0.60479999 -0.7902 -0.098999999 0.789069 0.64844799
1.140401 -3.1241651 -1.6689119 0.40450001 -0.1234 -0.90619999 0.89062899 0.66407299
1.450706 -1.8554261 -1.521503 0.477 0.14210001 -0.86729997 0.88281602 0.76563197
1.883182 -3.622035 -0.86762702 0.60479999 -0.7902 -0.098999999 0.789069 0.64844799
1.450706 -1.8554261 -1.521503 0.477 0.14210001 -0.86729997 0.88281602 0.76563197
2.3581021 -2.116395 -0.399589 0.94260001 0.33019999 0.048700001 0.789069 0.76563197
1.140401 -3.1241651 -1.6689119 0.40450001 -0.1234 -0.90619999 0.89062899 0.66407299
0.92416298 -4.2896762 -1.446939 0.56699997 -0.0034 -0.82370001 0.87500399 0.57813799
0.00128 -4.044755 -1.767568 -0 -0.1111 -0.99379998 0.99218798 0.57813799
1.140401 -3.1241651 -1.6689119 0.40450001 -0.1234 -0.90619999 0.89062899 0.66407299
0.00128 -4.044755 -1.767568 -0 -0.1111 -0.99379998 0.99218798 0.57813799
0.00128 -2.8052649 -1.873678 -0 0.024800001 -0.99970001 0.99218798 0.66407299
1.140401 -3.1241651 -1.6689119 0.40450001 -0.1234 -0.90619999 0.89062899 0.66407299
0.00128 -2.8052649 -1.873678 -0 0.024800001 -0.99970001 0.99218798 0.66407299
1.450706 -1.8554261 -1.521503 0.477 0.14210001 -0.86729997 0.88281602 0.76563197
0.00128 -3.572706 0.98100799 -0 -0.38600001 0.92250001 0.57032597 0.67969698
1.6239259 -2.837956 0.79172802 0.59219998 -0.2026 0.77990001 0.68751001 0.75000799
0.00128 -1.9144959 1.115798 0 0.29350001 0.95599997 0.57032597 0.82813001
0.00128 -3.572706 0.98100799 -0 -0.38600001 0.92250001 0.57032597 0.67969698
1.435219 -3.9208651 0.42005 0.5535 -0.54180002 0.63249999 0.69532198 0.632824
1.6239259 -2.837956 0.79172802 0.59219998 -0.2026 0.77990001 0.68751001 0.75000799
0.00128 -4.044755 -1.767568 -0 -0.1111 -0.99379998 0.99218798 0.57813799
0.92416298 -4.2896762 -1.446939 0.56699997 -0.0034 -0.82370001 0.87500399 0.57813799
0.00128 -5.3582449 -1.755523 0 0.20119999 -0.9795 0.99218798 0.49998501
1.093942 -7.032515 -0.117391 0.49239999 -0.5011 0.71160001 0.67969698 0.374989
1.5281379 -6.901165 -0.567074 0.62290001 -0.54210001 0.56400001 0.75000799 0.374989
1.572304 -5.6559348 -0.35026199 0.2978 0.87589997 0.37970001 0.75000799 0.46873599
1.572304 -5.6559348 -0.35026199 0.2978 0.87589997 0.37970001 0.75000799 0.46873599
1.5281379 -6.901165 -0.567074 0.62290001 -0.54210001 0.56400001 0.75000799 0.374989
1.126635 -6.0069652 -1.854178 0.63700002 0.21510001 -0.74019998 0.88281602 0.460924
0.00128 -7.5275111 -1.171623 -0 -0.9404 0.34 0.57032597 0.34373999
0.44178599 -7.5940461 -1.34771 0.041000001 -0.9727 0.22840001 0.60938698 0.34373999
0.58460701 -7.5108781 -0.23038501 0.46610001 -0.24169999 0.85110003 0.60938698 0.36717701
-1.1240751 -6.0069652 -1.854178 -0.67119998 0.111 -0.73290002 0.88281602 0.460924
-0.968063 -7.4099269 -1.581156 -0.70520002 -0.63319999 -0.3188 0.86719197 0.374989
-1.525578 -6.901165 -0.567074 -0.78530002 -0.50199997 0.36230001 0.75000799 0.374989
-1.1240751 -6.0069652 -1.854178 -0.67119998 0.111 -0.73290002 0.88281602 0.460924
0.00128 -5.3582449 -1.755523 0 0.20119999 -0.9795 0.99218798 0.49998501
0.00128 -6.2874398 -2.052635 -0.4226 0.1194 -0.89840001 0.99218798 0.445299
-1.1240751 -6.0069652 -1.854178 -0.67119998 0.111 -0.73290002 0.88281602 0.460924
-0.28952301 -7.0181761 -1.9287419 -0.1987 -0.69379997 -0.69220001 0.96093899 0.40623799
-0.968063 -7.4099269 -1.581156 -0.70520002 -0.63319999 -0.3188 0.86719197 0.374989
-1.1240751 -6.0069652 -1.854178 -0.67119998 0.111 -0.73290002 0.88281602 0.460924
0.00128 -6.2874398 -2.052635 -0.4226 0.1194 -0.89840001 0.99218798 0.445299
-0.28952301 -7.0181761 -1.9287419 -0.1987 -0.69379997 -0.69220001 0.96093899 0.40623799
0.00128 -5.3582449 -1.755523 0 0.20119999 -0.9795 0.99218798 0.49998501
1.126635 -6.0069652 -1.854178 0.63700002 0.21510001 -0.74019998 0.88281602 0.460924
0.00128 -6.2874398 -2.052635 -0.4226 0.1194 -0.89840001 0.99218798 0.445299
-1.376449 -1.541676 0.60703701 -0.060199998 0.3127 0.9479 0.718759 0.84375501
0.00128 -1.9144959 1.115798 0 0.29350001 0.95599997 0.57032597 0.82813001
0.00128 -1.360424 0.57090098 -0.2608 0.19059999 0.94639999 0.57032597 0.88281602
-1.376449 -1.541676 0.60703701 -0.060199998 0.3127 0.9479 0.718759 0.84375501
0.00128 -1.360424 0.57090098 -0.2608 0.19059999 0.94639999 0.57032597 0.88281602
-0.88260001 -1.061015 0.27149501 -0.030099999 0.4364 0.89929998 0.65626103 0.89844102
-1.376449 -1.541676 0.60703701 -0.060199998 0.3127 0.9479 0.718759 0.84375501
-0.88260001 -1.061015 0.27149501 -0.030099999 0.4364 0.89929998 0.65626103 0.89844102
-1.4573231 -0.84076399 0.372444 0.1508 0.1321 0.97970003 0.718759 0.92187798
-2.3555419 -2.116395 -0.399589 -0.94260001 0.33039999 0.048599999 0.789069 0.76563197
-1.97813 -1.490055 -0.89802599 -0.67119998 0.091600001 -0.73559999 0.85156697 0.804694
-1.448146 -1.8554261 -1.521503 -0.477 0.14219999 -0.86729997 0.88281602 0.76563197
2.3581021 -2.116395 -0.399589 0.94260001 0.33019999 0.048700001 0.789069 0.76563197
1.450706 -1.8554261 -1.521503 0.477 0.14210001 -0.86729997 0.88281602 0.76563197
1.9812629 -1.490055 -0.89802599 0.67119998 0.091399997 -0.73559999 0.85156697 0.804694
2.3581021 -2.116395 -0.399589 0.94260001 0.33019999 0.048700001 0.789069 0.76563197
2.1338339 -1.831905 0.37072399 0.59369999 -0.3479 0.7256 0.74219501 0.804694
1.6239259 -2.837956 0.79172802 0.59219998 -0.2026 0.77990001 0.68751001 0.75000799
0.00128 -2.8052649 -1.873678 -0 0.024800001 -0.99970001 0.99218798 0.66407299
-1.448146 -1.8554261 -1.521503 -0.477 0.14219999 -0.86729997 0.88281602 0.76563197
0.00128 -1.813545 -1.781333 0 0.2095 -0.97780001 0.99218798 0.74219501
0.00128 -2.8052649 -1.873678 -0 0.024800001 -0.99970001 0.99218798 0.66407299
0.00128 -1.813545 -1.781333 0 0.2095 -0.97780001 0.99218798 0.74219501
1.450706 -1.8554261 -1.521503 0.477 0.14210001 -0.86729997 0.88281602 0.76563197
1.5281379 -6.901165 -0.567074 0.62290001 -0.54210001 0.56400001 0.75000799 0.374989
0.97062302 -7.4099269 -1.581156 0.68159997 -0.0704 -0.72829998 0.86719197 0.374989
1.126635 -6.0069652 -1.854178 0.63700002 0.21510001 -0.74019998 0.88281602 0.460924
-0.968063 -7.4099269 -1.581156 -0.70520002 -0.63319999 -0.3188 0.86719197 0.374989
-0.28952301 -7.0181761 -1.9287419 -0.1987 -0.69379997 -0.69220001 0.96093899 0.40623799
-0.439226 -7.5940461 -1.34771 -0.2647 -0.72979999 -0.63029999 0.95312703 0.374989
0.00128 -6.2874398 -2.052635 -0.4226 0.1194 -0.89840001 0.99218798 0.445299
1.126635 -6.0069652 -1.854178 0.63700002 0.21510001 -0.74019998 0.88281602 0.460924
0.292083 -7.0181761 -1.9287419 -0.40040001 0.069499999 -0.91369998 0.96093899 0.40623799
0.00128 -6.2874398 -2.052635 -0.4226 0.1194 -0.89840001 0.99218798 0.445299
0.00128 -7.5275111 -1.171623 -0 -0.9404 0.34 0.99218798 0.374989
-0.28952301 -7.0181761 -1.9287419 -0.1987 -0.69379997 -0.69220001 0.96093899 0.40623799
0.00128 -6.2874398 -2.052635 -0.4226 0.1194 -0.89840001 0.99218798 0.445299
0.292083 -7.0181761 -1.9287419 -0.40040001 0.069499999 -0.91369998 0.96093899 0.40623799
0.00128 -7.5275111 -1.171623 -0 -0.9404 0.34 0.99218798 0.374989
-0.28952301 -7.0181761 -1.9287419 -0.1987 -0.69379997 -0.69220001 0.96093899 0.40623799
0.00128 -7.5275111 -1.171623 -0 -0.9404 0.34 0.99218798 0.374989
-0.439226 -7.5940461 -1.34771 -0.2647 -0.72979999 -0.63029999 0.95312703 0.374989
1.126635 -6.0069652 -1.854178 0.63700002 0.21510001 -0.74019998 0.88281602 0.460924
0.97062302 -7.4099269 -1.581156 0.68159997 -0.0704 -0.72829998 0.86719197 0.374989
0.292083 -7.0181761 -1.9287419 -0.40040001 0.069499999 -0.91369998 0.96093899 0.40623799
0.00128 -1.9144959 1.115798 0 0.29350001 0.95599997 0.57032597 0.82813001
1.379009 -1.541676 0.60703701 0.0601 0.3127 0.9479 0.718759 0.84375501
0.00128 -1.360424 0.57090098 -0.2608 0.19059999 0.94639999 0.57032597 0.88281602
0.00128 -1.9144959 1.115798 0 0.29350001 0.95599997 0.57032597 0.82813001
1.6239259 -2.837956 0.79172802 0.59219998 -0.2026 0.77990001 0.68751001 0.75000799
1.379009 -1.541676 0.60703701 0.0601 0.3127 0.9479 0.718759 0.84375501
1.6239259 -2.837956 0.79172802 0.59219998 -0.2026 0.77990001 0.68751001 0.75000799
2.1338339 -1.831905 0.37072399 0.59369999 -0.3479 0.7256 0.74219501 0.804694
1.379009 -1.541676 0.60703701 0.0601 0.3127 0.9479 0.718759 0.84375501
-0.88260001 -1.061015 0.27149501 -0.030099999 0.4364 0.89929998 0.65626103 0.89844102
-0.96978402 -0.42951599 0.36154601 0.1869 0.64649999 0.73970002 0.65626103 0.945315
-1.4573231 -0.84076399 0.372444 0.1508 0.1321 0.97970003 0.718759 0.92187798
-0.88260001 -1.061015 0.27149501 -0.030099999 0.4364 0.89929998 0.65626103 0.89844102
0.00128 -1.360424 0.57090098 -0.2608 0.19059999 0.94639999 0.57032597 0.88281602
-0.96978402 -0.42951599 0.36154601 0.1869 0.64649999 0.73970002 0.65626103 0.945315
-1.97813 -1.490055 -0.89802599 -0.67119998 0.091600001 -0.73559999 0.85156697 0.804694
-0.911852 -0.200655 -1.002417 -0.53740001 0.35370001 -0.76560003 0.92969 0.90625298
-1.448146 -1.8554261 -1.521503 -0.477 0.14219999 -0.86729997 0.88281602 0.76563197
-1.97813 -1.490055 -0.89802599 -0.67119998 0.091600001 -0.73559999 0.85156697 0.804694
-1.5221369 -0.61076498 -0.74201399 -0.63880002 0.64749998 -0.41549999 0.87500399 0.88281602
-0.911852 -0.200655 -1.002417 -0.53740001 0.35370001 -0.76560003 0.92969 0.90625298
1.9812629 -1.490055 -0.89802599 0.67119998 0.091399997 -0.73559999 0.85156697 0.804694
1.450706 -1.8554261 -1.521503 0.477 0.14210001 -0.86729997 0.88281602 0.76563197
0.91441202 -0.200655 -1.002417 0.64740002 0.39919999 -0.64920002 0.92969 0.90625298
1.9812629 -1.490055 -0.89802599 0.67119998 0.091399997 -0.73559999 0.85156697 0.804694
0.91441202 -0.200655 -1.002417 0.64740002 0.39919999 -0.64920002 0.92969 0.90625298
1.5246971 -0.61076498 -0.74201399 0.45030001 0.54629999 -0.7062 0.87500399 0.88281602
0.00128 -1.813545 -1.781333 0 0.2095 -0.97780001 0.99218798 0.74219501
-1.448146 -1.8554261 -1.521503 -0.477 0.14219999 -0.86729997 0.88281602 0.76563197
0.00128 -0.458195 -1.3161631 0 0.41749999 -0.90869999 0.99218798 0.87500399
0.00128 -1.813545 -1.781333 0 0.2095 -0.97780001 0.99218798 0.74219501
0.00128 -0.458195 -1.3161631 0 0.41749999 -0.90869999 0.99218798 0.87500399
1.450706 -1.8554261 -1.521503 0.477 0.14210001 -0.86729997 0.88281602 0.76563197
1.450706 -1.8554261 -1.521503 0.477 0.14210001 -0.86729997 0.88281602 0.76563197
0.00128 -0.458195 -1.3161631 0 0.41749999 -0.90869999 0.99218798 0.87500399
0.91441202 -0.200655 -1.002417 0.64740002 0.39919999 -0.64920002 0.92969 0.90625298
-1.448146 -1.8554261 -1.521503 -0.477 0.14219999 -0.86729997 0.88281602 0.76563197
-0.911852 -0.200655 -1.002417 -0.53740001 0.35370001 -0.76560003 0.92969 0.90625298
0.00128 -0.458195 -1.3161631 0 0.41749999 -0.90869999 0.99218798 0.87500399
0.00128 -7.5275111 -1.171623 -0 -0.9404 0.34 0.99218798 0.374989
0.292083 -7.0181761 -1.9287419 -0.40040001 0.069499999 -0.91369998 0.96093899 0.40623799
0.44178599 -7.5940461 -1.34771 0.041000001 -0.9727 0.22840001 0.95312703 0.374989
0.44178599 -7.5940461 -1.34771 0.041000001 -0.9727 0.22840001 0.95312703 0.374989
0.292083 -7.0181761 -1.9287419 -0.40040001 0.069499999 -0.91369998 0.96093899 0.40623799
0.97062302 -7.4099269 -1.581156 0.68159997 -0.0704 -0.72829998 0.86719197 0.374989
1.379009 -1.541676 0.60703701 0.0601 0.3127 0.9479 0.718759 0.84375501
0.88573402 -1.061015 0.27149501 0.3251 0.1245 0.9375 0.65626103 0.89844102
0.00128 -1.360424 0.57090098 -0.2608 0.19059999 0.94639999 0.57032597 0.88281602
1.379009 -1.541676 0.60703701 0.0601 0.3127 0.9479 0.718759 0.84375501
1.459883 -0.84076399 0.372444 -0.38940001 0.31 0.86729997 0.718759 0.92187798
0.88573402 -1.061015 0.27149501 0.3251 0.1245 0.9375 0.65626103 0.89844102
-1.4573231 -0.84076399 0.372444 0.1508 0.1321 0.97970003 0.718759 0.92187798
-0.96978402 -0.42951599 0.36154601 0.1869 0.64649999 0.73970002 0.65626103 0.945315
-1.412011 -0.241375 -0.171306 -0.49180001 0.58990002 0.64050001 0.718759 0.99218798
-1.5221369 -0.61076498 -0.74201399 -0.63880002 0.64749998 -0.41549999 0.87500399 0.88281602
-1.412011 -0.241375 -0.171306 -0.49180001 0.58990002 0.64050001 0.86719197 0.945315
-0.911852 -0.200655 -1.002417 -0.53740001 0.35370001 -0.76560003 0.92969 0.90625298
1.5246971 -0.61076498 -0.74201399 0.45030001 0.54629999 -0.7062 0.87500399 0.88281602
0.91441202 -0.200655 -1.002417 0.64740002 0.39919999 -0.64920002 0.92969 0.90625298
1.414571 -0.241375 -0.171306 0.54290003 0.70499998 -0.45640001 0.86719197 0.945315
0.00128 -0.458195 -1.3161631 0 0.41749999 -0.90869999 0.99218798 0.87500399
-0.911852 -0.200655 -1.002417 -0.53740001 0.35370001 -0.76560003 0.92969 0.90625298
0.00128 0.50598502 -0.67203802 0 0.98589998 -0.1674 0.99218798 0.99218798
0.00128 -0.458195 -1.3161631 0 0.41749999 -0.90869999 0.99218798 0.87500399
0.00128 0.50598502 -0.67203802 0 0.98589998 -0.1674 0.99218798 0.99218798
0.91441202 -0.200655 -1.002417 0.64740002 0.39919999 -0.64920002 0.92969 0.90625298
0.00128 -1.360424 0.57090098 -0.2608 0.19059999 0.94639999 0.57032597 0.88281602
0.88573402 -1.061015 0.27149501 0.3251 0.1245 0.9375 0.65626103 0.89844102
0.97234398 -0.42951599 0.36154601 -0.20299999 0.62800002 0.75129998 0.65626103 0.945315
0.88573402 -1.061015 0.27149501 0.3251 0.1245 0.9375 0.65626103 0.89844102
1.459883 -0.84076399 0.372444 -0.38940001 0.31 0.86729997 0.718759 0.92187798
0.97234398 -0.42951599 0.36154601 -0.20299999 0.62800002 0.75129998 0.65626103 0.945315
-1.412011 -0.241375 -0.171306 -0.49180001 0.58990002 0.64050001 0.718759 0.99218798
-0.96978402 -0.42951599 0.36154601 0.1869 0.64649999 0.73970002 0.65626103 0.945315
-0.63366801 0.21346501 -0.18105701 -0.5966 0.62629998 -0.5018 0.65626103 0.99218798
-1.412011 -0.241375 -0.171306 -0.49180001 0.58990002 0.64050001 0.86719197 0.945315
-0.63366801 0.21346501 -0.18105701 -0.5966 0.62629998 -0.5018 0.93750203 0.99218798
-0.911852 -0.200655 -1.002417 -0.53740001 0.35370001 -0.76560003 0.92969 0.90625298
-0.911852 -0.200655 -1.002417 -0.53740001 0.35370001 -0.76560003 0.92969 0.90625298
-0.63366801 0.21346501 -0.18105701 -0.5966 0.62629998 -0.5018 0.93750203 0.99218798
0.00128 0.50598502 -0.67203802 0 0.98589998 -0.1674 0.99218798 0.99218798
1.414571 -0.241375 -0.171306 0.54290003 0.70499998 -0.45640001 0.86719197 0.945315
0.91441202 -0.200655 -1.002417 0.64740002 0.39919999 -0.64920002 0.92969 0.90625298
0.63622802 0.21346501 -0.18105701 0.72140002 0.58880001 0.3646 0.93750203 0.99218798
0.63622802 0.21346501 -0.18105701 0.72140002 0.58880001 0.3646 0.93750203 0.99218798
0.91441202 -0.200655 -1.002417 0.64740002 0.39919999 -0.64920002 0.92969 0.90625298
0.00128 0.50598502 -0.67203802 0 0.98589998 -0.1674 0.99218798 0.99218798
1.459883 -0.84076399 0.372444 -0.38940001 0.31 0.86729997 0.718759 0.92187798
1.414571 -0.241375 -0.171306 0.54290003 0.70499998 -0.45640001 0.718759 0.99218798
0.97234398 -0.42951599 0.36154601 -0.20299999 0.62800002 0.75129998 0.65626103 0.945315
1.414571 -0.241375 -0.171306 0.54290003 0.70499998 -0.45640001 0.718759 0.99218798
0.63622802 0.21346501 -0.18105701 0.72140002 0.58880001 0.3646 0.65626103 0.99218798
0.97234398 -0.42951599 0.36154601 -0.20299999 0.62800002 0.75129998 0.65626103 0.945315
-2.076211 -1.123535 0.65923202 -0.052000001 0.229 0.972 0.078123003 0.132809
-2.131274 -1.8313351 0.37072399 -0.59359998 -0.34779999 0.72570002 0.093746997 0.039060999
-1.376449 -1.541676 0.60703701 -0.060199998 0.3127 0.9479 0.0078119999 0.070309997
-2.076211 -1.123535 0.65923202 -0.052000001 0.229 0.972 0.078123003 0.132809
-1.376449 -1.541676 0.60703701 -0.060199998 0.3127 0.9479 0.0078119999 0.070309997
-1.4573231 -0.84076399 0.372444 0.1508 0.1321 0.97970003 0.0078119999 0.14062101
-2.076211 -1.123535 0.65923202 -0.052000001 0.229 0.972 0.078123003 0.132809
-1.4573231 -0.84076399 0.372444 0.1508 0.1321 0.97970003 0.0078119999 0.14062101
-2.010824 -0.249405 0.101143 -0.55190003 0.81389999 0.18170001 0.054685999 0.20311899
-1.4573231 -0.84076399 0.372444 0.1508 0.1321 0.97970003 0.0078119999 0.14062101
-1.412011 -0.241375 -0.171306 -0.49180001 0.58990002 0.64050001 0.0078119999 0.226556
-2.010824 -0.249405 0.101143 -0.55190003 0.81389999 0.18170001 0.054685999 0.20311899
-1.412011 -0.241375 -0.171306 -0.49180001 0.58990002 0.64050001 0.0078119999 0.226556
-1.5221369 -0.61076498 -0.74201399 -0.63880002 0.64749998 -0.41549999 0.031249 0.26561701
-2.010824 -0.249405 0.101143 -0.55190003 0.81389999 0.18170001 0.054685999 0.20311899
2.0787711 -1.123535 0.65923202 0.051899999 0.229 0.972 0.078123003 0.132809
1.379009 -1.541676 0.60703701 0.0601 0.3127 0.9479 0.0078119999 0.070309997
2.1338339 -1.831905 0.37072399 0.59369999 -0.3479 0.7256 0.093746997 0.039060999
2.0787711 -1.123535 0.65923202 0.051899999 0.229 0.972 0.078123003 0.132809
1.459883 -0.84076399 0.372444 -0.38940001 0.31 0.86729997 0.0078119999 0.14062101
1.379009 -1.541676 0.60703701 0.0601 0.3127 0.9479 0.0078119999 0.070309997
2.0787711 -1.123535 0.65923202 0.051899999 0.229 0.972 0.078123003 0.132809
2.0133841 -0.249405 0.101143 0.55190003 0.81389999 0.18170001 0.054685999 0.20311899
1.459883 -0.84076399 0.372444 -0.38940001 0.31 0.86729997 0.0078119999 0.14062101
1.459883 -0.84076399 0.372444 -0.38940001 0.31 0.86729997 0.0078119999 0.14062101
2.0133841 -0.249405 0.101143 0.55190003 0.81389999 0.18170001 0.054685999 0.20311899
1.414571 -0.241375 -0.171306 0.54290003 0.70499998 -0.45640001 0.0078119999 0.226556
1.414571 -0.241375 -0.171306 0.54290003 0.70499998 -0.45640001 0.0078119999 0.226556
2.0133841 -0.249405 0.101143 0.55190003 0.81389999 0.18170001 0.054685999 0.20311899
1.5246971 -0.61076498 -0.74201399 0.45030001 0.54629999 -0.7062 0.031249 0.26561701
0.63622802 0.21346501 -0.18105701 0.37580001 0.1031 -0.92089999 0.65626103 0.99218798
0.97234398 -0.42951599 0.36154601 0.4666 -0.4605 -0.75520003 0.65626103 0.945315
0.00128 0.50598502 -0.67203802 -0.171 0.1388 -0.97539997 0.99218798 0.99218798
0.63622802 0.21346501 -0.18105701 -0.0023000001 0.96820003 0.25009999 0.65626103 0.99218798
-0.63366801 0.21346501 -0.18105701 0.1222 0.2719 0.95450002 0.65626103 0.99218798
-0.96978402 -0.42951599 0.36154601 -0.43360001 0.2172 0.87449998 0.65626103 0.945315
-0.96978402 -0.42951599 0.36154601 -0.4666 -0.46059999 -0.75510001 0.65626103 0.945315
-0.63366801 0.21346501 -0.18105701 -0.37580001 0.1031 -0.92089999 0.65626103 0.99218798
0.00128 0.50598502 -0.67203802 -0.171 0.1388 -0.97539997 0.99218798 0.99218798
-0.63366801 0.21346501 -0.18105701 0.1222 0.2719 0.95450002 0.93750203 0.99218798
0.63622802 0.21346501 -0.18105701 -0.0023000001 0.96820003 0.25009999 0.93750203 0.99218798
0.00128 0.50598502 -0.67203802 0.41909999 0.90560001 0.065499999 0.99218798 0.99218798
-0.96978402 -0.42951599 0.36154601 0.1869 0.64649999 0.73970002 0.65626103 0.945315
0.00128 -1.360424 0.57090098 -0.2608 0.19059999 0.94639999 0.57032597 0.88281602
0.97234398 -0.42951599 0.36154601 -0.20299999 0.62800002 0.75129998 0.65626103 0.945315
0.63622802 0.21346501 -0.18105701 -0.0023000001 0.96820003 0.25009999 0.65626103 0.99218798
-0.96978402 -0.42951599 0.36154601 -0.43360001 0.2172 0.87449998 0.65626103 0.945315
0.97234398 -0.42951599 0.36154601 0.1983 0.5783 0.79140002 0 0
1.9812629 -1.490055 -0.89802599 0.92079997 0.3457 -0.1805 0.85156697 0.804694
2.0787711 -1.123535 0.65923202 0.99119997 0.1017 0.085100003 0.078123003 0.132809
2.3581021 -2.116395 -0.399589 0.85909998 -0.50980002 0.044799998 0.789069 0.76563197
2.1338339 -1.831905 0.37072399 0.95429999 0.1232 0.2723 0.74219501 0.804694
2.3581021 -2.116395 -0.399589 0.85909998 -0.50980002 0.044799998 0.789069 0.76563197
2.0787711 -1.123535 0.65923202 0.99119997 0.1017 0.085100003 0.078123003 0.132809
1.9812629 -1.490055 -0.89802599 0.92079997 0.3457 -0.1805 0.85156697 0.804694
2.0133841 -0.249405 0.101143 0.50449997 0.84560001 -0.1744 0.054685999 0.20311899
2.0787711 -1.123535 0.65923202 0.99119997 0.1017 0.085100003 0.078123003 0.132809
2.0133841 -0.249405 0.101143 -0.48710001 0.39680001 0.778 0.054685999 0.20311899
1.5246971 -0.61076498 -0.74201399 -0.97939998 -0.1735 0.1032 0.031249 0.26561701
2.0787711 -1.123535 0.65923202 -0.9357 -0.092699997 0.34040001 0.078123003 0.132809
2.0133841 -0.249405 0.101143 0.50449997 0.84560001 -0.1744 0.054685999 0.20311899
1.9812629 -1.490055 -0.89802599 0.92079997 0.3457 -0.1805 0.85156697 0.804694
1.5246971 -0.61076498 -0.74201399 0.7457 0.3504 -0.56669998 0.87500399 0.88281602
-1.97813 -1.490055 -0.89802599 -0.92070001 0.3459 -0.1806 0.85156697 0.804694
-2.3555419 -2.116395 -0.399589 -0.96219999 -0.0253 0.27110001 0 0
-2.076211 -1.123535 0.65923202 -0.99119997 0.1017 0.084700003 0.078123003 0.132809
1.9812629 -1.490055 -0.89802599 -0.89670002 -0.4073 0.1734 0.85156697 0.804694
2.3581021 -2.116395 -0.399589 -0.72119999 -0.66119999 0.2067 0.789069 0.76563197
2.1338339 -1.831905 0.37072399 -0.9181 -0.38209999 -0.1049 0.74219501 0.804694
-1.5221369 -0.61076498 -0.74201399 0.97979999 0.13169999 0.1508 0.031249 0.26561701
-2.010824 -0.249405 0.101143 0.48710001 0.3969 0.77789998 0.054685999 0.20311899
-2.076211 -1.123535 0.65923202 0.93559998 -0.092500001 0.34060001 0.078123003 0.132809
1.9812629 -1.490055 -0.89802599 -0.89670002 -0.4073 0.1734 0.85156697 0.804694
2.0787711 -1.123535 0.65923202 -0.9357 -0.092699997 0.34040001 0.078123003 0.132809
1.5246971 -0.61076498 -0.74201399 -0.97939998 -0.1735 0.1032 0 0
-2.3555419 -2.116395 -0.399589 -0.96219999 -0.0253 0.27110001 0.789069 0.76563197
-2.131274 -1.8313351 0.37072399 -0.95429999 0.1231 0.27250001 0.74219501 0.804694
-2.076211 -1.123535 0.65923202 -0.99119997 0.1017 0.084700003 0.078123003 0.132809
-1.97813 -1.490055 -0.89802599 -0.92070001 0.3459 -0.1806 0.85156697 0.804694
-2.076211 -1.123535 0.65923202 -0.99119997 0.1017 0.084700003 0.078123003 0.132809
-2.010824 -0.249405 0.101143 -0.50449997 0.84560001 -0.17460001 0.054685999 0.20311899
-1.97813 -1.490055 -0.89802599 -0.92070001 0.3459 -0.1806 0.85156697 0.804694
-2.010824 -0.249405 0.101143 -0.50449997 0.84560001 -0.17460001 0.054685999 0.20311899
-1.5221369 -0.61076498 -0.74201399 -0.48980001 0.4138 -0.76740003 0.031249 0.26561701
-0.58204699 -7.5108781 -0.23038501 0.037999999 -0.91420001 0.40349999 0.60938698 0.36717701
-0.968063 -7.4099269 -1.581156 -0.1357 -0.99040002 -0.0254 0.86719197 0.374989
-0.439226 -7.5940461 -1.34771 -0.4571 -0.87840003 -0.1393 0.95312703 0.374989
-1.97813 -1.490055 -0.89802599 0.89649999 -0.4073 0.1741 0.85156697 0.804694
-2.131274 -1.8313351 0.37072399 0.9181 -0.38229999 -0.1045 0.093746997 0.039060999
-2.3555419 -2.116395 -0.399589 0.4235 -0.82239997 -0.37979999 0.789069 0.76563197
-1.97813 -1.490055 -0.89802599 0.89649999 -0.4073 0.1741 0.85156697 0.804694
-2.076211 -1.123535 0.65923202 0.93559998 -0.092500001 0.34060001 0.078123003 0.132809
-2.131274 -1.8313351 0.37072399 0.9181 -0.38229999 -0.1045 0.093746997 0.039060999
-1.091382 -7.032515 -0.117391 0.60750002 0.77560002 -0.17120001 0.67969698 0.374989
-0.58204699 -7.5108781 -0.23038501 0.87580001 0.36939999 0.3107 0.60938698 0.36717701
-0.439226 -7.5940461 -1.34771 0.74349999 0.54449999 -0.38820001 0.60938698 0.34373999
-0.58204699 -7.5108781 -0.23038501 0.037999999 -0.91420001 0.40349999 0.60938698 0.36717701
-1.525578 -6.901165 -0.567074 -0.69529998 -0.69389999 -0.18719999 0.75000799 0.374989
-0.968063 -7.4099269 -1.581156 -0.1357 -0.99040002 -0.0254 0.86719197 0.374989
0.58460701 -7.5108781 -0.23038501 0.46610001 -0.24169999 0.85110003 0.60938698 0.36717701
0.44178599 -7.5940461 -1.34771 0.041000001 -0.9727 0.22840001 0.60938698 0.34373999
0.97062302 -7.4099269 -1.581156 0.68159997 -0.0704 -0.72829998 0.86719197 0.374989
-0.58204699 -7.5108781 -0.23038501 -0.1212 -0.98930001 0.081799999 0.60938698 0.36717701
-1.091382 -7.032515 -0.117391 -0.64209998 -0.71929997 0.26499999 0.67969698 0.374989
-1.525578 -6.901165 -0.567074 -0.49680001 -0.86479998 0.073100001 0.75000799 0.374989
-1.525578 -6.901165 -0.567074 0.36480001 0.9296 0.052299999 0.75000799 0.374989
-0.439226 -7.5940461 -1.34771 0.74349999 0.54449999 -0.38820001 0.95312703 0.374989
-0.968063 -7.4099269 -1.581156 0.57950002 0.56110001 -0.59100002 0.86719197 0.374989
-0.58204699 -7.5108781 -0.23038501 -0.031599998 -0.099399999 0.99449998 0.60938698 0.36717701
1.093942 -7.032515 -0.117391 -0.062600002 0.9418 0.33039999 0 0
-1.525578 -6.901165 -0.567074 0.040600002 0.99119997 0.12620001 0.75000799 0.374989
1.093942 -7.032515 -0.117391 -0.062600002 0.9418 0.33039999 0.67969698 0.374989
1.5281379 -6.901165 -0.567074 0.22409999 0.91049999 0.34740001 0.75000799 0.374989
-1.525578 -6.901165 -0.567074 0.040600002 0.99119997 0.12620001 0 0
0.58460701 -7.5108781 -0.23038501 0.46610001 -0.24169999 0.85110003 0.60938698 0.36717701
0.97062302 -7.4099269 -1.581156 0.68159997 -0.0704 -0.72829998 0.86719197 0.374989
1.5281379 -6.901165 -0.567074 0.62290001 -0.54210001 0.56400001 0.75000799 0.374989
0.58460701 -7.5108781 -0.23038501 0.46610001 -0.24169999 0.85110003 0 0
1.5281379 -6.901165 -0.567074 0.62290001 -0.54210001 0.56400001 0.75000799 0.374989
1.093942 -7.032515 -0.117391 0.49239999 -0.5011 0.71160001 0.67969698 0.374989
-0.96978402 -0.42951599 0.36154601 -0.4666 -0.46059999 -0.75510001 0.65626103 0.945315
0.00128 0.50598502 -0.67203802 -0.171 0.1388 -0.97539997 0.99218798 0.99218798
0.97234398 -0.42951599 0.36154601 0.4666 -0.4605 -0.75520003 0.65626103 0.945315
1.9812629 -1.490055 -0.89802599 -0.89670002 -0.4073 0.1734 0.85156697 0.804694
2.1338339 -1.831905 0.37072399 -0.9181 -0.38209999 -0.1049 0.093746997 0.039060999
2.0787711 -1.123535 0.65923202 -0.9357 -0.092699997 0.34040001 0.078123003 0.132809
-1.97813 -1.490055 -0.89802599 0.89649999 -0.4073 0.1741 0.85156697 0.804694
-1.5221369 -0.61076498 -0.74201399 0.97979999 0.13169999 0.1508 0.031249 0.26561701
-2.076211 -1.123535 0.65923202 0.93559998 -0.092500001 0.34060001 0.078123003 0.132809
-1.525578 -6.901165 -0.567074 0.36480001 0.9296 0.052299999 0.75000799 0.374989
-1.091382 -7.032515 -0.117391 0.60750002 0.77560002 -0.17120001 0.67969698 0.374989
-0.439226 -7.5940461 -1.34771 0.74349999 0.54449999 -0.38820001 0.95312703 0.374989
-0.968063 -7.4099269 -1.581156 -0.30219999 0.6451 -0.70179999 0.86719197 0.374989
-1.525578 -6.901165 -0.567074 0.040600002 0.99119997 0.12620001 0 0
1.5281379 -6.901165 -0.567074 0.22409999 0.91049999 0.34740001 0.75000799 0.374989
3 0 1 2
3 3 4 5
3 6 7 8
3 9 10 11
3 12 13 14
3 15 16 17
3 18 19 20
3 21 22 23
3 24 25 26
3 27 28 29
3 30 31 32
3 33 34 35
3 36 37 38
3 39 40 41
3 42 43 44
3 45 46 47
3 48 49 50
3 51 52 53
3 54 55 56
3 57 58 59
3 60 61 62
3 63 64 65
3 66 67 68
3 69 70 71
3 72 73 74
3 75 76 77
3 78 79 80
3 81 82 83
3 84 85 86
3 87 88 89
3 90 91 92
3 93 94 95
3 96 97 98
3 99 100 101
3 102 103 104
3 105 106 107
3 108 109 110
3 111 112 113
3 114 115 116
3 117 118 119
3 120 121 122
3 123 124 125
3 126 127 128
3 129 130 131
3 132 133 134
3 135 136 137
3 138 139 140
3 141 142 143
3 144 145 146
3 147 148 149
3 150 151 152
3 153 154 155
3 156 157 158
3 159 160 161
3 162 163 164
3 165 166 167
3 168 169 170
3 171 172 173
3 174 175 176
3 177 178 179
3 180 181 182
3 183 184 185
3 186 187 188
3 189 190 191
3 192 193 194
3 195 196 197
3 198 199 200
3 201 202 203
3 204 205 206
3 207 208 209
3 210 211 212
3 213 214 215
3 216 217 218
3 219 220 221
3 222 223 224
3 225 226 227
3 228 229 230
3 231 232 233
3 234 235 236
3 237 238 239
3 240 241 242
3 243 244 245
3 246 247 248
3 249 250 251
3 252 253 254
3 255 256 257
3 258 259 260
3 261 262 263
3 264 265 266
3 267 268 269
3 270 271 272
3 273 274 275
3 276 277 278
3 279 280 281
3 282 283 284
3 285 286 287
3 288 289 290
3 291 292 293
3 294 295 296
3 297 298 299
3 300 301 302
3 303 304 305
3 306 307 308
3 309 310 311
3 312 313 314
3 315 316 317
3 318 319 320
3 321 322 323
3 324 325 326
3 327 328 329
3 330 331 332
3 333 334 335
3 336 337 338
3 339 340 341
3 342 343 344
3 345 346 347
3 348 349 350
3 351 352 353
3 354 355 356
3 357 358 359
3 360 361 362
3 363 364 365
3 366 367 368
3 369 370 371
3 372 373 374
3 375 376 377
3 378 379 380
3 381 382 383
3 384 385 386
3 387 388 389
3 390 391 392
3 393 394 395
3 396 397 398
3 399 400 401
3 402 403 404
3 405 406 407
3 408 409 410
3 411 412 413
3 414 415 416
3 417 418 419
3 420 421 422
3 423 424 425
3 426 427 428
3 429 430 431
3 432 433 434
3 435 436 437
3 438 439 440
3 441 442 443
3 444 445 446
3 447 448 449
3 450 451 452
3 453 454 455
3 456 457 458
3 459 460 461
3 462 463 464
3 465 466 467
3 468 469 470
3 471 472 473
3 474 475 476
3 477 478 479
3 480 481 482
3 483 484 485
3 486 487 488
3 489 490 491
3 492 493 494
3 495 496 497
3 498 499 500
3 501 502 503
3 504 505 506
